<svg width="20" height="22" viewBox="0 0 20 22" fill="none" xmlns="http://www.w3.org/2000/svg">
<path d="M17.7205 11.1275C17.6445 11.0835 17.5611 11.0413 17.4748 11C17.5611 10.9588 17.6445 10.9166 17.7205 10.8725C18.1504 10.6281 18.5277 10.3011 18.8307 9.9102C19.1337 9.51935 19.3564 9.07242 19.486 8.59515C19.6156 8.11787 19.6495 7.61968 19.5857 7.12926C19.522 6.63883 19.3619 6.16586 19.1146 5.73757C18.8673 5.30928 18.5377 4.93413 18.1449 4.63373C17.752 4.33332 17.3036 4.11359 16.8255 3.98718C16.3474 3.86077 15.849 3.83018 15.359 3.89718C14.869 3.96418 14.3971 4.12743 13.9705 4.37755C13.8945 4.42161 13.8158 4.4713 13.738 4.52661C13.7455 4.43286 13.7502 4.33911 13.7502 4.24536C13.7502 3.2508 13.3551 2.29697 12.6518 1.59371C11.9485 0.89045 10.9947 0.495361 10.0002 0.495361C9.00559 0.495361 8.05177 0.89045 7.34851 1.59371C6.64524 2.29697 6.25016 3.2508 6.25016 4.24536C6.25016 4.33349 6.25015 4.42724 6.26234 4.52661C6.18453 4.47317 6.10578 4.42161 6.02984 4.37755C5.6032 4.12743 5.1313 3.96418 4.64131 3.89718C4.15132 3.83018 3.65292 3.86077 3.17479 3.98718C2.69667 4.11359 2.24828 4.33332 1.85542 4.63373C1.46256 4.93413 1.13301 5.30928 0.885729 5.73757C0.638449 6.16586 0.478327 6.63883 0.414582 7.12926C0.350837 7.61968 0.384729 8.11787 0.514306 8.59515C0.643882 9.07242 0.866584 9.51935 1.16959 9.9102C1.4726 10.3011 1.84992 10.6281 2.27984 10.8725C2.35578 10.9166 2.43922 10.9588 2.52547 11C2.43922 11.0413 2.35578 11.0835 2.27984 11.1275C1.84992 11.372 1.4726 11.699 1.16959 12.0899C0.866584 12.4808 0.643882 12.9277 0.514306 13.405C0.384729 13.8822 0.350837 14.3804 0.414582 14.8708C0.478327 15.3613 0.638449 15.8342 0.885729 16.2625C1.13301 16.6908 1.46256 17.066 1.85542 17.3664C2.24828 17.6668 2.69667 17.8865 3.17479 18.0129C3.65292 18.1393 4.15132 18.1699 4.64131 18.1029C5.1313 18.0359 5.6032 17.8727 6.02984 17.6225C6.10578 17.5785 6.18453 17.5288 6.26234 17.4735C6.25484 17.5672 6.25016 17.661 6.25016 17.75C6.25016 18.7446 6.64524 19.6984 7.34851 20.4017C8.05177 21.105 9.00559 21.5 10.0002 21.5C10.9947 21.5 11.9485 21.105 12.6518 20.4017C13.3551 19.6984 13.7502 18.7446 13.7502 17.75C13.7502 17.6619 13.7455 17.5682 13.738 17.4735C13.8158 17.5269 13.8945 17.5785 13.9705 17.6225C14.5385 17.9516 15.1834 18.125 15.8398 18.125C16.1697 18.1246 16.4981 18.0811 16.8167 17.9957C17.5331 17.8037 18.1765 17.4035 18.6655 16.8458C19.1545 16.2881 19.4671 15.598 19.5639 14.8626C19.6606 14.1273 19.5371 13.3797 19.209 12.7145C18.8809 12.0494 18.3629 11.4964 17.7205 11.1257V11.1275ZM7.75016 11C7.75016 10.555 7.88212 10.12 8.12935 9.75002C8.37658 9.38001 8.72798 9.09162 9.13912 8.92132C9.55025 8.75102 10.0027 8.70647 10.4391 8.79328C10.8756 8.8801 11.2765 9.09439 11.5911 9.40906C11.9058 9.72373 12.1201 10.1246 12.2069 10.5611C12.2937 10.9976 12.2492 11.45 12.0789 11.8611C11.9086 12.2722 11.6202 12.6236 11.2502 12.8709C10.8802 13.1181 10.4452 13.25 10.0002 13.25C9.40342 13.25 8.83112 13.013 8.40916 12.591C7.98721 12.1691 7.75016 11.5968 7.75016 11ZM14.7205 5.67599C14.9764 5.52825 15.2588 5.43236 15.5518 5.3938C15.8447 5.35523 16.1424 5.37474 16.4278 5.45122C16.7132 5.5277 16.9808 5.65964 17.2152 5.83952C17.4496 6.0194 17.6463 6.24369 17.7941 6.49958C17.9418 6.75547 18.0377 7.03796 18.0763 7.33091C18.1148 7.62386 18.0953 7.92154 18.0188 8.20695C17.9424 8.49236 17.8104 8.75991 17.6305 8.99433C17.4506 9.22874 17.2264 9.42544 16.9705 9.57317C16.3827 9.91349 15.2258 10.1479 13.6742 10.2472C13.5105 9.4535 13.0941 8.73415 12.4873 8.19692C13.3498 6.9013 14.1327 6.0163 14.7205 5.67599ZM10.0002 2.00005C10.5969 2.00005 11.1692 2.2371 11.5911 2.65906C12.0131 3.08102 12.2502 3.65331 12.2502 4.25005C12.2502 4.9288 11.8752 6.04911 11.1852 7.44317C10.4161 7.18568 9.58417 7.18568 8.81516 7.44317C8.12516 6.04911 7.75016 4.9288 7.75016 4.25005C7.75016 3.65331 7.98721 3.08102 8.40916 2.65906C8.83112 2.2371 9.40342 2.00005 10.0002 2.00005ZM2.20578 6.50005C2.35348 6.24405 2.55016 6.01966 2.7846 5.83969C3.01903 5.65973 3.28663 5.52771 3.5721 5.45118C3.85756 5.37466 4.15531 5.35512 4.44833 5.3937C4.74135 5.43227 5.0239 5.52819 5.27984 5.67599C5.86766 6.0163 6.65047 6.9013 7.51297 8.19692C6.90566 8.73489 6.4892 9.4553 6.32609 10.25C4.77453 10.1507 3.61766 9.9163 3.02984 9.57692C2.77347 9.42923 2.54875 9.23242 2.36854 8.99776C2.18833 8.7631 2.05617 8.49521 1.97962 8.20941C1.90308 7.92361 1.88366 7.62552 1.92246 7.33221C1.96127 7.03889 2.05755 6.75611 2.20578 6.50005ZM5.27984 16.3241C4.76304 16.6225 4.14888 16.7033 3.57247 16.5489C2.99606 16.3944 2.50462 16.0173 2.20625 15.5005C1.90788 14.9837 1.82703 14.3696 1.98148 13.7931C2.13594 13.2167 2.51304 12.7253 3.02984 12.4269C3.61766 12.0866 4.77453 11.8522 6.32609 11.7529C6.48977 12.5466 6.90618 13.2659 7.51297 13.8032C6.65047 15.0988 5.86766 15.9838 5.27984 16.3241ZM10.0002 20C9.40342 20 8.83112 19.763 8.40916 19.341C7.98721 18.9191 7.75016 18.3468 7.75016 17.75C7.75016 17.0713 8.12516 15.951 8.81516 14.5569C9.58417 14.8144 10.4161 14.8144 11.1852 14.5569C11.8752 15.951 12.2502 17.0713 12.2502 17.75C12.2502 18.3468 12.0131 18.9191 11.5911 19.341C11.1692 19.763 10.5969 20 10.0002 20ZM17.7945 15.5C17.6468 15.756 17.4502 15.9804 17.2157 16.1604C16.9813 16.3404 16.7137 16.4724 16.4282 16.5489C16.1427 16.6254 15.845 16.645 15.552 16.6064C15.259 16.5678 14.9764 16.4719 14.7205 16.3241C14.1327 15.9838 13.3498 15.0988 12.4873 13.8032C13.0946 13.2652 13.5111 12.5448 13.6742 11.75C15.2258 11.8494 16.3827 12.0838 16.9705 12.4232C17.2268 12.5709 17.4516 12.7677 17.6318 13.0023C17.812 13.237 17.9441 13.5049 18.0207 13.7907C18.0972 14.0765 18.1167 14.3746 18.0778 14.6679C18.039 14.9612 17.9428 15.244 17.7945 15.5Z" fill="white"/>
</svg>
