<svg width="23" height="22" viewBox="0 0 23 22" fill="none" xmlns="http://www.w3.org/2000/svg">
<path d="M2.5 12.083C2.5 12.006 2.5 11.967 2.502 11.935C2.51775 11.6927 2.62111 11.4645 2.79279 11.2928C2.96446 11.1211 3.19273 11.0178 3.435 11.002C3.468 11 3.505 11 3.583 11H19.417C19.494 11 19.532 11 19.565 11.002C19.8073 11.0178 20.0355 11.1211 20.2072 11.2928C20.3789 11.4645 20.4822 11.6927 20.498 11.935C20.5 11.967 20.5 12.005 20.5 12.083C20.5 12.478 20.5 12.676 20.486 12.898C20.277 16.185 17.483 19.087 14.206 19.418C13.985 19.441 13.856 19.446 13.598 19.456C12.899 19.4836 12.1995 19.4982 11.5 19.5C10.85 19.5 10.136 19.483 9.402 19.456C9.144 19.446 9.015 19.441 8.795 19.419C5.517 19.087 2.723 16.185 2.515 12.898C2.5 12.676 2.5 12.478 2.5 12.083Z" stroke="white" stroke-width="1.5"/>
<path d="M5.5 19L4.5 21M17.5 19L18.5 21M1.5 11H21.5" stroke="white" stroke-width="1.5" stroke-linecap="round"/>
<path d="M1.75 12C1.75 12.1989 1.82902 12.3897 1.96967 12.5303C2.11032 12.671 2.30109 12.75 2.5 12.75C2.69891 12.75 2.88968 12.671 3.03033 12.5303C3.17098 12.3897 3.25 12.1989 3.25 12H1.75ZM5.846 7.742L5.148 8.017C5.18492 8.11034 5.2402 8.19532 5.31057 8.2669C5.38094 8.33848 5.46496 8.39521 5.55765 8.43373C5.65035 8.47224 5.74983 8.49176 5.8502 8.49112C5.95058 8.49048 6.0498 8.46969 6.142 8.43L5.846 7.742ZM11.806 5.175L12.103 5.865C12.282 5.78791 12.4239 5.64417 12.4988 5.46423C12.5736 5.2843 12.5755 5.08229 12.504 4.901L11.806 5.175ZM3.25 12V3.385H1.75V12H3.25ZM4.885 1.75C5.554 1.75 6.155 2.157 6.403 2.778L7.796 2.22C7.5634 1.63832 7.16187 1.14067 6.64318 0.789355C6.1245 0.438041 5.51246 0.25018 4.886 0.25L4.885 1.75ZM3.25 3.385C3.25 2.482 3.982 1.75 4.885 1.75L4.886 0.25C4.05455 0.25 3.25615 0.580294 2.66822 1.16822C2.08029 1.75615 1.75 2.55355 1.75 3.385H3.25ZM6.403 2.778L6.783 3.726L8.175 3.169L7.796 2.22L6.403 2.778ZM6.543 7.467C6.29145 6.82588 6.29646 6.11252 6.557 5.475L5.167 4.91C4.76127 5.90461 4.7551 7.01725 5.148 8.017L6.543 7.467ZM11.51 4.487L5.549 7.053L6.142 8.43L12.102 5.864L11.51 4.487ZM9.782 4.068C10.404 4.334 10.867 4.837 11.109 5.45L12.504 4.901C12.3133 4.40923 12.0265 3.95937 11.6605 3.57959C11.2944 3.19981 10.8564 2.89672 10.372 2.688L9.782 4.068ZM6.557 5.475C6.79156 4.88441 7.237 4.40291 7.807 4.122L7.151 2.774C6.24832 3.21621 5.5415 3.97719 5.167 4.91L6.557 5.475ZM7.807 4.122C8.11284 3.97104 8.44775 3.88813 8.78869 3.87898C9.12963 3.86983 9.46851 3.93366 9.782 4.068L10.372 2.688C9.86066 2.46936 9.30813 2.36477 8.75221 2.37944C8.19629 2.39411 7.65009 2.5287 7.151 2.774L7.807 4.122Z" fill="white"/>
</svg>
