<svg width="1280" height="653" viewBox="0 0 1280 653" fill="none" xmlns="http://www.w3.org/2000/svg">
<mask id="mask0_717_1317" style="mask-type:luminance" maskUnits="userSpaceOnUse" x="-18" y="-184" width="1298" height="837">
<path d="M1280 -184H-18V653H1280V-184Z" fill="white"/>
</mask>
<g mask="url(#mask0_717_1317)">
<path d="M-199.828 -305.47C-143.797 -356.422 -62.9968 -379.649 12.9362 -366.884C88.8692 -354.12 157.988 -305.26 195.197 -238.51C242.466 -153.554 240.411 -43.2793 308.339 26.9241C365.992 86.3511 455.879 98.1737 537.977 109.892C620.076 121.61 710.936 142.535 757.555 210.645C789.032 256.68 795.738 318.828 838.14 355.342C881.298 392.379 947.604 389.031 999.092 366.014C1050.58 342.996 1092.33 304.076 1138.84 272.479C1279.68 176.956 1468.64 153.102 1631.54 210.227" stroke="#75828E" stroke-opacity="0.8" stroke-miterlimit="10"/>
<path d="M-207.399 -298.983C-175.598 -327.022 -136.009 -345.75 -94.5816 -353.702C-60.4009 -360.293 -25.0304 -359.665 8.39309 -351.714C16.0729 -349.831 23.5364 -347.634 30.8917 -345.123C68.8582 -331.835 103.039 -309.027 133.217 -280.464C153.877 -260.899 172.698 -239.137 187.625 -215.806C195.954 -202.833 203.201 -189.545 209.691 -176.049C227.431 -139.221 239.545 -101.032 255.446 -65.2507C270.156 -31.6661 288.328 -0.069304 317.642 26.4008C320.562 29.0164 323.483 31.5274 326.619 34.0384C360.8 61.6594 403.634 78.8179 446.144 92.3146C479.026 102.777 511.584 110.31 542.736 117.634C545.873 118.366 549.01 119.099 552.147 119.831C593.467 129.875 636.625 142.953 673.402 164.924C701.092 181.35 725.43 203.217 745.333 231.57C776.809 276.559 786.003 334.626 828.405 368.42C871.239 402.842 935.922 399.389 986.652 377.836C1020.4 363.503 1050.15 342.682 1079.78 321.966C1094.71 311.504 1109.64 301.041 1125 291.416C1186.98 252.6 1257.61 228.013 1329.87 218.388C1419.86 206.46 1511.91 217.76 1593.68 250.298" stroke="#75828E" stroke-opacity="0.8" stroke-miterlimit="10"/>
<path d="M-214.863 -292.496C-182.089 -320.64 -140.877 -338.426 -98.6923 -344.495C-63.8626 -349.517 -28.4921 -346.692 3.95786 -336.439C11.4214 -334.137 18.6685 -331.417 25.6994 -328.278C62.1515 -312.375 93.3035 -287.16 123.482 -257.342C144.034 -236.94 163.828 -215.178 180.378 -192.893C189.572 -180.443 197.793 -167.888 205.256 -155.437C225.7 -121.33 240.843 -87.6404 259.015 -55.939C276.105 -26.1209 296.332 1.81401 327.16 26.1916C330.189 28.598 333.325 30.8998 336.57 33.2015C372.374 58.6254 416.614 76.6209 457.825 92.7332C489.734 105.288 519.48 115.541 547.604 125.376C550.416 126.318 553.228 127.364 556.149 128.306C593.466 141.593 632.514 157.705 665.722 181.874C690.708 200.078 712.774 223.828 733.326 252.495C764.802 296.438 776.592 350.215 818.886 381.498C861.611 413.095 924.564 409.747 974.537 389.659C1007.74 376.371 1037.27 357.121 1066.7 338.079C1081.51 328.453 1096.33 318.932 1111.48 310.248C1172.7 275.199 1241.71 254.379 1310.94 248.415C1397.14 240.987 1483.03 256.785 1556.26 290.265" stroke="#75828E" stroke-opacity="0.8" stroke-miterlimit="10"/>
<path d="M-222.435 -286.009C-188.579 -314.258 -145.853 -331.207 -102.911 -335.392C-67.5404 -338.845 -32.0617 -333.823 -0.47707 -321.373C6.7701 -318.548 13.6928 -315.304 20.5073 -311.747C55.337 -293.228 83.6766 -265.712 113.639 -234.638C134.082 -213.295 154.958 -191.742 173.022 -170.294C183.082 -158.367 192.168 -146.649 200.605 -135.245C223.752 -103.962 241.708 -74.6668 262.368 -46.9412C281.73 -20.9942 304.012 3.38345 336.462 25.5639C339.707 27.7611 342.952 29.9582 346.305 32.0507C383.839 55.6959 429.594 74.4238 469.507 93.2563C500.443 108.008 527.268 120.982 552.471 133.223C554.959 134.479 557.555 135.629 560.043 136.885C593.466 153.206 628.296 172.457 657.934 199.032C680.108 218.911 700.01 244.649 721.211 273.63C752.579 316.526 767.074 366.118 809.259 394.786C851.768 423.662 912.991 420.314 962.315 401.691C995.089 389.345 1024.29 371.663 1053.5 354.296C1068.21 345.612 1082.81 337.033 1097.85 329.29C1158.31 298.007 1225.59 280.954 1291.9 278.652C1374.43 275.827 1453.93 296.124 1518.62 330.441" stroke="#75828E" stroke-opacity="0.8" stroke-miterlimit="10"/>
<path d="M-230.007 -279.523C-195.069 -307.876 -150.829 -323.884 -107.129 -326.185C-71.11 -328.069 -35.6313 -320.85 -4.91199 -306.202C2.11885 -302.854 8.82516 -299.088 15.3152 -295.112C48.6305 -274.082 74.0497 -244.055 103.796 -211.83C124.131 -189.65 146.089 -168.097 165.559 -147.695C176.375 -136.291 186.543 -125.305 195.954 -114.948C221.914 -86.4895 242.682 -61.5888 265.721 -37.9435C287.246 -15.8676 311.692 4.95274 345.764 25.0407C349.118 27.0286 352.579 29.0165 356.148 30.8997C395.413 52.6617 442.574 72.0173 481.189 93.6747C511.151 110.519 535.056 126.213 557.338 140.861C559.61 142.325 561.773 143.79 564.045 145.255C593.574 164.715 624.294 187 650.254 215.981C669.724 237.639 687.247 265.26 709.204 294.555C740.465 336.405 757.555 381.812 799.74 407.968C842.033 434.125 901.633 430.776 950.092 413.618C982.325 402.214 1011.42 386.102 1040.3 370.513C1054.8 362.666 1069.4 355.028 1084.22 348.227C1143.93 320.711 1209.58 307.424 1272.86 308.784C1351.61 310.458 1424.94 335.254 1481.08 370.513" stroke="#75828E" stroke-opacity="0.8" stroke-miterlimit="10"/>
<path d="M-237.578 -273.036C-201.559 -301.494 -155.912 -316.664 -111.348 -317.083C-74.7873 -317.501 -39.3086 -307.981 -9.45462 -291.136C-2.64012 -287.265 3.84988 -283.08 10.0154 -278.476C41.7082 -254.831 64.315 -222.502 93.8445 -189.022C114.072 -165.9 137.003 -144.452 158.096 -124.991C169.778 -114.11 180.919 -103.962 191.303 -94.6502C219.967 -68.9125 243.547 -48.5106 269.075 -28.8411C292.871 -10.5317 319.48 6.62678 355.067 24.6223C358.637 26.4009 362.206 28.1795 365.884 29.9582C406.879 49.6277 455.446 69.9249 492.763 94.1979C521.752 113.24 542.736 131.549 561.99 148.708C563.937 150.382 565.884 152.056 567.831 153.834C593.466 176.538 619.967 201.752 642.358 233.14C659.015 256.471 674.375 286.08 696.982 315.689C728.242 356.493 747.82 397.715 789.897 421.256C831.974 444.692 889.843 441.344 937.653 425.65C969.454 415.292 998.226 400.645 1026.89 386.834C1041.28 379.929 1055.66 373.128 1070.27 367.269C1129.22 343.624 1193.25 333.998 1253.5 338.916C1328.57 345.193 1395.52 374.488 1443.22 410.584" stroke="#75828E" stroke-opacity="0.8" stroke-miterlimit="10"/>
<path d="M-245.15 -266.654C-208.157 -295.216 -160.888 -309.55 -115.566 -307.981C-78.3569 -306.83 -42.8782 -295.112 -13.8896 -275.965C-7.29141 -271.571 -1.01772 -266.863 4.82328 -261.841C35.0018 -235.58 54.6881 -200.845 84.0013 -166.109C104.228 -142.15 128.133 -120.806 150.74 -102.183C163.287 -91.9299 175.402 -82.4091 186.76 -74.1437C218.128 -51.2308 244.521 -35.2232 272.644 -19.6341C298.604 -5.19582 327.376 8.40542 364.694 24.2038C368.372 25.7732 372.157 27.3425 376.051 28.9119C418.669 46.6982 468.75 67.6232 504.77 94.721C532.677 115.855 550.849 136.78 567.182 156.45C568.804 158.438 570.427 160.321 572.158 162.309C593.899 188.151 616.181 216.4 635.002 250.194C648.956 275.199 661.936 306.796 685.3 336.719C716.452 376.581 738.734 413.513 780.703 434.438C822.563 455.259 878.81 451.806 925.862 437.577C957.123 428.161 985.679 415.083 1014.13 403.051C1028.4 396.983 1042.68 391.228 1057.07 386.311C1115.26 366.432 1177.57 360.573 1234.79 369.152C1306.07 380.033 1366.86 413.723 1406.01 450.76" stroke="#75828E" stroke-opacity="0.8" stroke-miterlimit="10"/>
<path d="M-252.722 -260.167C-214.647 -288.834 -165.864 -302.226 -119.785 -298.774C-82.0347 -296.053 -46.4478 -282.138 -18.4327 -260.795C-12.0508 -255.982 -5.99352 -250.646 -0.47702 -245.101C28.079 -216.225 44.953 -179.083 74.0498 -143.196C94.1688 -118.296 119.155 -97.0567 143.168 -79.4797C156.473 -69.7496 169.561 -61.0657 181.892 -53.8465C216.073 -33.7585 245.17 -22.1452 275.781 -10.6364C304.012 -0.0692831 334.84 9.87008 373.78 23.6806C377.674 25.0407 381.568 26.4008 385.57 27.8656C429.918 43.664 481.406 65.3214 516.127 95.1395C543.061 118.471 558.312 142.012 571.725 164.192C573.023 166.389 574.429 168.586 575.727 170.783C593.466 199.869 611.746 231.047 626.89 267.143C638.031 293.927 648.739 327.407 672.752 357.539C703.688 396.355 728.675 429.103 770.643 447.412C812.179 465.512 866.803 462.059 913.099 449.295C943.926 440.821 972.266 429.312 1000.39 419.058C1014.56 413.827 1028.62 409.015 1042.9 405.039C1100.34 388.927 1161.02 386.834 1215.21 399.075C1282.81 414.455 1337.33 452.748 1367.83 490.622" stroke="#75828E" stroke-opacity="0.8" stroke-miterlimit="10"/>
<path d="M-260.185 -253.68C-221.029 -282.452 -170.731 -295.007 -123.895 -289.671C-85.4959 -285.382 -49.909 -269.165 -22.7592 -245.729C-16.5937 -240.393 -10.8609 -234.638 -5.56071 -228.57C21.481 -197.078 35.4344 -157.634 64.3149 -120.493C84.3258 -94.7548 110.286 -73.516 135.921 -56.8806C150.091 -47.6736 164.153 -39.8267 177.457 -33.5492C214.45 -16.2861 246.251 -8.96234 279.35 -1.53397C309.745 5.26666 342.736 11.5442 383.298 23.2622C387.301 24.4131 391.411 25.5639 395.521 26.8194C441.492 40.6299 494.494 63.1243 527.809 95.6627C553.769 121.087 566.1 147.347 576.592 171.934C577.674 174.341 578.647 176.747 579.729 179.153C593.574 211.483 607.744 245.486 619.21 284.092C627.647 312.55 635.976 348.018 660.746 378.464C691.573 416.338 719.156 444.901 761.125 460.49C802.444 475.87 855.446 472.417 900.984 461.222C931.271 453.794 959.394 443.75 987.301 435.275C1001.36 430.986 1015.32 427.115 1029.38 423.976C1085.95 411.63 1145.01 413.304 1196.28 429.207C1260.1 449.191 1308.34 491.878 1330.41 530.693" stroke="#75828E" stroke-opacity="0.8" stroke-miterlimit="10"/>
<path d="M-267.757 -247.193C-227.519 -276.07 -175.707 -287.788 -128.222 -280.464C-89.2818 -274.605 -53.5868 -256.191 -27.3023 -230.558C-21.3532 -224.699 -15.8367 -218.421 -10.861 -211.935C14.5582 -177.932 25.5911 -135.977 54.4716 -97.5796C74.3743 -71.0049 101.416 -49.766 128.566 -34.0722C143.601 -25.3884 158.636 -18.2739 172.914 -13.0426C212.611 1.39561 247.225 4.42975 282.811 7.67312C315.37 10.7072 350.632 13.3229 392.709 22.8437C396.927 23.7854 401.146 24.8316 405.472 25.8779C453.066 37.8051 507.582 60.9273 539.599 96.1859C564.586 123.807 573.996 152.683 581.46 179.781C582.217 182.501 582.974 185.117 583.731 187.733C593.574 223.201 603.634 260.238 611.53 301.251C617.263 331.383 623.212 368.943 648.739 399.598C679.459 436.531 709.637 460.804 751.606 473.777C792.709 486.542 843.98 482.984 888.869 473.254C918.723 466.768 946.522 458.293 974.213 451.597C988.058 448.144 1001.9 445.215 1015.86 443.122C1071.67 434.543 1129.11 439.984 1177.35 459.548C1237.49 484.031 1279.46 531.321 1292.98 570.974" stroke="#75828E" stroke-opacity="0.8" stroke-miterlimit="10"/>
<path d="M-275.329 -240.707C-234.009 -269.688 -180.791 -280.464 -132.44 -271.257C-92.8514 -263.829 -57.1564 -243.218 -31.8454 -215.283C-26.1126 -208.901 -20.8124 -202.205 -16.1613 -195.09C7.74355 -158.471 15.856 -114.215 44.5202 -74.5621C64.3147 -47.0458 92.4381 -26.0161 120.994 -11.264C136.895 -3.10326 152.903 3.17423 168.155 7.35923C210.664 18.9726 247.982 17.6125 286.165 16.7755C320.994 16.0431 358.312 14.9969 402.011 22.4253C406.338 23.1576 410.773 23.9946 415.207 24.8316C464.531 34.8756 520.454 58.7301 551.173 96.6043C575.186 126.318 581.676 157.915 586.219 187.419C586.652 190.348 587.084 193.278 587.625 196.103C593.466 234.814 599.523 274.781 603.742 318.2C606.771 350.006 610.34 389.554 636.625 420.523C667.128 456.41 700.01 476.602 741.979 486.856C782.758 496.9 832.514 493.342 876.646 485.077C905.96 479.532 933.65 472.627 961.016 467.605C974.754 465.094 988.491 463.001 1002.23 461.85C1057.28 457.038 1113.1 466.14 1158.31 489.471C1214.67 518.557 1250.47 570.242 1255.34 610.836" stroke="#75828E" stroke-opacity="0.8" stroke-miterlimit="10"/>
<path d="M-282.9 -234.22C-240.607 -263.306 -185.766 -273.245 -136.659 -262.155C-96.5287 -253.157 -60.7255 -230.349 -36.2799 -200.217C-30.6552 -193.312 -25.6796 -186.092 -21.3529 -178.559C0.929446 -139.325 6.22958 -92.6623 34.6774 -51.8586C54.3638 -23.5052 83.4606 -2.47555 113.639 11.3349C130.297 18.9726 147.387 24.5177 163.504 27.6565C208.718 36.445 248.847 30.7952 289.518 25.8778C326.511 21.3789 365.992 16.6708 411.314 22.0067C415.857 22.5298 420.4 23.1576 425.051 23.8899C475.997 32.0507 533.434 56.533 562.855 97.2321C585.787 129.143 589.464 163.355 591.087 195.37C591.195 198.509 591.411 201.648 591.519 204.787C593.466 246.637 595.413 289.533 595.846 335.463C596.171 369.048 597.36 410.479 624.402 441.762C654.689 476.707 690.276 492.61 732.244 500.352C772.807 507.781 820.833 504.119 864.208 497.318C893.088 492.819 920.454 487.483 947.604 484.135C961.233 482.461 974.754 481.415 988.275 481.101C1042.57 480.055 1096.66 492.924 1138.84 519.917C1191.52 553.502 1220.94 609.79 1217.37 651.221" stroke="#75828E" stroke-opacity="0.8" stroke-miterlimit="10"/>
<path d="M-290.472 -227.838C-247.097 -257.028 -190.742 -266.131 -140.877 -253.052C-100.098 -242.485 -64.2952 -217.48 -40.823 -185.151C-35.4147 -177.722 -30.7635 -169.98 -26.7614 -161.924C-5.99336 -120.074 -3.61371 -71.005 24.6178 -28.9457C44.196 0.349275 74.3744 21.2742 106.067 34.0385C123.59 41.153 141.654 45.8611 158.744 47.9536C206.77 53.9172 249.713 43.9779 292.763 34.8755C332.027 26.6101 373.672 18.2401 420.508 21.4835C425.159 21.7974 429.918 22.2159 434.678 22.739C487.355 28.9119 546.197 54.1265 574.321 97.5459C596.279 131.549 597.144 168.482 595.738 202.903C595.63 206.356 595.413 209.704 595.305 213.052C593.25 258.145 591.195 303.971 587.95 352.203C585.57 387.462 584.38 430.986 612.179 462.478C642.358 496.481 680.54 508.199 722.401 513.221C762.639 518.034 809.151 514.267 851.768 508.931C880.108 505.374 907.258 501.608 934.191 500.038C947.712 499.201 961.125 499.097 974.429 499.829C1027.97 502.549 1080.43 519.185 1119.59 549.735C1168.48 587.923 1191.74 648.606 1179.62 690.979" stroke="#75828E" stroke-opacity="0.8" stroke-miterlimit="10"/>
<path d="M-298.043 -221.351C-253.587 -250.646 -195.718 -258.807 -145.096 -243.845C-103.776 -231.709 -67.973 -204.506 -45.258 -169.98C-40.066 -162.133 -35.6311 -153.868 -31.9534 -145.289C-12.8079 -100.928 -13.2406 -49.4521 14.7745 -6.13738C34.2445 23.9946 65.5047 44.815 98.6037 56.7422C116.992 63.3336 135.921 67.2047 154.093 68.3556C204.932 71.3897 250.578 57.2653 296.116 43.978C337.544 31.9461 381.351 19.9142 429.81 20.9605C434.678 21.0651 439.545 21.2744 444.413 21.6929C498.712 25.8779 558.961 51.9295 585.895 98.0691C606.879 134.165 604.932 173.818 600.389 210.75C599.956 214.412 599.524 217.969 599.091 221.631C592.925 269.863 586.976 318.723 580.054 369.362C574.97 406.294 571.292 451.911 599.956 483.612C629.918 516.674 670.805 524.207 712.666 526.508C752.688 528.706 797.469 524.834 839.437 520.963C867.236 518.348 894.278 516.151 920.887 516.36C934.191 516.464 947.496 517.197 960.692 518.871C1013.48 525.358 1064.21 545.759 1100.44 579.972C1145.66 622.763 1162.53 687.945 1141.87 731.155" stroke="#75828E" stroke-opacity="0.8" stroke-miterlimit="10"/>
<path d="M-305.615 -214.864C-260.077 -244.264 -200.694 -251.588 -149.314 -234.743C-107.346 -221.037 -71.5426 -191.638 -49.6929 -154.81C-44.7172 -146.44 -40.4988 -137.651 -37.1456 -128.653C-19.5144 -81.6768 -22.8676 -27.7949 4.93122 16.6707C24.293 47.7444 56.5267 68.4601 91.2482 79.4457C110.394 85.514 130.405 88.5481 149.55 88.6527C203.093 88.862 251.659 70.5526 299.577 53.0802C343.277 37.2819 389.139 21.5881 439.22 20.5419C444.196 20.4372 449.28 20.4372 454.364 20.6465C510.394 22.9482 572.049 49.6276 597.685 98.4875C617.695 136.78 612.828 178.944 605.364 218.492C604.607 222.363 603.85 226.235 603.201 230.106C593.033 281.581 583.19 333.371 572.482 386.415C564.802 425.127 558.636 472.626 588.058 504.642C617.804 536.866 661.503 540.11 703.255 539.691C742.952 539.273 786.219 535.297 827.322 532.89C854.689 531.216 881.406 530.589 907.798 532.577C920.995 533.518 934.191 535.297 947.171 537.808C999.199 548.166 1048.31 572.23 1081.51 610.104C1122.94 657.394 1133.65 727.075 1104.45 771.226" stroke="#75828E" stroke-opacity="0.8" stroke-miterlimit="10"/>
<path d="M-313.079 -208.378C-266.567 -237.882 -205.669 -244.264 -153.425 -225.536C-110.915 -210.261 -75.0038 -178.664 -54.1276 -139.639C-49.3683 -130.746 -45.3661 -121.434 -42.3375 -111.913C-26.3288 -62.3211 -32.4943 -6.13747 -4.91178 39.6883C14.4501 71.5989 47.6572 92.3146 83.893 102.254C103.904 107.799 124.888 110.101 144.899 109.159C201.146 106.544 252.525 83.9446 303.039 62.2873C349.01 42.7224 397.035 23.2622 448.739 20.228C453.931 19.9142 459.123 19.8095 464.315 19.8095C521.968 20.1234 585.137 47.6398 609.475 99.1153C628.512 139.501 620.724 184.385 610.34 226.339C609.367 230.42 608.285 234.605 607.203 238.685C593.142 293.299 579.188 348.123 564.802 403.574C554.418 443.959 545.765 493.552 576.051 525.671C605.581 556.954 651.984 556.117 693.737 552.874C733.217 549.84 774.862 545.759 815.208 544.818C842.033 544.19 868.642 545.027 894.71 548.793C907.798 550.677 920.778 553.292 933.65 556.85C984.921 570.974 1032.3 598.804 1062.58 640.34C1100.34 692.234 1104.77 766.414 1067.02 811.402" stroke="#75828E" stroke-opacity="0.8" stroke-miterlimit="10"/>
<path d="M-320.65 -201.891C-273.057 -231.5 -210.644 -237.045 -157.643 -216.434C-104.641 -195.823 -62.5642 -149.369 -47.5291 -95.3827C-33.0347 -43.1748 -42.2289 15.4152 -14.6464 62.3919C15.2076 113.344 81.4056 134.792 140.356 129.352C199.307 123.911 253.499 96.9181 306.5 71.285C359.502 45.5472 414.883 20.228 474.159 18.6586C533.434 17.0892 598.118 45.2334 621.157 99.5337C640.952 146.301 626.133 199.032 611.206 247.055C593.142 304.913 575.186 362.666 557.123 420.523C544.034 462.687 532.893 514.267 564.045 546.596C593.358 576.938 642.466 571.916 684.218 565.952C749.551 556.64 816.723 551.2 881.623 564.906C946.523 578.612 1009.58 613.975 1043.55 670.368C1077.51 726.761 1075.67 805.439 1029.38 851.369" stroke="#75828E" stroke-opacity="0.8" stroke-miterlimit="10"/>
<path d="M-282.467 -220.305C-235.523 -241.439 -178.735 -238.719 -133.846 -214.55C-88.849 -190.382 -56.7235 -144.87 -46.5558 -89.6281C-36.929 -37.3156 -46.7722 22.216 -20.4877 70.8666C8.06834 123.284 73.2928 148.185 133.217 144C190.978 140.024 243.872 113.658 296.224 90.013C351.173 65.1122 408.934 41.6763 470.048 39.8977C528.783 38.2237 592.926 64.6937 616.722 117.739C637.274 163.46 623.645 216.086 609.151 263.691C591.736 320.607 573.672 377.209 556.149 434.125C543.277 476.289 533.001 527.764 564.153 560.093C593.574 590.644 642.79 586.354 684.759 580.6C748.902 571.707 814.775 565.848 878.486 579.24C942.412 592.632 1004.18 627.681 1037.6 683.237C1071.02 738.793 1069.51 815.901 1024.94 861.727" stroke="#75828E" stroke-opacity="0.8" stroke-miterlimit="10"/>
<path d="M-244.393 -238.719C-197.989 -251.483 -147.043 -240.393 -110.158 -212.667C-73.1647 -184.942 -50.8824 -140.476 -45.5822 -83.9785C-40.6066 -31.5614 -51.4232 28.9119 -26.2204 79.2365C0.821261 133.118 65.3968 161.367 126.078 158.542C182.433 155.927 234.245 130.398 285.949 108.741C342.952 84.677 402.985 63.1242 466.046 61.241C524.24 59.567 587.842 84.2585 612.396 136.153C633.704 180.932 621.265 233.244 607.204 280.64C590.438 336.614 572.266 392.17 555.284 448.04C542.628 490.204 533.326 541.574 564.37 573.903C593.899 604.663 643.331 601.106 685.516 595.456C748.469 586.877 812.937 580.809 875.457 593.782C938.302 606.86 998.983 641.701 1031.76 696.419C1064.53 751.138 1063.34 826.677 1020.51 872.399" stroke="#75828E" stroke-opacity="0.8" stroke-miterlimit="10"/>
<path d="M-206.21 -257.133C-160.455 -261.423 -115.35 -242.172 -86.3613 -210.889C-57.4808 -179.71 -44.9335 -136.187 -44.609 -78.3289C-44.2845 -26.0164 -56.0746 35.6078 -31.9534 87.5018C-6.31795 142.848 57.3922 174.445 118.939 172.98C173.996 171.725 224.726 147.138 275.673 127.259C334.732 104.137 397.036 84.363 461.936 82.2705C519.48 80.5965 582.65 103.509 608.069 154.148C630.135 197.986 618.994 250.089 605.256 297.066C589.031 352.098 570.859 406.503 554.526 461.432C542.195 503.7 533.65 554.862 564.694 587.191C594.332 618.16 643.872 615.335 686.381 609.894C748.145 601.838 811.314 595.247 872.536 607.907C934.408 620.671 993.899 655.197 1025.92 709.079C1058.04 762.961 1057.18 836.826 1016.07 882.547" stroke="#75828E" stroke-opacity="0.8" stroke-miterlimit="10"/>
<path d="M-168.027 -275.547C-122.921 -271.362 -83.5487 -244.055 -62.5644 -209.005C-41.7963 -174.479 -38.8759 -132.001 -43.6352 -72.679C-47.8537 -20.4711 -60.7255 42.3039 -37.7942 95.8719C-13.4567 152.579 49.3882 190.348 111.692 187.523C165.235 185.012 215.208 164.087 265.289 145.883C326.511 123.702 390.978 105.707 457.717 103.51C514.721 101.731 577.35 122.97 603.526 172.353C626.349 215.144 616.398 267.038 603.093 313.701C587.517 367.792 569.021 421.046 553.445 475.137C541.222 517.406 533.759 568.358 564.586 600.792C594.332 631.97 644.088 629.878 686.706 624.542C747.171 616.904 809.043 609.999 869.075 622.345C929.865 634.795 988.167 669.112 1019.64 722.157C1051.12 775.202 1050.58 847.498 1011.31 893.114" stroke="#75828E" stroke-opacity="0.8" stroke-miterlimit="10"/>
<path d="M-129.844 -293.961C-85.3877 -281.301 -51.8561 -246.042 -38.7679 -207.227C-26.1124 -169.457 -32.6024 -127.921 -42.5537 -67.0291C-51.0989 -14.9258 -65.1606 49.0001 -43.4191 104.242C-20.4877 162.414 41.4918 203.95 104.661 202.066C156.906 200.497 205.797 181.037 255.013 164.611C318.398 143.476 385.029 127.155 453.715 124.853C510.178 123.075 572.266 142.535 599.199 190.767C622.671 232.617 614.018 284.302 601.146 330.651C586.111 383.8 567.614 436.008 552.579 489.053C540.573 531.321 533.975 582.169 564.802 614.498C594.656 645.886 644.521 644.526 687.463 639.294C746.738 632.075 807.312 624.751 866.046 636.783C925.862 648.92 982.975 683.028 1013.8 735.131C1044.63 787.234 1044.52 857.961 1006.88 903.472" stroke="#75828E" stroke-opacity="0.8" stroke-miterlimit="10"/>
<path d="M-91.7695 -312.375C-47.8539 -291.345 -20.055 -248.03 -15.0794 -205.343C-10.32 -164.33 -26.3287 -123.736 -41.6883 -61.3794C-54.452 -9.48538 -69.9199 55.696 -49.26 112.612C-27.7349 172.248 33.3793 213.68 97.5221 216.609C148.36 218.911 196.495 198.091 244.737 183.234C310.394 163.146 379.188 148.498 449.605 145.987C505.419 144.209 566.965 161.89 594.764 208.867C618.994 249.671 611.638 301.146 599.091 347.181C584.813 399.389 566.1 450.446 551.606 502.549C539.816 544.818 534.191 595.561 564.91 627.89C594.872 659.487 644.845 658.859 688.112 653.837C746.198 647.036 805.365 639.399 862.909 651.012C921.644 662.835 977.674 696.629 1007.85 747.895C1038.03 799.161 1038.25 868.318 1002.34 913.726" stroke="#75828E" stroke-opacity="0.8" stroke-miterlimit="10"/>
<path d="M-53.587 -330.789C-10.3204 -301.285 11.962 -250.018 8.71696 -203.565C5.58012 -159.413 -19.839 -119.551 -40.607 -55.8343C-57.481 -4.04496 -74.355 62.2873 -54.9932 120.877C-34.766 181.874 25.3746 226.549 90.3828 231.047C139.815 234.395 187.084 215.04 234.461 201.857C302.389 182.92 373.239 169.737 445.494 167.226C500.767 165.343 561.773 181.246 590.437 227.072C615.424 266.934 609.258 318.2 597.144 363.817C583.515 415.083 564.694 464.989 550.74 516.255C539.275 558.524 534.407 609.058 565.126 641.491C595.305 673.297 645.278 673.402 688.761 668.485C745.548 662.102 803.526 654.151 859.88 665.346C917.641 676.855 972.374 710.439 1002.01 760.868C1031.65 811.298 1032.08 878.781 998.009 924.188" stroke="#75828E" stroke-opacity="0.8" stroke-miterlimit="10"/>
<path d="M-15.404 -349.203C27.2137 -311.224 43.9795 -252.006 32.5138 -201.682C21.589 -154.286 -13.2407 -115.366 -39.6333 -50.08C-60.5095 1.60477 -79.006 68.9833 -60.7258 129.352C-41.9048 191.708 17.3705 239.417 83.244 245.59C131.27 249.985 177.782 232.303 224.185 220.48C294.385 202.694 367.29 191.081 441.384 188.36C496.008 186.477 556.581 200.602 586.003 245.276C611.746 284.092 606.879 335.149 595.089 380.557C582 430.881 563.179 479.741 549.767 529.961C538.517 572.334 534.623 622.659 565.235 655.093C595.521 687.108 645.711 687.945 689.41 683.237C745.008 677.169 801.579 668.903 856.744 679.889C913.423 691.084 967.074 724.459 996.062 773.947C1025.05 823.539 1025.81 889.453 993.466 934.755" stroke="#75828E" stroke-opacity="0.8" stroke-miterlimit="10"/>
<path d="M22.7793 -367.617C64.8562 -321.268 76.1055 -253.994 56.311 -199.903C37.7063 -149.16 -6.53382 -111.076 -38.6593 -44.5349C-63.5377 7.14982 -83.5485 75.5746 -66.4582 137.513C-48.9352 201.334 9.36668 252.182 76.1055 260.028C122.725 265.469 168.372 249.357 213.91 239.103C286.49 222.677 361.341 212.424 437.382 209.599C491.466 207.716 551.498 220.062 581.677 263.481C608.177 301.355 604.5 352.203 593.142 397.192C580.703 446.575 561.774 494.284 549.01 543.562C537.977 585.935 534.949 636.155 565.56 668.589C595.955 700.814 646.252 702.383 690.276 697.779C744.684 692.13 799.957 683.55 853.824 694.117C909.53 704.998 961.882 738.06 990.33 786.815C1018.78 835.571 1019.86 899.81 989.14 945.113" stroke="#75828E" stroke-opacity="0.8" stroke-miterlimit="10"/>
<path d="M60.9616 -386.031C102.389 -331.207 108.23 -255.773 80.1071 -198.02C53.7145 -143.929 0.280144 -106.682 -37.5782 -38.7804C-66.3505 12.9044 -87.9839 82.3754 -72.1915 145.987C-55.9665 211.273 1.3618 265.155 68.966 274.676C114.288 281.058 159.069 266.829 203.633 257.831C278.485 242.765 355.391 233.872 433.271 230.838C486.814 228.85 546.305 239.522 577.349 281.791C604.607 318.619 602.119 369.257 591.195 413.932C579.404 462.373 560.367 508.931 548.144 557.373C537.436 599.746 535.272 649.861 565.775 682.191C596.278 714.624 646.684 716.926 690.924 712.532C744.034 707.196 798.009 698.303 850.686 708.556C905.311 719.123 956.582 751.975 984.381 799.789C1012.18 847.602 1013.59 910.378 984.705 955.471" stroke="#75828E" stroke-opacity="0.8" stroke-miterlimit="10"/>
<path d="M99.0369 -404.445C139.816 -341.147 140.248 -257.656 103.796 -196.241C69.7238 -138.802 6.98708 -102.288 -36.7123 -33.2353C-69.3786 18.4494 -92.6344 88.9667 -78.0319 154.253C-63.1049 220.899 -6.64192 277.71 61.8276 289.01C105.743 296.333 149.767 283.988 193.358 276.35C270.589 262.853 349.443 255.111 429.162 251.972C482.055 249.985 541.114 258.878 572.915 299.891C600.93 335.777 599.632 386.206 589.14 430.567C577.891 478.067 558.853 523.579 547.171 570.974C536.679 613.452 535.381 663.253 565.884 695.687C596.495 728.33 647.117 731.26 691.574 727.075C743.494 722.157 796.171 712.95 847.55 722.89C901.201 733.247 951.282 765.786 978.432 812.762C1005.58 859.739 1007.31 920.84 980.163 965.933" stroke="#75828E" stroke-opacity="0.8" stroke-miterlimit="10"/>
<path d="M137.22 -422.859C177.349 -351.086 172.374 -259.435 127.485 -194.358C85.624 -133.571 13.8014 -97.789 -35.8472 -27.481C-72.4075 24.413 -97.2858 95.6626 -83.8732 162.727C-70.2442 230.838 -14.7546 290.474 54.5802 303.657C97.0897 311.818 140.356 301.46 182.974 295.078C262.585 283.255 343.493 276.559 424.943 273.211C477.296 271.223 535.814 278.338 568.372 318.095C597.144 353.04 597.036 403.156 586.977 447.203C576.376 493.761 557.231 538.122 546.089 584.575C535.922 627.053 535.489 676.75 565.884 709.184C596.603 742.036 647.333 745.698 692.114 741.617C742.845 737.014 794.116 727.493 844.305 737.119C896.982 747.163 945.765 779.387 972.266 825.527C998.767 871.666 1000.82 931.198 975.403 976.187" stroke="#75828E" stroke-opacity="0.8" stroke-miterlimit="10"/>
<path d="M175.402 -441.273C214.991 -361.13 204.391 -261.213 151.281 -192.474C101.632 -128.235 20.7236 -93.1853 -34.7659 -21.8311C-75.2202 30.1675 -101.721 102.359 -89.6064 171.097C-77.2754 240.568 -22.6512 303.03 47.4408 318.2C88.6523 327.198 131.054 318.933 172.698 313.806C254.688 303.762 337.544 298.007 420.94 294.555C472.644 292.462 530.621 297.903 564.153 336.51C593.682 370.408 594.764 420.314 585.137 464.047C574.97 509.664 555.932 552.979 545.332 598.386C535.381 640.864 535.813 690.456 566.1 722.89C596.927 755.951 647.766 760.345 692.763 756.474C742.195 752.185 792.277 742.454 841.276 751.661C892.872 761.392 940.573 793.407 966.425 838.605C992.277 883.803 994.765 941.765 971.076 986.754" stroke="#75828E" stroke-opacity="0.8" stroke-miterlimit="10"/>
<path d="M213.585 -459.687C252.525 -371.069 236.516 -263.096 175.078 -190.696C117.749 -123.004 27.6465 -88.6865 -33.7922 -16.286C-78.0324 35.9219 -106.156 108.95 -95.339 179.258C-84.1979 250.089 -30.5472 315.271 40.302 332.534C80.2155 342.264 121.751 336.196 162.314 332.22C246.576 324.059 331.487 319.142 416.722 315.48C467.885 313.387 525.321 317.049 559.61 354.4C589.897 387.357 592.168 437.054 582.974 480.473C573.455 525.148 554.526 567.312 544.25 611.882C534.732 654.465 535.922 703.848 566.1 736.282C597.144 769.552 647.982 774.47 693.304 770.912C741.546 766.937 790.221 756.997 838.031 765.786C888.653 775.202 935.165 807.008 960.368 851.369C985.679 895.73 988.383 952.123 966.425 997.007" stroke="#75828E" stroke-opacity="0.8" stroke-miterlimit="10"/>
<path d="M251.768 -478.101C290.059 -381.009 268.642 -264.77 198.874 -188.813C133.758 -117.668 34.5692 -83.8738 -32.7105 -10.5317C-80.8447 41.9901 -110.699 115.751 -100.964 187.733C-91.2287 260.029 -38.227 327.721 33.2712 347.181C71.8867 357.644 112.449 353.773 152.146 351.052C238.788 344.984 325.646 340.59 412.72 336.928C463.342 334.835 520.237 336.719 555.283 372.814C586.327 404.725 589.789 454.213 581.027 497.318C572.049 541.051 553.012 582.169 543.493 625.693C534.191 668.275 536.246 717.449 566.425 749.987C597.577 783.467 648.631 789.117 694.169 785.769C741.222 782.107 788.599 771.854 835.111 780.433C884.651 789.536 929.973 821.028 954.635 864.552C979.297 908.076 982.325 962.795 962.098 1007.57" stroke="#75828E" stroke-opacity="0.8" stroke-miterlimit="10"/>
<path d="M289.842 -496.515C327.484 -391.053 300.551 -266.549 222.563 -187.034C149.658 -112.541 41.3834 -79.2704 -31.8454 -4.98666C-83.8736 47.7443 -115.35 122.237 -106.913 195.998C-98.4761 269.759 -46.2316 339.857 26.0238 361.619C63.3413 372.814 103.038 371.245 141.762 369.571C230.675 365.7 319.588 361.829 408.501 358.062C458.474 355.865 514.937 356.074 550.74 391.019C582.433 421.988 587.193 471.266 578.864 513.953C570.535 556.745 551.389 596.712 542.411 639.294C533.434 681.877 536.246 730.946 566.425 763.379C597.685 797.069 648.848 803.451 694.602 800.207C740.357 796.964 786.435 786.397 831.757 794.558C880.324 803.346 924.456 834.629 948.469 877.316C972.482 920.003 975.835 973.152 957.447 1017.83" stroke="#75828E" stroke-opacity="0.8" stroke-miterlimit="10"/>
</g>
</svg>
