<svg width="1142" height="674" viewBox="0 0 1142 674" fill="none" xmlns="http://www.w3.org/2000/svg">
<path d="M-47.0996 -232.1C4.70039 -280.8 79.4004 -303 149.6 -290.8C219.8 -278.6 283.7 -231.9 318.1 -168.1C361.8 -86.9001 359.9 18.4999 422.7 85.5999C476 142.4 559.1 153.7 635 164.9C710.9 176.1 794.9 196.1 838 261.2C867.1 305.2 873.3 364.6 912.5 399.5C952.4 434.9 1013.7 431.7 1061.3 409.7C1108.9 387.7 1147.5 350.5 1190.5 320.3C1320.7 229 1495.4 206.2 1646 260.8" stroke="#75828E" stroke-miterlimit="10"/>
<path d="M-54.0996 -225.9C-24.6996 -252.7 11.9004 -270.6 50.2004 -278.2C81.8004 -284.5 114.5 -283.9 145.4 -276.3C152.5 -274.5 159.4 -272.4 166.2 -270C201.3 -257.3 232.9 -235.5 260.8 -208.2C279.9 -189.5 297.3 -168.7 311.1 -146.4C318.8 -134 325.5 -121.3 331.5 -108.4C347.9 -73.2 359.1 -36.7 373.8 -2.49997C387.4 29.6 404.2 59.8 431.3 85.1C434 87.6 436.7 90 439.6 92.4C471.2 118.8 510.8 135.2 550.1 148.1C580.5 158.1 610.6 165.3 639.4 172.3C642.3 173 645.2 173.7 648.1 174.4C686.3 184 726.2 196.5 760.2 217.5C785.8 233.2 808.3 254.1 826.7 281.2C855.8 324.2 864.3 379.7 903.5 412C943.1 444.9 1002.9 441.6 1049.8 421C1081 407.3 1108.5 387.4 1135.9 367.6C1149.7 357.6 1163.5 347.6 1177.7 338.4C1235 301.3 1300.3 277.8 1367.1 268.6C1450.3 257.2 1535.4 268 1611 299.1" stroke="#75828E" stroke-miterlimit="10"/>
<path d="M-61 -219.7C-30.7 -246.6 7.4 -263.6 46.4 -269.4C78.6 -274.2 111.3 -271.5 141.3 -261.7C148.2 -259.5 154.9 -256.9 161.4 -253.9C195.1 -238.7 223.9 -214.6 251.8 -186.1C270.8 -166.6 289.1 -145.8 304.4 -124.5C312.9 -112.6 320.5 -100.6 327.4 -88.7C346.3 -56.1 360.3 -23.9 377.1 6.39999C392.9 34.9 411.6 61.6 440.1 84.9C442.9 87.2 445.8 89.4 448.8 91.6C481.9 115.9 522.8 133.1 560.9 148.5C590.4 160.5 617.9 170.3 643.9 179.7C646.5 180.6 649.1 181.6 651.8 182.5C686.3 195.2 722.4 210.6 753.1 233.7C776.2 251.1 796.6 273.8 815.6 301.2C844.7 343.2 855.6 394.6 894.7 424.5C934.2 454.7 992.4 451.5 1038.6 432.3C1069.3 419.6 1096.6 401.2 1123.8 383C1137.5 373.8 1151.2 364.7 1165.2 356.4C1221.8 322.9 1285.6 303 1349.6 297.3C1429.3 290.2 1508.7 305.3 1576.4 337.3" stroke="#75828E" stroke-miterlimit="10"/>
<path d="M-68 -213.5C-36.7 -240.5 2.80001 -256.7 42.5 -260.7C75.2 -264 108 -259.2 137.2 -247.3C143.9 -244.6 150.3 -241.5 156.6 -238.1C188.8 -220.4 215 -194.1 242.7 -164.4C261.6 -144 280.9 -123.4 297.6 -102.9C306.9 -91.4998 315.3 -80.2998 323.1 -69.3998C344.5 -39.4998 361.1 -11.4998 380.2 15.0002C398.1 39.8002 418.7 63.1002 448.7 84.3002C451.7 86.4002 454.7 88.5002 457.8 90.5002C492.5 113.1 534.8 131 571.7 149C600.3 163.1 625.1 175.5 648.4 187.2C650.7 188.4 653.1 189.5 655.4 190.7C686.3 206.3 718.5 224.7 745.9 250.1C766.4 269.1 784.8 293.7 804.4 321.4C833.4 362.4 846.8 409.8 885.8 437.2C925.1 464.8 981.7 461.6 1027.3 443.8C1057.6 432 1084.6 415.1 1111.6 398.5C1125.2 390.2 1138.7 382 1152.6 374.6C1208.5 344.7 1270.7 328.4 1332 326.2C1408.3 323.5 1481.8 342.9 1541.6 375.7" stroke="#75828E" stroke-miterlimit="10"/>
<path d="M-75 -207.3C-42.7 -234.4 -1.8 -249.7 38.6 -251.9C71.9 -253.7 104.7 -246.8 133.1 -232.8C139.6 -229.6 145.8 -226 151.8 -222.2C182.6 -202.1 206.1 -173.4 233.6 -142.6C252.4 -121.4 272.7 -100.8 290.7 -81.3C300.7 -70.4 310.1 -59.9 318.8 -50C342.8 -22.8 362 0.999945 383.3 23.5999C403.2 44.6999 425.8 64.6 457.3 83.8C460.4 85.7 463.6 87.5999 466.9 89.3999C503.2 110.2 546.8 128.7 582.5 149.4C610.2 165.5 632.3 180.5 652.9 194.5C655 195.9 657 197.3 659.1 198.7C686.4 217.3 714.8 238.6 738.8 266.3C756.8 287 773 313.4 793.3 341.4C822.2 381.4 838 424.8 877 449.8C916.1 474.8 971.2 471.6 1016 455.2C1045.8 444.3 1072.7 428.9 1099.4 414C1112.8 406.5 1126.3 399.2 1140 392.7C1195.2 366.4 1255.9 353.7 1314.4 355C1387.2 356.6 1455 380.3 1506.9 414" stroke="#75828E" stroke-miterlimit="10"/>
<path d="M-82 -201.1C-48.7 -228.3 -6.5 -242.8 34.7 -243.2C68.5 -243.6 101.3 -234.5 128.9 -218.4C135.2 -214.7 141.2 -210.7 146.9 -206.3C176.2 -183.7 197.1 -152.8 224.4 -120.8C243.1 -98.7 264.3 -78.2 283.8 -59.6C294.6 -49.2 304.9 -39.5 314.5 -30.6C341 -6.00001 362.8 13.5 386.4 32.3C408.4 49.8 433 66.2 465.9 83.4C469.2 85.1 472.5 86.8 475.9 88.5C513.8 107.3 558.7 126.7 593.2 149.9C620 168.1 639.4 185.6 657.2 202C659 203.6 660.8 205.2 662.6 206.9C686.3 228.6 710.8 252.7 731.5 282.7C746.9 305 761.1 333.3 782 361.6C810.9 400.6 829 440 867.9 462.5C906.8 484.9 960.3 481.7 1004.5 466.7C1033.9 456.8 1060.5 442.8 1087 429.6C1100.3 423 1113.6 416.5 1127.1 410.9C1181.6 388.3 1240.8 379.1 1296.5 383.8C1365.9 389.8 1427.8 417.8 1471.9 452.3" stroke="#75828E" stroke-miterlimit="10"/>
<path d="M-89 -195C-54.8 -222.3 -11.1 -236 30.8 -234.5C65.2 -233.4 98 -222.2 124.8 -203.9C130.9 -199.7 136.7 -195.2 142.1 -190.4C170 -165.3 188.2 -132.1 215.3 -98.8999C234 -75.9999 256.1 -55.5999 277 -37.7999C288.6 -27.9999 299.8 -18.8999 310.3 -10.9999C339.3 10.9001 363.7 26.2001 389.7 41.1001C413.7 54.9001 440.3 67.9001 474.8 83.0001C478.2 84.5001 481.7 86.0001 485.3 87.5001C524.7 104.5 571 124.5 604.3 150.4C630.1 170.6 646.9 190.6 662 209.4C663.5 211.3 665 213.1 666.6 215C686.7 239.7 707.3 266.7 724.7 299C737.6 322.9 749.6 353.1 771.2 381.7C800 419.8 820.6 455.1 859.4 475.1C898.1 495 950.1 491.7 993.6 478.1C1022.5 469.1 1048.9 456.6 1075.2 445.1C1088.4 439.3 1101.6 433.8 1114.9 429.1C1168.7 410.1 1226.3 404.5 1279.2 412.7C1345.1 423.1 1401.3 455.3 1437.5 490.7" stroke="#75828E" stroke-miterlimit="10"/>
<path d="M-96 -188.8C-60.8 -216.2 -15.7 -229 26.9 -225.7C61.8 -223.1 94.7 -209.8 120.6 -189.4C126.5 -184.8 132.1 -179.7 137.2 -174.4C163.6 -146.8 179.2 -111.3 206.1 -77.0001C224.7 -53.2001 247.8 -32.9001 270 -16.1001C282.3 -6.80007 294.4 1.49993 305.8 8.39993C337.4 27.5999 364.3 38.7 392.6 49.7C418.7 59.8 447.2 69.2999 483.2 82.4999C486.8 83.7999 490.4 85.0999 494.1 86.4999C535.1 101.6 582.7 122.3 614.8 150.8C639.7 173.1 653.8 195.6 666.2 216.8C667.4 218.9 668.7 221 669.9 223.1C686.3 250.9 703.2 280.7 717.2 315.2C727.5 340.8 737.4 372.8 759.6 401.6C788.2 438.7 811.3 470 850.1 487.5C888.5 504.8 939 501.5 981.8 489.3C1010.3 481.2 1036.5 470.2 1062.5 460.4C1075.6 455.4 1088.6 450.8 1101.8 447C1154.9 431.6 1211 429.6 1261.1 441.3C1323.6 456 1374 492.6 1402.2 528.8" stroke="#75828E" stroke-miterlimit="10"/>
<path d="M-102.9 -182.6C-66.6999 -210.1 -20.1999 -222.1 23.1001 -217C58.6001 -212.9 91.5001 -197.4 116.6 -175C122.3 -169.9 127.6 -164.4 132.5 -158.6C157.5 -128.5 170.4 -90.7998 197.1 -55.2998C215.6 -30.6998 239.6 -10.3998 263.3 5.50015C276.4 14.3002 289.4 21.8002 301.7 27.8002C335.9 44.3002 365.3 51.3001 395.9 58.4001C424 64.9001 454.5 70.9002 492 82.1002C495.7 83.2002 499.5 84.3002 503.3 85.5002C545.8 98.7002 594.8 120.2 625.6 151.3C649.6 175.6 661 200.7 670.7 224.2C671.7 226.5 672.6 228.8 673.6 231.1C686.4 262 699.5 294.5 710.1 331.4C717.9 358.6 725.6 392.5 748.5 421.6C777 457.8 802.5 485.1 841.3 500C879.5 514.7 928.5 511.4 970.6 500.7C998.6 493.6 1024.6 484 1050.4 475.9C1063.4 471.8 1076.3 468.1 1089.3 465.1C1141.6 453.3 1196.2 454.9 1243.6 470.1C1302.6 489.2 1347.2 530 1367.6 567.1" stroke="#75828E" stroke-miterlimit="10"/>
<path d="M-109.9 -176.4C-72.6999 -204 -24.7999 -215.2 19.1001 -208.2C55.1001 -202.6 88.1001 -185 112.4 -160.5C117.9 -154.9 123 -148.9 127.6 -142.7C151.1 -110.2 161.3 -70.1 188 -33.4C206.4 -7.99996 231.4 12.3 256.5 27.3C270.4 35.6 284.3 42.4 297.5 47.4C334.2 61.2 366.2 64.1 399.1 67.2C429.2 70.1 461.8 72.6 500.7 81.7C504.6 82.6 508.5 83.6 512.5 84.6C556.5 96 606.9 118.1 636.5 151.8C659.6 178.2 668.3 205.8 675.2 231.7C675.9 234.3 676.6 236.8 677.3 239.3C686.4 273.2 695.7 308.6 703 347.8C708.3 376.6 713.8 412.5 737.4 441.8C765.8 477.1 793.7 500.3 832.5 512.7C870.5 524.9 917.9 521.5 959.4 512.2C987 506 1012.7 497.9 1038.3 491.5C1051.1 488.2 1063.9 485.4 1076.8 483.4C1128.4 475.2 1181.5 480.4 1226.1 499.1C1281.7 522.5 1320.5 567.7 1333 605.6" stroke="#75828E" stroke-miterlimit="10"/>
<path d="M-116.9 -170.2C-78.6999 -197.9 -29.4999 -208.2 15.2001 -199.4C51.8001 -192.3 84.8001 -172.6 108.2 -145.9C113.5 -139.8 118.4 -133.4 122.7 -126.6C144.8 -91.6 152.3 -49.3 178.8 -11.4C197.1 14.9 223.1 35 249.5 49.1C264.2 56.9 279 62.9 293.1 66.9C332.4 78 366.9 76.7 402.2 75.9C434.4 75.2 468.9 74.2 509.3 81.3C513.3 82 517.4 82.8 521.5 83.6C567.1 93.2 618.8 116 647.2 152.2C669.4 180.6 675.4 210.8 679.6 239C680 241.8 680.4 244.6 680.9 247.3C686.3 284.3 691.9 322.5 695.8 364C698.6 394.4 701.9 432.2 726.2 461.8C754.4 496.1 784.8 515.4 823.6 525.2C861.3 534.8 907.3 531.4 948.1 523.5C975.2 518.2 1000.8 511.6 1026.1 506.8C1038.8 504.4 1051.5 502.4 1064.2 501.3C1115.1 496.7 1166.7 505.4 1208.5 527.7C1260.6 555.5 1293.7 604.9 1298.2 643.7" stroke="#75828E" stroke-miterlimit="10"/>
<path d="M-123.9 -164C-84.7999 -191.8 -34.0999 -201.3 11.3001 -190.7C48.4001 -182.1 81.5001 -160.3 104.1 -131.5C109.3 -124.9 113.9 -118 117.9 -110.8C138.5 -73.2999 143.4 -28.6999 169.7 10.3001C187.9 37.4001 214.8 57.5001 242.7 70.7001C258.1 78.0001 273.9 83.3001 288.8 86.3001C330.6 94.7001 367.7 89.3001 405.3 84.6001C439.5 80.3001 476 75.8001 517.9 80.9001C522.1 81.4001 526.3 82.0001 530.6 82.7001C577.7 90.5001 630.8 113.9 658 152.8C679.2 183.3 682.6 216 684.1 246.6C684.2 249.6 684.4 252.6 684.5 255.6C686.3 295.6 688.1 336.6 688.5 380.5C688.8 412.6 689.9 452.2 714.9 482.1C742.9 515.5 775.8 530.7 814.6 538.1C852.1 545.2 896.5 541.7 936.6 535.2C963.3 530.9 988.6 525.8 1013.7 522.6C1026.3 521 1038.8 520 1051.3 519.7C1101.5 518.7 1151.5 531 1190.5 556.8C1239.2 588.9 1266.4 642.7 1263.1 682.3" stroke="#75828E" stroke-miterlimit="10"/>
<path d="M-130.9 -157.9C-90.7999 -185.8 -38.6999 -194.5 7.4001 -182C45.1001 -171.9 78.2001 -148 99.9001 -117.1C104.9 -110 109.2 -102.6 112.9 -94.9C132.1 -54.9 134.3 -8 160.4 32.2C178.5 60.2 206.4 80.2 235.7 92.4C251.9 99.2 268.6 103.7 284.4 105.7C328.8 111.4 368.5 101.9 408.3 93.2C444.6 85.3 483.1 77.3 526.4 80.4C530.7 80.7 535.1 81.1 539.5 81.6C588.2 87.5 642.6 111.6 668.6 153.1C688.9 185.6 689.7 220.9 688.4 253.8C688.3 257.1 688.1 260.3 688 263.5C686.1 306.6 684.2 350.4 681.2 396.5C679 430.2 677.9 471.8 703.6 501.9C731.5 534.4 766.8 545.6 805.5 550.4C842.7 555 885.7 551.4 925.1 546.3C951.3 542.9 976.4 539.3 1001.3 537.8C1013.8 537 1026.2 536.9 1038.5 537.6C1088 540.2 1136.5 556.1 1172.7 585.3C1217.9 621.8 1239.4 679.8 1228.2 720.3" stroke="#75828E" stroke-miterlimit="10"/>
<path d="M-137.9 -151.7C-96.7999 -179.7 -43.2999 -187.5 3.50011 -173.2C41.7001 -161.6 74.8001 -135.6 95.8001 -102.6C100.6 -95.0999 104.7 -87.1999 108.1 -78.9999C125.8 -36.5999 125.4 12.6001 151.3 54.0001C169.3 82.8001 198.2 102.7 228.8 114.1C245.8 120.4 263.3 124.1 280.1 125.2C327.1 128.1 369.3 114.6 411.4 101.9C449.7 90.4001 490.2 78.9001 535 79.9001C539.5 80.0001 544 80.2001 548.5 80.6001C598.7 84.6001 654.4 109.5 679.3 153.6C698.7 188.1 696.9 226 692.7 261.3C692.3 264.8 691.9 268.2 691.5 271.7C685.8 317.8 680.3 364.5 673.9 412.9C669.2 448.2 665.8 491.8 692.3 522.1C720 553.7 757.8 560.9 796.5 563.1C833.5 565.2 874.9 561.5 913.7 557.8C939.4 555.3 964.4 553.2 989 553.4C1001.3 553.5 1013.6 554.2 1025.8 555.8C1074.6 562 1121.5 581.5 1155 614.2C1196.8 655.1 1212.4 717.4 1193.3 758.7" stroke="#75828E" stroke-miterlimit="10"/>
<path d="M-144.9 -145.5C-102.8 -173.6 -47.8999 -180.6 -0.399902 -164.5C38.4001 -151.4 71.5001 -123.3 91.7001 -88.0999C96.3001 -80.0999 100.2 -71.6999 103.3 -63.0999C119.6 -18.1999 116.5 33.3001 142.2 75.8001C160.1 105.5 189.9 125.3 222 135.8C239.7 141.6 258.2 144.5 275.9 144.6C325.4 144.8 370.3 127.3 414.6 110.6C455 95.5001 497.4 80.5001 543.7 79.5001C548.3 79.4001 553 79.4001 557.7 79.6001C609.5 81.8001 666.5 107.3 690.2 154C708.7 190.6 704.2 230.9 697.3 268.7C696.6 272.4 695.9 276.1 695.3 279.8C685.9 329 676.8 378.5 666.9 429.2C659.8 466.2 654.1 511.6 681.3 542.2C708.8 573 749.2 576.1 787.8 575.7C824.5 575.3 864.5 571.5 902.5 569.2C927.8 567.6 952.5 567 976.9 568.9C989.1 569.8 1001.3 571.5 1013.3 573.9C1061.4 583.8 1106.8 606.8 1137.5 643C1175.8 688.2 1185.7 754.8 1158.7 797" stroke="#75828E" stroke-miterlimit="10"/>
<path d="M-151.8 -139.3C-108.8 -167.5 -52.4998 -173.6 -4.19981 -155.7C35.1002 -141.1 68.3002 -110.9 87.6002 -73.5999C92.0002 -65.0999 95.7002 -56.1999 98.5002 -47.0999C113.3 0.300095 107.6 54.0001 133.1 97.8001C151 128.3 181.7 148.1 215.2 157.6C233.7 162.9 253.1 165.1 271.6 164.2C323.6 161.7 371.1 140.1 417.8 119.4C460.3 100.7 504.7 82.1001 552.5 79.2001C557.3 78.9001 562.1 78.8001 566.9 78.8001C620.2 79.1001 678.6 105.4 701.1 154.6C718.7 193.2 711.5 236.1 701.9 276.2C701 280.1 700 284.1 699 288C686 340.2 673.1 392.6 659.8 445.6C650.2 484.2 642.2 531.6 670.2 562.3C697.5 592.2 740.4 591.4 779 588.3C815.5 585.4 854 581.5 891.3 580.6C916.1 580 940.7 580.8 964.8 584.4C976.9 586.2 988.9 588.7 1000.8 592.1C1048.2 605.6 1092 632.2 1120 671.9C1154.9 721.5 1159 792.4 1124.1 835.4" stroke="#75828E" stroke-miterlimit="10"/>
<path d="M-158.8 -133.1C-114.8 -161.4 -57.0998 -166.7 -8.09981 -147C40.9002 -127.3 79.8002 -82.9 93.7002 -31.3C107.1 18.6 98.6002 74.6 124.1 119.5C151.7 168.2 212.9 188.7 267.4 183.5C321.9 178.3 372 152.5 421 128C470 103.4 521.2 79.2 576 77.7C630.8 76.2 690.6 103.1 711.9 155C730.2 199.7 716.5 250.1 702.7 296C686 351.3 669.4 406.5 652.7 461.8C640.6 502.1 630.3 551.4 659.1 582.3C686.2 611.3 731.6 606.5 770.2 600.8C830.6 591.9 892.7 586.7 952.7 599.8C1012.7 612.9 1071 646.7 1102.4 700.6C1133.8 754.5 1132.1 829.7 1089.3 873.6" stroke="#75828E" stroke-miterlimit="10"/>
<path d="M-123.5 -150.7C-80.1 -170.9 -27.6 -168.3 13.9 -145.2C55.5 -122.1 85.2 -78.6 94.6 -25.8C103.5 24.2 94.4 81.1 118.7 127.6C145.1 177.7 205.4 201.5 260.8 197.5C314.2 193.7 363.1 168.5 411.5 145.9C462.3 122.1 515.7 99.7 572.2 98C626.5 96.4 685.8 121.7 707.8 172.4C726.8 216.1 714.2 266.4 700.8 311.9C684.7 366.3 668 420.4 651.8 474.8C639.9 515.1 630.4 564.3 659.2 595.2C686.4 624.4 731.9 620.3 770.7 614.8C830 606.3 890.9 600.7 949.8 613.5C1008.9 626.3 1066 659.8 1096.9 712.9C1127.8 766 1126.4 839.7 1085.2 883.5" stroke="#75828E" stroke-miterlimit="10"/>
<path d="M-88.2998 -168.3C-45.3998 -180.5 1.70019 -169.9 35.8002 -143.4C70.0002 -116.9 90.6002 -74.4 95.5002 -20.4C100.1 29.7 90.1002 87.5 113.4 135.6C138.4 187.1 198.1 214.1 254.2 211.4C306.3 208.9 354.2 184.5 402 163.8C454.7 140.8 510.2 120.2 568.5 118.4C622.3 116.8 681.1 140.4 703.8 190C723.5 232.8 712 282.8 699 328.1C683.5 381.6 666.7 434.7 651 488.1C639.3 528.4 630.7 577.5 659.4 608.4C686.7 637.8 732.4 634.4 771.4 629C829.6 620.8 889.2 615 947 627.4C1005.1 639.9 1061.2 673.2 1091.5 725.5C1121.8 777.8 1120.7 850 1081.1 893.7" stroke="#75828E" stroke-miterlimit="10"/>
<path d="M-53 -185.9C-10.7 -190 31 -171.6 57.8 -141.7C84.5 -111.9 96.1 -70.3001 96.4 -15.0001C96.7 34.9999 85.8 93.9 108.1 143.5C131.8 196.4 190.7 226.6 247.6 225.2C298.5 224 345.4 200.5 392.5 181.5C447.1 159.4 504.7 140.5 564.7 138.5C617.9 136.9 676.3 158.8 699.8 207.2C720.2 249.1 709.9 298.9 697.2 343.8C682.2 396.4 665.4 448.4 650.3 500.9C638.9 541.3 631 590.2 659.7 621.1C687.1 650.7 732.9 648 772.2 642.8C829.3 635.1 887.7 628.8 944.3 640.9C1001.5 653.1 1056.5 686.1 1086.1 737.6C1115.8 789.1 1115 859.7 1077 903.4" stroke="#75828E" stroke-miterlimit="10"/>
<path d="M-17.6997 -203.5C24.0003 -199.5 60.4003 -173.4 79.8003 -139.9C99.0003 -106.9 101.7 -66.3 97.3003 -9.60001C93.4003 40.3 81.5003 100.3 102.7 151.5C125.2 205.7 183.3 241.8 240.9 239.1C290.4 236.7 336.6 216.7 382.9 199.3C439.5 178.1 499.1 160.9 560.8 158.8C613.5 157.1 671.4 177.4 695.6 224.6C716.7 265.5 707.5 315.1 695.2 359.7C680.8 411.4 663.7 462.3 649.3 514C638 554.4 631.1 603.1 659.6 634.1C687.1 663.9 733.1 661.9 772.5 656.8C828.4 649.5 885.6 642.9 941.1 654.7C997.3 666.6 1051.2 699.4 1080.3 750.1C1109.4 800.8 1108.9 869.9 1072.6 913.5" stroke="#75828E" stroke-miterlimit="10"/>
<path d="M17.6001 -221.1C58.7001 -209 89.7001 -175.3 101.8 -138.2C113.5 -102.1 107.5 -62.3998 98.3001 -4.19984C90.4001 45.6002 77.4001 106.7 97.5001 159.5C118.7 215.1 176 254.8 234.4 253C282.7 251.5 327.9 232.9 373.4 217.2C432 197 493.6 181.4 557.1 179.2C609.3 177.5 666.7 196.1 691.6 242.2C713.3 282.2 705.3 331.6 693.4 375.9C679.5 426.7 662.4 476.6 648.5 527.3C637.4 567.7 631.3 616.3 659.8 647.2C687.4 677.2 733.5 675.9 773.2 670.9C828 664 884 657 938.3 668.5C993.6 680.1 1046.4 712.7 1074.9 762.5C1103.4 812.3 1103.3 879.9 1068.5 923.4" stroke="#75828E" stroke-miterlimit="10"/>
<path d="M52.8003 -238.7C93.4003 -218.6 119.1 -177.2 123.7 -136.4C128.1 -97.1999 113.3 -58.3999 99.1003 1.20006C87.3003 50.8001 73.0003 113.1 92.1003 167.5C112 224.5 168.5 264.1 227.8 266.9C274.8 269.1 319.3 249.2 363.9 235C424.6 215.8 488.2 201.8 553.3 199.4C604.9 197.7 661.8 214.6 687.5 259.5C709.9 298.5 703.1 347.7 691.5 391.7C678.3 441.6 661 490.4 647.6 540.2C636.7 580.6 631.5 629.1 659.9 660C687.6 690.2 733.8 689.6 773.8 684.8C827.5 678.3 882.2 671 935.4 682.1C989.7 693.4 1041.5 725.7 1069.4 774.7C1097.3 823.7 1097.5 889.8 1064.3 933.2" stroke="#75828E" stroke-miterlimit="10"/>
<path d="M88.1 -256.3C128.1 -228.1 148.7 -179.1 145.7 -134.7C142.8 -92.5 119.3 -54.4001 100.1 6.49994C84.5 55.9999 68.9 119.4 86.8 175.4C105.5 233.7 161.1 276.4 221.2 280.7C266.9 283.9 310.6 265.4 354.4 252.8C417.2 234.7 482.7 222.1 549.5 219.7C600.6 217.9 657 233.1 683.5 276.9C706.6 315 700.9 364 689.7 407.6C677.1 456.6 659.7 504.3 646.8 553.3C636.2 593.7 631.7 642 660.1 673C688 703.4 734.2 703.5 774.4 698.8C826.9 692.7 880.5 685.1 932.6 695.8C986 706.8 1036.6 738.9 1064 787.1C1091.4 835.3 1091.8 899.8 1060.3 943.2" stroke="#75828E" stroke-miterlimit="10"/>
<path d="M123.4 -273.9C162.8 -237.6 178.3 -181 167.7 -132.9C157.6 -87.5999 125.4 -50.3999 101 12.0001C81.7001 61.4001 64.6001 125.8 81.5001 183.5C98.9001 243.1 153.7 288.7 214.6 294.6C259 298.8 302 281.9 344.9 270.6C409.8 253.6 477.2 242.5 545.7 239.9C596.2 238.1 652.2 251.6 679.4 294.3C703.2 331.4 698.7 380.2 687.8 423.6C675.7 471.7 658.3 518.4 645.9 566.4C635.5 606.9 631.9 655 660.2 686C688.2 716.6 734.6 717.4 775 712.9C826.4 707.1 878.7 699.2 929.7 709.7C982.1 720.4 1031.7 752.3 1058.5 799.6C1085.3 847 1086 910 1056.1 953.3" stroke="#75828E" stroke-miterlimit="10"/>
<path d="M158.7 -291.5C197.6 -247.2 208 -182.9 189.7 -131.2C172.5 -82.7 131.6 -46.3 101.9 17.3C78.9003 66.7 60.4003 132.1 76.2003 191.3C92.4003 252.3 146.3 300.9 208 308.4C251.1 313.6 293.3 298.2 335.4 288.4C402.5 272.7 471.7 262.9 542 260.2C592 258.4 647.5 270.2 675.4 311.7C699.9 347.9 696.5 396.5 686 439.5C674.5 486.7 657 532.3 645.2 579.4C635 619.9 632.2 667.9 660.5 698.9C688.6 729.7 735.1 731.2 775.8 726.8C826.1 721.4 877.2 713.2 927 723.3C978.5 733.7 1026.9 765.3 1053.2 811.9C1079.5 858.5 1080.5 919.9 1052.1 963.2" stroke="#75828E" stroke-miterlimit="10"/>
<path d="M194 -309.1C232.3 -256.7 237.7 -184.6 211.7 -129.4C187.3 -77.6999 137.9 -42.0998 102.9 22.8002C76.3 72.2002 56.3 138.6 70.9 199.4C85.9 261.8 138.9 313.3 201.4 322.4C243.3 328.5 284.7 314.9 325.9 306.3C395.1 291.9 466.2 283.4 538.2 280.5C587.7 278.6 642.7 288.8 671.4 329.2C696.6 364.4 694.3 412.8 684.2 455.5C673.3 501.8 655.7 546.3 644.4 592.6C634.5 633.1 632.5 681 660.7 711.9C688.9 742.9 735.5 745.1 776.4 740.9C825.5 735.8 875.4 727.3 924.1 737.1C974.6 747.2 1022 778.6 1047.7 824.3C1073.4 870 1074.7 930 1048 973.1" stroke="#75828E" stroke-miterlimit="10"/>
<path d="M229.2 -326.7C266.9 -266.2 267.3 -186.4 233.6 -127.7C202.1 -72.7999 144.1 -37.9 103.7 28.1C73.5004 77.5 52.0004 144.9 65.5004 207.3C79.3004 271 131.5 325.3 194.8 336.1C235.4 343.1 276.1 331.3 316.4 324C387.8 311.1 460.7 303.7 534.4 300.7C583.3 298.8 637.9 307.3 667.3 346.5C693.2 380.8 692 429 682.3 471.4C671.9 516.8 654.3 560.3 643.5 605.6C633.8 646.2 632.6 693.8 660.8 724.8C689.1 756 735.9 758.8 777 754.8C825 750.1 873.701 741.3 921.201 750.8C970.8 760.7 1017.1 791.8 1042.2 836.7C1067.3 881.6 1068.9 940 1043.8 983.1" stroke="#75828E" stroke-miterlimit="10"/>
<path d="M264.5 -344.3C301.6 -275.7 297 -188.1 255.5 -125.9C216.8 -67.8001 150.4 -33.6001 104.5 33.5999C70.7004 83.1999 47.7003 151.3 60.1003 215.4C72.7003 280.5 124 337.5 188.1 350.1C227.4 357.9 267.4 348 306.8 341.9C380.4 330.6 455.2 324.2 530.5 321C578.9 319.1 633 325.9 663.1 363.9C689.7 397.3 689.6 445.2 680.3 487.3C670.5 531.8 652.8 574.2 642.5 618.6C633.1 659.2 632.7 706.7 660.8 737.7C689.2 769.1 736.1 772.6 777.5 768.7C824.4 764.3 871.8 755.2 918.2 764.4C966.9 774 1012 804.8 1036.5 848.9C1061 893 1062.9 949.9 1039.4 992.9" stroke="#75828E" stroke-miterlimit="10"/>
<path d="M299.8 -361.9C336.4 -285.3 326.6 -189.8 277.5 -124.1C231.6 -62.6999 156.8 -29.1999 105.5 39.0001C68.1 88.7001 43.6 157.7 54.8 223.4C66.2 289.8 116.7 349.5 181.5 364C219.6 372.6 258.8 364.7 297.3 359.8C373.1 350.2 449.7 344.7 526.8 341.4C574.6 339.4 628.2 344.6 659.2 381.5C686.5 413.9 687.5 461.6 678.6 503.4C669.2 547 651.6 588.4 641.8 631.8C632.6 672.4 633 719.8 661 750.8C689.5 782.4 736.5 786.6 778.1 782.9C823.8 778.8 870.1 769.5 915.4 778.3C963.1 787.6 1007.2 818.2 1031.1 861.4C1055 904.6 1057.3 960 1035.4 1003" stroke="#75828E" stroke-miterlimit="10"/>
<path d="M335.1 -379.5C371.1 -294.8 356.3 -191.6 299.5 -122.4C246.5 -57.7 163.2 -24.9 106.4 44.3C65.5001 94.2 39.5001 164 49.5001 231.2C59.8001 298.9 109.4 361.2 174.9 377.7C211.8 387 250.2 381.2 287.7 377.4C365.6 369.6 444.1 364.9 522.9 361.4C570.2 359.4 623.3 362.9 655 398.6C683 430.1 685.1 477.6 676.6 519.1C667.8 561.8 650.3 602.1 640.8 644.7C632 685.4 633.1 732.6 661 763.6C689.7 795.4 736.7 800.1 778.6 796.7C823.2 792.9 868.2 783.4 912.4 791.8C959.2 800.8 1002.2 831.2 1025.5 873.6C1048.9 916 1051.4 969.9 1031.1 1012.8" stroke="#75828E" stroke-miterlimit="10"/>
<path d="M370.4 -397.1C405.8 -304.3 386 -193.2 321.5 -120.6C261.3 -52.5999 169.6 -20.2998 107.4 49.8002C62.9 100 35.3 170.5 44.3 239.3C53.3 308.4 102.3 373.1 168.4 391.7C204.1 401.7 241.6 398 278.3 395.4C358.4 389.6 438.7 385.4 519.2 381.9C566 379.9 618.6 381.7 651 416.2C679.7 446.7 682.9 494 674.8 535.2C666.5 577 648.9 616.3 640.1 657.9C631.5 698.6 633.4 745.6 661.3 776.7C690.1 808.7 737.3 814.1 779.4 810.9C822.9 807.4 866.7 797.6 909.7 805.8C955.5 814.5 997.4 844.6 1020.2 886.2C1043 927.8 1045.8 980.1 1027.1 1022.9" stroke="#75828E" stroke-miterlimit="10"/>
<path d="M405.6 -414.7C440.4 -313.9 415.5 -194.9 343.4 -118.9C276 -47.7 175.9 -15.9 108.2 55.1C60.1001 105.5 31.0001 176.7 38.8001 247.2C46.6001 317.7 94.9001 384.7 161.7 405.5C196.2 416.2 232.9 414.7 268.7 413.1C350.9 409.4 433.1 405.7 515.3 402.1C561.5 400 613.7 400.2 646.8 433.6C676.1 463.2 680.5 510.3 672.8 551.1C665.1 592 647.4 630.2 639.1 670.9C630.8 711.6 633.4 758.5 661.3 789.5C690.2 821.7 737.5 827.8 779.8 824.7C822.1 821.6 864.7 811.5 906.6 819.3C951.5 827.7 992.3 857.6 1014.5 898.4C1036.7 939.2 1039.8 990 1022.8 1032.7" stroke="#75828E" stroke-miterlimit="10"/>
</svg>
