<svg width="36" height="36" viewBox="0 0 36 36" fill="none" xmlns="http://www.w3.org/2000/svg">
<path d="M31.7499 14C33.0113 14.7264 34.034 15.8041 34.6935 17.1017C35.3529 18.3993 35.6205 19.8608 35.4636 21.3079C35.3067 22.755 34.7321 24.1251 33.8098 25.2513C32.8876 26.3774 31.6576 27.2109 30.2699 27.65C29.7794 29.8758 28.5435 31.8673 26.7668 33.2949C24.9901 34.7225 22.7791 35.5004 20.4999 35.5H16.7499C16.4184 35.5 16.1004 35.3683 15.866 35.1339C15.6316 34.8995 15.4999 34.5815 15.4999 34.25C15.4999 33.9185 15.6316 33.6005 15.866 33.3661C16.1004 33.1317 16.4184 33 16.7499 33H20.4999C22.0514 33.0005 23.5649 32.5199 24.832 31.6244C26.0991 30.729 27.0574 29.4627 27.5749 28H26.7499C26.4184 28 26.1004 27.8683 25.866 27.6339C25.6316 27.3995 25.4999 27.0815 25.4999 26.75V14.25C25.4999 13.9185 25.6316 13.6005 25.866 13.3661C26.1004 13.1317 26.4184 13 26.7499 13H27.9999C28.4049 13 28.8024 13.0325 29.1924 13.095C28.911 10.3222 27.6103 7.75263 25.5425 5.88405C23.4747 4.01548 20.7869 2.98098 17.9999 2.98098C15.2129 2.98098 12.5251 4.01548 10.4572 5.88405C8.38942 7.75263 7.0888 10.3222 6.80738 13.095C7.20174 13.0318 7.60049 13.0001 7.99988 13H9.24988C9.5814 13 9.89934 13.1317 10.1338 13.3661C10.3682 13.6005 10.4999 13.9185 10.4999 14.25V26.75C10.4999 27.0815 10.3682 27.3995 10.1338 27.6339C9.89934 27.8683 9.5814 28 9.24988 28H7.99988C6.34733 28.0018 4.74044 27.4578 3.42887 26.4525C2.1173 25.4472 1.17449 24.0368 0.746917 22.4405C0.319343 20.8443 0.430951 19.1515 1.0644 17.6251C1.69785 16.0988 2.81767 14.8244 4.24988 14C4.24988 10.3533 5.69854 6.85591 8.27716 4.27728C10.8558 1.69866 14.3532 0.25 17.9999 0.25C21.6466 0.25 25.144 1.69866 27.7226 4.27728C30.3012 6.85591 31.7499 10.3533 31.7499 14ZM7.99988 15.5C6.6738 15.5 5.40203 16.0268 4.46434 16.9645C3.52666 17.9021 2.99988 19.1739 2.99988 20.5C2.99988 21.8261 3.52666 23.0979 4.46434 24.0355C5.40203 24.9732 6.6738 25.5 7.99988 25.5V15.5ZM32.9999 20.5C32.9999 19.1739 32.4731 17.9021 31.5354 16.9645C30.5977 16.0268 29.326 15.5 27.9999 15.5V25.5C29.326 25.5 30.5977 24.9732 31.5354 24.0355C32.4731 23.0979 32.9999 21.8261 32.9999 20.5Z" fill="#52D3FD"/>
</svg>
