<svg width="40" height="40" viewBox="0 0 40 40" fill="none" xmlns="http://www.w3.org/2000/svg">
<path d="M4.99987 31.6667V9.49999C4.99976 9.15786 5.10495 8.824 5.30115 8.54372C5.49734 8.26344 5.77504 8.05033 6.09653 7.93332L22.2149 2.07332C22.3408 2.0275 22.4759 2.01271 22.6087 2.03021C22.7416 2.04771 22.8682 2.09699 22.978 2.17386C23.0877 2.25072 23.1773 2.35292 23.2391 2.47178C23.301 2.59065 23.3332 2.72267 23.3332 2.85665V11.1117L33.8599 14.62C34.1919 14.7306 34.4807 14.9429 34.6853 15.2267C34.8899 15.5106 34.9999 15.8517 34.9999 16.2017V31.6667H38.3332V35H1.66653V31.6667H4.99987ZM8.3332 31.6667H19.9999V6.42666L8.3332 10.6667V31.6667ZM31.6665 31.6667V17.4033L23.3332 14.625V31.6667H31.6665Z" fill="#52D3FD"/>
</svg>
