<svg width="96" height="254" viewBox="0 0 96 254" fill="none" xmlns="http://www.w3.org/2000/svg">
<path d="M94 254C95.1046 254 96 253.105 96 252C96 250.895 95.1046 250 94 250C92.8954 250 92 250.895 92 252C92 253.105 92.8954 254 94 254Z" fill="#A1D4E6"/>
<path d="M71 254C72.1046 254 73 253.105 73 252C73 250.895 72.1046 250 71 250C69.8954 250 69 250.895 69 252C69 253.105 69.8954 254 71 254Z" fill="#A1D4E6"/>
<path d="M48 254C49.1046 254 50 253.105 50 252C50 250.895 49.1046 250 48 250C46.8954 250 46 250.895 46 252C46 253.105 46.8954 254 48 254Z" fill="#A1D4E6"/>
<path d="M25 254C26.1046 254 27 253.105 27 252C27 250.895 26.1046 250 25 250C23.8954 250 23 250.895 23 252C23 253.105 23.8954 254 25 254Z" fill="#A1D4E6"/>
<path d="M2 254C3.10457 254 4 253.105 4 252C4 250.895 3.10457 250 2 250C0.89543 250 0 250.895 0 252C0 253.105 0.89543 254 2 254Z" fill="#A1D4E6"/>
<path d="M94 229C95.1046 229 96 228.105 96 227C96 225.895 95.1046 225 94 225C92.8954 225 92 225.895 92 227C92 228.105 92.8954 229 94 229Z" fill="#A1D4E6"/>
<path d="M71 229C72.1046 229 73 228.105 73 227C73 225.895 72.1046 225 71 225C69.8954 225 69 225.895 69 227C69 228.105 69.8954 229 71 229Z" fill="#A1D4E6"/>
<path d="M48 229C49.1046 229 50 228.105 50 227C50 225.895 49.1046 225 48 225C46.8954 225 46 225.895 46 227C46 228.105 46.8954 229 48 229Z" fill="#A1D4E6"/>
<path d="M25 229C26.1046 229 27 228.105 27 227C27 225.895 26.1046 225 25 225C23.8954 225 23 225.895 23 227C23 228.105 23.8954 229 25 229Z" fill="#A1D4E6"/>
<path d="M2 229C3.10457 229 4 228.105 4 227C4 225.895 3.10457 225 2 225C0.89543 225 0 225.895 0 227C0 228.105 0.89543 229 2 229Z" fill="#A1D4E6"/>
<path d="M94 204C95.1046 204 96 203.105 96 202C96 200.895 95.1046 200 94 200C92.8954 200 92 200.895 92 202C92 203.105 92.8954 204 94 204Z" fill="#A1D4E6"/>
<path d="M71 204C72.1046 204 73 203.105 73 202C73 200.895 72.1046 200 71 200C69.8954 200 69 200.895 69 202C69 203.105 69.8954 204 71 204Z" fill="#A1D4E6"/>
<path d="M48 204C49.1046 204 50 203.105 50 202C50 200.895 49.1046 200 48 200C46.8954 200 46 200.895 46 202C46 203.105 46.8954 204 48 204Z" fill="#A1D4E6"/>
<path d="M25 204C26.1046 204 27 203.105 27 202C27 200.895 26.1046 200 25 200C23.8954 200 23 200.895 23 202C23 203.105 23.8954 204 25 204Z" fill="#A1D4E6"/>
<path d="M2 204C3.10457 204 4 203.105 4 202C4 200.895 3.10457 200 2 200C0.89543 200 0 200.895 0 202C0 203.105 0.89543 204 2 204Z" fill="#A1D4E6"/>
<path d="M94 179C95.1046 179 96 178.105 96 177C96 175.895 95.1046 175 94 175C92.8954 175 92 175.895 92 177C92 178.105 92.8954 179 94 179Z" fill="#A1D4E6"/>
<path d="M71 179C72.1046 179 73 178.105 73 177C73 175.895 72.1046 175 71 175C69.8954 175 69 175.895 69 177C69 178.105 69.8954 179 71 179Z" fill="#A1D4E6"/>
<path d="M48 179C49.1046 179 50 178.105 50 177C50 175.895 49.1046 175 48 175C46.8954 175 46 175.895 46 177C46 178.105 46.8954 179 48 179Z" fill="#A1D4E6"/>
<path d="M25 179C26.1046 179 27 178.105 27 177C27 175.895 26.1046 175 25 175C23.8954 175 23 175.895 23 177C23 178.105 23.8954 179 25 179Z" fill="#A1D4E6"/>
<path d="M2 179C3.10457 179 4 178.105 4 177C4 175.895 3.10457 175 2 175C0.89543 175 0 175.895 0 177C0 178.105 0.89543 179 2 179Z" fill="#A1D4E6"/>
<path d="M94 154C95.1046 154 96 153.105 96 152C96 150.895 95.1046 150 94 150C92.8954 150 92 150.895 92 152C92 153.105 92.8954 154 94 154Z" fill="#A1D4E6"/>
<path d="M71 154C72.1046 154 73 153.105 73 152C73 150.895 72.1046 150 71 150C69.8954 150 69 150.895 69 152C69 153.105 69.8954 154 71 154Z" fill="#A1D4E6"/>
<path d="M48 154C49.1046 154 50 153.105 50 152C50 150.895 49.1046 150 48 150C46.8954 150 46 150.895 46 152C46 153.105 46.8954 154 48 154Z" fill="#A1D4E6"/>
<path d="M25 154C26.1046 154 27 153.105 27 152C27 150.895 26.1046 150 25 150C23.8954 150 23 150.895 23 152C23 153.105 23.8954 154 25 154Z" fill="#A1D4E6"/>
<path d="M2 154C3.10457 154 4 153.105 4 152C4 150.895 3.10457 150 2 150C0.89543 150 0 150.895 0 152C0 153.105 0.89543 154 2 154Z" fill="#A1D4E6"/>
<path d="M94 129C95.1046 129 96 128.105 96 127C96 125.895 95.1046 125 94 125C92.8954 125 92 125.895 92 127C92 128.105 92.8954 129 94 129Z" fill="#A1D4E6"/>
<path d="M71 129C72.1046 129 73 128.105 73 127C73 125.895 72.1046 125 71 125C69.8954 125 69 125.895 69 127C69 128.105 69.8954 129 71 129Z" fill="#A1D4E6"/>
<path d="M48 129C49.1046 129 50 128.105 50 127C50 125.895 49.1046 125 48 125C46.8954 125 46 125.895 46 127C46 128.105 46.8954 129 48 129Z" fill="#A1D4E6"/>
<path d="M25 129C26.1046 129 27 128.105 27 127C27 125.895 26.1046 125 25 125C23.8954 125 23 125.895 23 127C23 128.105 23.8954 129 25 129Z" fill="#A1D4E6"/>
<path d="M2 129C3.10457 129 4 128.105 4 127C4 125.895 3.10457 125 2 125C0.89543 125 0 125.895 0 127C0 128.105 0.89543 129 2 129Z" fill="#A1D4E6"/>
<path d="M94 104C95.1046 104 96 103.105 96 102C96 100.895 95.1046 100 94 100C92.8954 100 92 100.895 92 102C92 103.105 92.8954 104 94 104Z" fill="#A1D4E6"/>
<path d="M71 104C72.1046 104 73 103.105 73 102C73 100.895 72.1046 100 71 100C69.8954 100 69 100.895 69 102C69 103.105 69.8954 104 71 104Z" fill="#A1D4E6"/>
<path d="M48 104C49.1046 104 50 103.105 50 102C50 100.895 49.1046 100 48 100C46.8954 100 46 100.895 46 102C46 103.105 46.8954 104 48 104Z" fill="#A1D4E6"/>
<path d="M25 104C26.1046 104 27 103.105 27 102C27 100.895 26.1046 100 25 100C23.8954 100 23 100.895 23 102C23 103.105 23.8954 104 25 104Z" fill="#A1D4E6"/>
<path d="M2 104C3.10457 104 4 103.105 4 102C4 100.895 3.10457 100 2 100C0.89543 100 0 100.895 0 102C0 103.105 0.89543 104 2 104Z" fill="#A1D4E6"/>
<path d="M94 79C95.1046 79 96 78.1046 96 77C96 75.8954 95.1046 75 94 75C92.8954 75 92 75.8954 92 77C92 78.1046 92.8954 79 94 79Z" fill="#A1D4E6"/>
<path d="M71 79C72.1046 79 73 78.1046 73 77C73 75.8954 72.1046 75 71 75C69.8954 75 69 75.8954 69 77C69 78.1046 69.8954 79 71 79Z" fill="#A1D4E6"/>
<path d="M48 79C49.1046 79 50 78.1046 50 77C50 75.8954 49.1046 75 48 75C46.8954 75 46 75.8954 46 77C46 78.1046 46.8954 79 48 79Z" fill="#A1D4E6"/>
<path d="M25 79C26.1046 79 27 78.1046 27 77C27 75.8954 26.1046 75 25 75C23.8954 75 23 75.8954 23 77C23 78.1046 23.8954 79 25 79Z" fill="#A1D4E6"/>
<path d="M2 79C3.10457 79 4 78.1046 4 77C4 75.8954 3.10457 75 2 75C0.89543 75 0 75.8954 0 77C0 78.1046 0.89543 79 2 79Z" fill="#A1D4E6"/>
<path d="M94 54C95.1046 54 96 53.1046 96 52C96 50.8954 95.1046 50 94 50C92.8954 50 92 50.8954 92 52C92 53.1046 92.8954 54 94 54Z" fill="#A1D4E6"/>
<path d="M71 54C72.1046 54 73 53.1046 73 52C73 50.8954 72.1046 50 71 50C69.8954 50 69 50.8954 69 52C69 53.1046 69.8954 54 71 54Z" fill="#A1D4E6"/>
<path d="M48 54C49.1046 54 50 53.1046 50 52C50 50.8954 49.1046 50 48 50C46.8954 50 46 50.8954 46 52C46 53.1046 46.8954 54 48 54Z" fill="#A1D4E6"/>
<path d="M25 54C26.1046 54 27 53.1046 27 52C27 50.8954 26.1046 50 25 50C23.8954 50 23 50.8954 23 52C23 53.1046 23.8954 54 25 54Z" fill="#A1D4E6"/>
<path d="M2 54C3.10457 54 4 53.1046 4 52C4 50.8954 3.10457 50 2 50C0.89543 50 0 50.8954 0 52C0 53.1046 0.89543 54 2 54Z" fill="#A1D4E6"/>
<path d="M94 29C95.1046 29 96 28.1046 96 27C96 25.8954 95.1046 25 94 25C92.8954 25 92 25.8954 92 27C92 28.1046 92.8954 29 94 29Z" fill="#A1D4E6"/>
<path d="M71 29C72.1046 29 73 28.1046 73 27C73 25.8954 72.1046 25 71 25C69.8954 25 69 25.8954 69 27C69 28.1046 69.8954 29 71 29Z" fill="#A1D4E6"/>
<path d="M48 29C49.1046 29 50 28.1046 50 27C50 25.8954 49.1046 25 48 25C46.8954 25 46 25.8954 46 27C46 28.1046 46.8954 29 48 29Z" fill="#A1D4E6"/>
<path d="M25 29C26.1046 29 27 28.1046 27 27C27 25.8954 26.1046 25 25 25C23.8954 25 23 25.8954 23 27C23 28.1046 23.8954 29 25 29Z" fill="#A1D4E6"/>
<path d="M2 29C3.10457 29 4 28.1046 4 27C4 25.8954 3.10457 25 2 25C0.89543 25 0 25.8954 0 27C0 28.1046 0.89543 29 2 29Z" fill="#A1D4E6"/>
<path d="M94 4C95.1046 4 96 3.10457 96 2C96 0.89543 95.1046 0 94 0C92.8954 0 92 0.89543 92 2C92 3.10457 92.8954 4 94 4Z" fill="#A1D4E6"/>
<path d="M71 4C72.1046 4 73 3.10457 73 2C73 0.89543 72.1046 0 71 0C69.8954 0 69 0.89543 69 2C69 3.10457 69.8954 4 71 4Z" fill="#A1D4E6"/>
<path d="M48 4C49.1046 4 50 3.10457 50 2C50 0.89543 49.1046 0 48 0C46.8954 0 46 0.89543 46 2C46 3.10457 46.8954 4 48 4Z" fill="#A1D4E6"/>
<path d="M25 4C26.1046 4 27 3.10457 27 2C27 0.89543 26.1046 0 25 0C23.8954 0 23 0.89543 23 2C23 3.10457 23.8954 4 25 4Z" fill="#A1D4E6"/>
<path d="M2 4C3.10457 4 4 3.10457 4 2C4 0.89543 3.10457 0 2 0C0.89543 0 0 0.89543 0 2C0 3.10457 0.89543 4 2 4Z" fill="#A1D4E6"/>
</svg>
