<svg width="20" height="19" viewBox="0 0 20 19" fill="none" xmlns="http://www.w3.org/2000/svg">
<path d="M1 9C1 4.0295 5.0295 0 10 0C14.9705 0 19 4.0295 19 9V15.625C19 15.97 18.72 16.25 18.375 16.25H1.625C1.28 16.25 1 15.97 1 15.625V9ZM10 1.25C5.72 1.25 2.25 4.72 2.25 9V15H6.818C6.32687 14.5854 5.93212 14.0686 5.6613 13.4857C5.39049 12.9027 5.25012 12.2678 5.25 11.625C5.25 10.377 5.635 9.395 6.021 8.7265C6.214 8.392 6.4075 8.134 6.556 7.9565C6.63819 7.85879 6.72496 7.76502 6.816 7.6755L6.822 7.6695L6.824 7.6675L6.825 7.6665L6.826 7.666C6.92756 7.56953 7.05904 7.51068 7.19865 7.49922C7.33825 7.48776 7.47757 7.52438 7.5935 7.603C7.8205 7.7525 7.9925 7.851 8.1205 7.914C8.1255 7.8275 8.129 7.729 8.133 7.6115L8.1385 7.44C8.1575 6.93 8.1995 6.1985 8.555 5.532C8.932 4.8245 9.6145 4.269 10.7375 4.0155C10.8289 3.99488 10.9239 3.99509 11.0152 4.01612C11.1066 4.03715 11.192 4.07846 11.2652 4.13699C11.3385 4.19552 11.3976 4.26977 11.4382 4.35425C11.4789 4.43872 11.5 4.53126 11.5 4.625C11.5 6.1315 12.187 7.084 12.983 8.054L13.173 8.2835C13.903 9.161 14.75 10.18 14.75 11.625C14.75 12.2676 14.6099 12.9024 14.3394 13.4853C14.069 14.0682 13.6747 14.5851 13.184 15H17.75V9C17.75 4.72 14.28 1.25 10 1.25ZM7.104 9.3505C6.70554 10.0421 6.49716 10.8268 6.5 11.625C6.5 13.326 7.8735 14.875 10.002 14.875C12.1295 14.875 13.5 13.327 13.5 11.625C13.5 10.649 12.944 9.9735 12.155 9.0155L12.017 8.847C11.3155 7.9925 10.536 6.9695 10.313 5.4835C9.97 5.666 9.778 5.8945 9.658 6.12C9.451 6.5085 9.4065 6.977 9.388 7.486L9.383 7.6195C9.377 7.817 9.3705 8.0335 9.348 8.2155C9.323 8.413 9.263 8.7705 8.99 9.0185C8.6575 9.3205 8.2425 9.281 7.946 9.1895C7.74777 9.12423 7.55677 9.03878 7.376 8.9345C7.27745 9.06785 7.18663 9.20674 7.104 9.3505ZM0 18.375C0 18.03 0.28 17.75 0.625 17.75H19.375C19.5408 17.75 19.6997 17.8158 19.8169 17.9331C19.9342 18.0503 20 18.2092 20 18.375C20 18.5408 19.9342 18.6997 19.8169 18.8169C19.6997 18.9342 19.5408 19 19.375 19H0.625C0.28 19 0 18.72 0 18.375Z" fill="white"/>
</svg>
