<svg width="22" height="21" viewBox="0 0 22 21" fill="none" xmlns="http://www.w3.org/2000/svg">
<path d="M21 20H1M2 20V9.34697C2.00004 8.92335 2.0898 8.50455 2.26337 8.11812C2.43693 7.73169 2.69037 7.3864 3.007 7.10497L9.007 1.77197C9.55614 1.28389 10.2653 1.01428 11 1.01428C11.7347 1.01428 12.4439 1.28389 12.993 1.77197L18.993 7.10497C19.3096 7.3864 19.5631 7.73169 19.7366 8.11812C19.9102 8.50455 20 8.92335 20 9.34697V20M9 6.99997H13M8 13.5H14M8 16.5H14" stroke="white" stroke-width="1.5" stroke-linecap="round"/>
<path d="M17 20V14C17 12.114 17 11.172 16.414 10.586C15.828 10 14.886 10 13 10H9C7.114 10 6.172 10 5.586 10.586C5 11.172 5 12.114 5 14V20" stroke="white" stroke-width="1.5"/>
</svg>
