<?xml version="1.0" standalone="no"?>
<!DOCTYPE svg PUBLIC "-//W3C//DTD SVG 20010904//EN"
 "http://www.w3.org/TR/2001/REC-SVG-20010904/DTD/svg10.dtd">
<svg version="1.0" xmlns="http://www.w3.org/2000/svg"
 width="64.000000pt" height="64.000000pt" viewBox="0 0 64.000000 64.000000"
 preserveAspectRatio="xMidYMid meet">

<g transform="translate(0.000000,64.000000) scale(0.100000,-0.100000)"
fill="#000000" stroke="none">
<path d="M259 575 c-27 -15 -59 -69 -59 -102 0 -10 7 -31 15 -47 9 -16 14 -31
12 -32 -2 -2 -52 -9 -110 -16 -71 -7 -107 -15 -107 -23 0 -7 7 -45 16 -84 11
-46 21 -71 30 -71 8 0 14 7 14 15 0 13 34 15 250 15 216 0 250 -2 250 -15 0
-8 6 -15 13 -15 12 0 48 120 47 156 0 6 -44 15 -107 22 -58 7 -108 14 -110 15
-2 2 3 20 12 40 42 102 -67 196 -166 142z m104 -6 c60 -31 77 -114 33 -162
-77 -83 -203 -10 -174 101 15 56 89 88 141 61z m-233 -259 c0 -11 -5 -20 -11
-20 -5 0 -7 -4 -4 -10 3 -5 1 -10 -4 -10 -6 0 -12 12 -12 28 l-2 27 -4 -27
c-6 -36 -21 -36 -17 0 2 16 1 19 -2 7 -11 -36 -24 -40 -24 -7 0 31 2 32 40 32
33 0 40 -3 40 -20z m44 11 c4 -5 0 -11 -6 -14 -7 -2 -9 -8 -5 -13 4 -5 12 -2
17 5 6 10 35 15 107 16 54 1 107 5 117 10 13 6 17 5 12 -3 -4 -7 2 -11 16 -10
41 2 48 -2 48 -22 0 -18 -6 -20 -80 -19 -67 1 -80 4 -81 17 -1 16 -2 16 -6 0
-3 -13 -18 -16 -85 -15 -82 0 -97 8 -84 42 6 17 22 20 30 6z m339 -18 c-3 -25
-2 -25 6 -7 8 18 23 22 61 15 3 -1 -2 -6 -10 -11 -13 -8 -12 -10 3 -10 9 0 17
-4 17 -10 0 -5 -20 -10 -45 -10 -43 0 -45 1 -45 30 0 17 4 30 9 30 4 0 7 -12
4 -27z"/>
<path d="M261 524 c-27 -34 -19 -46 19 -27 17 8 28 18 25 23 -3 5 3 13 12 19
16 9 14 10 -9 11 -17 0 -34 -9 -47 -26z"/>
<path d="M278 465 c-21 -24 -38 -46 -38 -49 0 -16 31 -2 53 24 l25 30 26 -30
c13 -17 29 -30 35 -30 24 0 17 20 -22 58 l-42 41 -37 -44z m3 -28 c-13 -12
-20 -15 -16 -7 14 26 28 41 33 35 3 -3 -5 -16 -17 -28z"/>
<path d="M360 289 c0 -5 5 -7 10 -4 6 3 10 8 10 11 0 2 -4 4 -10 4 -5 0 -10
-5 -10 -11z"/>
<path d="M136 198 c3 -4 11 -5 19 -1 21 7 19 12 -4 10 -11 0 -18 -5 -15 -9z"/>
<path d="M180 200 c0 -5 5 -10 11 -10 5 0 7 5 4 10 -3 6 -8 10 -11 10 -2 0 -4
-4 -4 -10z"/>
<path d="M450 205 c0 -7 30 -13 34 -7 3 4 -4 9 -15 9 -10 1 -19 0 -19 -2z"/>
<path d="M103 163 c9 -2 25 -2 35 0 9 3 1 5 -18 5 -19 0 -27 -2 -17 -5z"/>
<path d="M513 163 c9 -2 23 -2 30 0 6 3 -1 5 -18 5 -16 0 -22 -2 -12 -5z"/>
<path d="M238 153 c12 -2 30 -2 40 0 9 3 -1 5 -23 4 -22 0 -30 -2 -17 -4z"/>
<path d="M363 153 c9 -2 25 -2 35 0 9 3 1 5 -18 5 -19 0 -27 -2 -17 -5z"/>
</g>
</svg>
