<svg width="31" height="38" viewBox="0 0 31 38" fill="none" xmlns="http://www.w3.org/2000/svg">
<path d="M26.77 0.01875L4.27002 0C3.27546 0 2.32163 0.395088 1.61837 1.09835C0.915108 1.80161 0.52002 2.75544 0.52002 3.75V33.75C0.52002 35.8125 2.20752 37.5 4.27002 37.5H26.77C28.8325 37.5 30.52 35.8125 30.52 33.75V3.75C30.52 1.66875 28.8325 0.01875 26.77 0.01875ZM24.895 33.75H6.14502C5.11377 33.75 4.27002 32.9063 4.27002 31.875V18.7125C4.27002 17.6813 5.11377 16.8375 6.14502 16.8375H24.895C25.9263 16.8375 26.77 17.6813 26.77 18.7125V31.875C26.77 32.9063 25.9263 33.75 24.895 33.75ZM24.895 13.125H6.14502C5.11377 13.125 4.27002 12.2813 4.27002 11.25V5.625C4.27002 4.59375 5.11377 3.75 6.14502 3.75H24.895C25.9263 3.75 26.77 4.59375 26.77 5.625V11.25C26.77 12.2813 25.9263 13.125 24.895 13.125ZM9.89502 5.625C10.9263 5.625 11.77 6.46875 11.77 7.5V9.375C11.77 10.4063 10.9263 11.25 9.89502 11.25C8.86377 11.25 8.02002 10.4063 8.02002 9.375V7.5C8.02002 6.46875 8.86377 5.625 9.89502 5.625ZM9.89502 18.75C10.9263 18.75 11.77 19.5938 11.77 20.625V26.25C11.77 27.2813 10.9263 28.125 9.89502 28.125C8.86377 28.125 8.02002 27.2813 8.02002 26.25V20.625C8.02002 19.5938 8.86377 18.75 9.89502 18.75Z" fill="white"/>
</svg>
