<svg width="220" height="32" viewBox="0 0 220 32" fill="none" xmlns="http://www.w3.org/2000/svg">
<g clip-path="url(#clip0_83_347)">
<g clip-path="url(#clip1_83_347)">
<g clip-path="url(#clip2_83_347)">
<g clip-path="url(#clip3_83_347)">
<g clip-path="url(#clip4_83_347)">
<g clip-path="url(#clip5_83_347)">
<g clip-path="url(#clip6_83_347)">
<g clip-path="url(#clip7_83_347)">
<path d="M6.70993 5.0254V12.5349C6.70993 13.1902 6.62936 13.7811 6.46821 14.3075C6.30706 14.8339 6.06642 15.2819 5.74627 15.6515C5.42827 16.0232 5.0297 16.3079 4.55055 16.5056C4.07355 16.7054 3.51813 16.8053 2.88428 16.8053C2.59421 16.8053 2.30952 16.7881 2.0302 16.7538C1.75087 16.7194 1.45758 16.6635 1.15033 16.5862L1.26313 15.297C1.27388 15.1788 1.31792 15.0843 1.39527 15.0134C1.47477 14.9403 1.58973 14.9038 1.74013 14.9038C1.83037 14.9038 1.94962 14.922 2.09788 14.9586C2.24614 14.9972 2.43307 15.0166 2.65867 15.0166C2.96378 15.0166 3.23451 14.9725 3.47086 14.8844C3.70721 14.7942 3.90488 14.6524 4.06388 14.459C4.22288 14.2656 4.34213 14.0153 4.42163 13.7081C4.50328 13.3987 4.5441 13.0237 4.5441 12.5832V5.0254H6.70993ZM13.7521 5.0254V12.5349C13.7521 13.1902 13.6715 13.7811 13.5104 14.3075C13.3492 14.8339 13.1086 15.2819 12.7884 15.6515C12.4683 16.0232 12.0697 16.3079 11.5927 16.5056C11.1136 16.7054 10.5571 16.8053 9.92322 16.8053C9.63315 16.8053 9.34846 16.7881 9.06914 16.7538C8.78981 16.7194 8.4976 16.6635 8.19249 16.5862L8.3053 15.297C8.31604 15.1788 8.36009 15.0843 8.43744 15.0134C8.51479 14.9403 8.62867 14.9038 8.77907 14.9038C8.87146 14.9038 8.99071 14.922 9.13682 14.9586C9.28508 14.9972 9.47201 15.0166 9.69761 15.0166C10.0049 15.0166 10.2767 14.9725 10.513 14.8844C10.7494 14.7942 10.947 14.6524 11.106 14.459C11.2629 14.2656 11.3821 14.0153 11.4638 13.7081C11.5433 13.3987 11.583 13.0237 11.583 12.5832V5.0254H13.7521ZM19.9724 12.5736H18.3448V16.6764H16.1758V5.0254H19.9724C20.7502 5.0254 21.4238 5.11672 21.9932 5.29935C22.5626 5.48199 23.0331 5.7366 23.4049 6.0632C23.7744 6.39194 24.0484 6.78406 24.2267 7.23958C24.4029 7.69724 24.491 8.19679 24.491 8.73825C24.491 9.30334 24.3975 9.82117 24.2106 10.2917C24.0215 10.7601 23.739 11.1641 23.363 11.5036C22.9869 11.8409 22.5175 12.1041 21.9545 12.2932C21.3894 12.4801 20.7287 12.5736 19.9724 12.5736ZM18.3448 6.70134V10.8815H19.9724C20.3699 10.8815 20.7158 10.8321 21.0102 10.7333C21.3067 10.6344 21.5517 10.4926 21.745 10.3078C21.9384 10.1209 22.0834 9.89529 22.1801 9.63101C22.2768 9.36458 22.3252 9.06699 22.3252 8.73825C22.3252 8.4267 22.2768 8.14523 22.1801 7.89384C22.0834 7.6403 21.9384 7.42543 21.745 7.24924C21.5517 7.07091 21.3067 6.93554 21.0102 6.84315C20.7158 6.74861 20.3699 6.70134 19.9724 6.70134H18.3448ZM37.2926 13.9272C37.4108 13.9272 37.5128 13.9734 37.5988 14.0658L38.4529 14.9908C37.9801 15.5774 37.3989 16.0264 36.7092 16.338C36.0195 16.6495 35.1912 16.8053 34.2243 16.8053C33.3584 16.8053 32.5806 16.6571 31.8909 16.3606C31.2012 16.0662 30.6114 15.6558 30.1215 15.1294C29.6338 14.603 29.2588 13.9745 28.9967 13.2439C28.7367 12.5134 28.6067 11.7163 28.6067 10.8525C28.6067 9.97587 28.7517 9.17335 29.0418 8.44496C29.3319 7.71657 29.7401 7.08917 30.2665 6.56275C30.793 6.03634 31.4225 5.62702 32.1552 5.33481C32.89 5.04259 33.7001 4.89648 34.5853 4.89648C35.4512 4.89648 36.2075 5.03507 36.8543 5.31225C37.501 5.58727 38.0554 5.95361 38.5173 6.41127L37.7921 7.41684C37.7492 7.4813 37.6944 7.53824 37.6278 7.58765C37.5612 7.63492 37.4688 7.65856 37.3506 7.65856C37.226 7.65856 37.0992 7.61022 36.9703 7.51353C36.8414 7.41684 36.6781 7.31263 36.4804 7.2009C36.2806 7.08702 36.0292 6.98174 35.7262 6.88505C35.4233 6.78836 35.0376 6.74002 34.5692 6.74002C34.0213 6.74002 33.5174 6.83563 33.0576 7.02686C32.6 7.21809 32.2057 7.49097 31.8748 7.84549C31.5439 8.20002 31.2861 8.63082 31.1013 9.1379C30.9165 9.64498 30.8241 10.2165 30.8241 10.8525C30.8241 11.5057 30.9165 12.088 31.1013 12.5994C31.2861 13.1086 31.5375 13.5383 31.8555 13.8885C32.1713 14.2366 32.5441 14.5041 32.9738 14.6911C33.4035 14.8758 33.8655 14.9682 34.3597 14.9682C34.6562 14.9682 34.9237 14.9521 35.1622 14.9199C35.4007 14.8877 35.6209 14.8361 35.8229 14.7652C36.0249 14.6964 36.215 14.6073 36.3934 14.4977C36.5739 14.386 36.7533 14.2495 36.9316 14.0884C36.9853 14.0411 37.0412 14.0024 37.0992 13.9723C37.1594 13.9423 37.2238 13.9272 37.2926 13.9272ZM51.2641 10.8525C51.2641 11.7055 51.1212 12.4962 50.8355 13.2246C50.5518 13.9509 50.1522 14.5804 49.6365 15.1133C49.1208 15.644 48.4999 16.0587 47.7736 16.3573C47.0496 16.656 46.247 16.8053 45.3661 16.8053C44.4852 16.8053 43.6805 16.656 42.9521 16.3573C42.2237 16.0587 41.6006 15.644 41.0828 15.1133C40.565 14.5804 40.1632 13.9509 39.8774 13.2246C39.5938 12.4962 39.452 11.7055 39.452 10.8525C39.452 9.99735 39.5938 9.20558 39.8774 8.47719C40.1632 7.7488 40.565 7.11925 41.0828 6.58854C41.6006 6.05782 42.2237 5.64314 42.9521 5.34448C43.6805 5.04581 44.4852 4.89648 45.3661 4.89648C46.247 4.89648 47.0496 5.04689 47.7736 5.3477C48.4999 5.64851 49.1208 6.0632 49.6365 6.59176C50.1522 7.12033 50.5518 7.7488 50.8355 8.47719C51.1212 9.20558 51.2641 9.99735 51.2641 10.8525ZM49.0403 10.8525C49.0403 10.2122 48.9554 9.63853 48.7857 9.13145C48.6159 8.62223 48.3731 8.19035 48.0573 7.83582C47.7393 7.4813 47.3536 7.21057 46.9002 7.02364C46.4469 6.83456 45.9355 6.74002 45.3661 6.74002C44.7967 6.74002 44.2832 6.83456 43.8255 7.02364C43.37 7.21057 42.9822 7.4813 42.662 7.83582C42.3419 8.19035 42.0959 8.62223 41.924 9.13145C41.7521 9.63853 41.6661 10.2122 41.6661 10.8525C41.6661 11.4907 41.7521 12.0633 41.924 12.5704C42.0959 13.0774 42.3419 13.5072 42.662 13.8595C42.9822 14.2119 43.37 14.4816 43.8255 14.6685C44.2832 14.8576 44.7967 14.9521 45.3661 14.9521C45.9355 14.9521 46.4469 14.8576 46.9002 14.6685C47.3536 14.4816 47.7393 14.2119 48.0573 13.8595C48.3731 13.5072 48.6159 13.0774 48.7857 12.5704C48.9554 12.0633 49.0403 11.4907 49.0403 10.8525ZM54.1068 5.0254C54.2034 5.0254 54.284 5.0297 54.3485 5.03829C54.4129 5.04474 54.471 5.06086 54.5225 5.08664C54.5719 5.11027 54.6214 5.14465 54.6708 5.18977C54.7202 5.2349 54.7739 5.29506 54.8319 5.37026L60.9491 13.1634C60.9276 12.9743 60.9126 12.7906 60.904 12.6122C60.8954 12.4318 60.8911 12.2631 60.8911 12.1062V5.0254H62.8023V16.6764H61.6807C61.5088 16.6764 61.367 16.6495 61.2553 16.5958C61.1414 16.5421 61.0307 16.4454 60.9233 16.3058L54.8319 8.54487C54.8491 8.71677 54.8609 8.88758 54.8674 9.05732C54.876 9.22707 54.8803 9.38177 54.8803 9.52143V16.6764H52.9723V5.0254H54.1068ZM71.9297 6.12121L71.3979 7.14289C71.3378 7.26106 71.269 7.34486 71.1917 7.39428C71.1143 7.44155 71.0219 7.46518 70.9145 7.46518C70.8071 7.46518 70.6857 7.42436 70.5503 7.34271C70.4171 7.25891 70.2591 7.16545 70.0765 7.06231C69.8939 6.96133 69.6801 6.86894 69.4352 6.78514C69.1902 6.70134 68.9012 6.65944 68.5682 6.65944C68.2674 6.65944 68.0063 6.69597 67.785 6.76902C67.5615 6.84208 67.3735 6.94306 67.221 7.07198C67.0663 7.2009 66.9513 7.3556 66.8761 7.53609C66.8009 7.71442 66.7633 7.91103 66.7633 8.12589C66.7633 8.40092 66.8407 8.62975 66.9954 8.81238C67.1479 8.99501 67.3499 9.15079 67.6013 9.27971C67.8548 9.40863 68.1427 9.52358 68.465 9.62457C68.7873 9.7277 69.1161 9.83728 69.4513 9.95331C69.7864 10.0672 70.1152 10.2015 70.4375 10.3562C70.7598 10.5087 71.0477 10.7021 71.3012 10.9363C71.5526 11.1684 71.7557 11.4541 71.9104 11.7936C72.0629 12.131 72.1392 12.5413 72.1392 13.0248C72.1392 13.5512 72.049 14.0443 71.8685 14.5041C71.688 14.9639 71.4248 15.3647 71.0788 15.7063C70.7329 16.0458 70.3096 16.3144 69.809 16.512C69.3105 16.7076 68.739 16.8053 68.0944 16.8053C67.7227 16.8053 67.3574 16.7688 66.9986 16.6957C66.6376 16.6227 66.2928 16.5195 65.964 16.3863C65.6331 16.251 65.3237 16.0898 65.0358 15.9029C64.7479 15.7138 64.4911 15.5043 64.2655 15.2744L64.894 14.2334C64.9542 14.1582 65.0261 14.0959 65.1099 14.0465C65.1916 13.9949 65.284 13.9691 65.3871 13.9691C65.5203 13.9691 65.6654 14.0239 65.8222 14.1335C65.9769 14.2431 66.1606 14.3655 66.3733 14.5009C66.5861 14.6341 66.8364 14.7566 67.1243 14.8683C67.41 14.9779 67.7549 15.0327 68.1589 15.0327C68.7755 15.0327 69.2536 14.8866 69.5931 14.5944C69.9304 14.3 70.0991 13.8789 70.0991 13.331C70.0991 13.0259 70.0228 12.7766 69.8702 12.5832C69.7177 12.3899 69.5146 12.2276 69.2611 12.0966C69.0097 11.9634 68.7229 11.8516 68.4006 11.7614C68.0783 11.669 67.7506 11.5691 67.4176 11.4617C67.0845 11.3542 66.7569 11.2253 66.4346 11.0749C66.1123 10.9266 65.8244 10.7311 65.5708 10.4883C65.3194 10.2455 65.1175 9.94364 64.9649 9.58267C64.8102 9.21955 64.7328 8.77156 64.7328 8.23869C64.7328 7.81541 64.8177 7.4018 64.9875 6.99785C65.1572 6.59606 65.4043 6.23938 65.7287 5.92783C66.0532 5.61628 66.4518 5.36596 66.9245 5.17688C67.3972 4.98995 67.9375 4.89648 68.5456 4.89648C69.2332 4.89648 69.867 5.00392 70.4472 5.21878C71.0273 5.43364 71.5215 5.73445 71.9297 6.12121ZM72.816 5.0254H82.0079V6.80448H78.5046V16.6764H76.3355V6.80448H72.816V5.0254ZM86.5523 12.1224H85.6241V16.6764H83.4582V5.0254H87.0099C87.8049 5.0254 88.486 5.10705 89.0533 5.27035C89.6205 5.43364 90.0857 5.66355 90.4488 5.96006C90.8098 6.25442 91.0751 6.60788 91.2449 7.02041C91.4146 7.4308 91.4995 7.88309 91.4995 8.37728C91.4995 8.76833 91.4415 9.13897 91.3255 9.4892C91.2094 9.83728 91.0429 10.1542 90.8259 10.44C90.6089 10.7236 90.3403 10.9728 90.0202 11.1877C89.7 11.4026 89.3358 11.5745 88.9276 11.7034C89.2026 11.8602 89.439 12.0837 89.6366 12.3737L92.5534 16.6764H90.6035C90.4166 16.6764 90.2576 16.6388 90.1265 16.5636C89.9933 16.4884 89.8816 16.381 89.7913 16.2413L87.3419 12.5091C87.2495 12.3695 87.1485 12.2706 87.0389 12.2126C86.9294 12.1524 86.7671 12.1224 86.5523 12.1224ZM85.6241 6.70134V10.5689H86.9777C87.3859 10.5689 87.7426 10.5173 88.0477 10.4142C88.3507 10.3132 88.5999 10.1725 88.7955 9.99198C88.991 9.8115 89.1371 9.59771 89.2338 9.35061C89.3305 9.10352 89.3788 8.83279 89.3788 8.53843C89.3788 7.94755 89.1844 7.49312 88.7955 7.17512C88.4065 6.85927 87.8114 6.70134 87.0099 6.70134H85.6241ZM98.2194 14.9263C98.6384 14.9263 99.0122 14.8565 99.341 14.7168C99.6719 14.5772 99.9512 14.3817 100.179 14.1303C100.409 13.8767 100.584 13.5705 100.704 13.2117C100.825 12.8507 100.885 12.4479 100.885 12.0031V5.0254H103.054V12.0031C103.054 12.695 102.942 13.3353 102.719 13.924C102.495 14.5127 102.174 15.0209 101.755 15.4485C101.336 15.8739 100.829 16.2069 100.234 16.4476C99.6364 16.6861 98.965 16.8053 98.2194 16.8053C97.4717 16.8053 96.8002 16.6861 96.205 16.4476C95.6077 16.2069 95.1006 15.8739 94.6838 15.4485C94.2691 15.0209 93.95 14.5127 93.7266 13.924C93.5031 13.3353 93.3914 12.695 93.3914 12.0031V5.0254H95.5604V11.9934C95.5604 12.4404 95.6206 12.8432 95.7409 13.2021C95.8613 13.563 96.0342 13.8714 96.2598 14.127C96.4854 14.3806 96.7637 14.5772 97.0946 14.7168C97.4255 14.8565 97.8004 14.9263 98.2194 14.9263ZM113.267 13.9272C113.386 13.9272 113.488 13.9734 113.574 14.0658L114.428 14.9908C113.955 15.5774 113.374 16.0264 112.684 16.338C111.994 16.6495 111.166 16.8053 110.199 16.8053C109.333 16.8053 108.555 16.6571 107.866 16.3606C107.176 16.0662 106.586 15.6558 106.096 15.1294C105.609 14.603 105.235 13.9745 104.975 13.2439C104.713 12.5134 104.581 11.7163 104.581 10.8525C104.581 9.97587 104.727 9.17335 105.017 8.44496C105.307 7.71657 105.715 7.08917 106.241 6.56275C106.768 6.03634 107.398 5.62702 108.133 5.33481C108.866 5.04259 109.675 4.89648 110.56 4.89648C111.426 4.89648 112.182 5.03507 112.829 5.31225C113.476 5.58727 114.03 5.95361 114.492 6.41127L113.767 7.41684C113.724 7.4813 113.669 7.53824 113.603 7.58765C113.536 7.63492 113.444 7.65856 113.325 7.65856C113.201 7.65856 113.074 7.61022 112.945 7.51353C112.816 7.41684 112.653 7.31263 112.455 7.2009C112.255 7.08702 112.004 6.98174 111.701 6.88505C111.398 6.78836 111.012 6.74002 110.544 6.74002C109.996 6.74002 109.493 6.83563 109.036 7.02686C108.576 7.21809 108.18 7.49097 107.85 7.84549C107.519 8.20002 107.261 8.63082 107.076 9.1379C106.891 9.64498 106.799 10.2165 106.799 10.8525C106.799 11.5057 106.891 12.088 107.076 12.5994C107.261 13.1086 107.512 13.5383 107.83 13.8885C108.146 14.2366 108.519 14.5041 108.949 14.6911C109.378 14.8758 109.84 14.9682 110.334 14.9682C110.631 14.9682 110.898 14.9521 111.137 14.9199C111.375 14.8877 111.596 14.8361 111.798 14.7652C112 14.6964 112.191 14.6073 112.371 14.4977C112.55 14.386 112.728 14.2495 112.906 14.0884C112.96 14.0411 113.016 14.0024 113.074 13.9723C113.134 13.9423 113.199 13.9272 113.267 13.9272ZM115.082 5.0254H124.274V6.80448H120.77V16.6764H118.601V6.80448H115.082V5.0254ZM128.093 5.0254V16.6764H125.917V5.0254H128.093ZM141.887 10.8525C141.887 11.7055 141.744 12.4962 141.459 13.2246C141.175 13.9509 140.774 14.5804 140.256 15.1133C139.743 15.644 139.123 16.0587 138.397 16.3573C137.673 16.656 136.869 16.8053 135.986 16.8053C135.107 16.8053 134.304 16.656 133.575 16.3573C132.847 16.0587 132.224 15.644 131.706 15.1133C131.188 14.5804 130.786 13.9509 130.501 13.2246C130.217 12.4962 130.075 11.7055 130.075 10.8525C130.075 9.99735 130.217 9.20558 130.501 8.47719C130.786 7.7488 131.188 7.11925 131.706 6.58854C132.224 6.05782 132.847 5.64314 133.575 5.34448C134.304 5.04581 135.107 4.89648 135.986 4.89648C136.869 4.89648 137.673 5.04689 138.397 5.3477C139.123 5.64851 139.743 6.0632 140.256 6.59176C140.774 7.12033 141.175 7.7488 141.459 8.47719C141.744 9.20558 141.887 9.99735 141.887 10.8525ZM139.663 10.8525C139.663 10.2122 139.579 9.63853 139.409 9.13145C139.239 8.62223 138.996 8.19035 138.68 7.83582C138.362 7.4813 137.977 7.21057 137.523 7.02364C137.07 6.83456 136.558 6.74002 135.986 6.74002C135.419 6.74002 134.906 6.83456 134.449 7.02364C133.993 7.21057 133.605 7.4813 133.285 7.83582C132.965 8.19035 132.719 8.62223 132.547 9.13145C132.375 9.63853 132.289 10.2122 132.289 10.8525C132.289 11.4907 132.375 12.0633 132.547 12.5704C132.719 13.0774 132.965 13.5072 133.285 13.8595C133.605 14.2119 133.993 14.4816 134.449 14.6685C134.906 14.8576 135.419 14.9521 135.986 14.9521C136.558 14.9521 137.07 14.8576 137.523 14.6685C137.977 14.4816 138.362 14.2119 138.68 13.8595C138.996 13.5072 139.239 13.0774 139.409 12.5704C139.579 12.0633 139.663 11.4907 139.663 10.8525ZM144.73 5.0254C144.827 5.0254 144.907 5.0297 144.972 5.03829C145.036 5.04474 145.094 5.06086 145.146 5.08664C145.195 5.11027 145.244 5.14465 145.294 5.18977C145.341 5.2349 145.395 5.29506 145.455 5.37026L151.569 13.1634C151.548 12.9743 151.534 12.7906 151.527 12.6122C151.519 12.4318 151.514 12.2631 151.514 12.1062V5.0254H153.422V16.6764H152.304C152.132 16.6764 151.989 16.6495 151.875 16.5958C151.763 16.5421 151.654 16.4454 151.546 16.3058L145.455 8.54487C145.47 8.71677 145.482 8.88758 145.491 9.05732C145.499 9.22707 145.503 9.38177 145.503 9.52143V16.6764H143.592V5.0254H144.73ZM161.325 5.0254V16.6764H159.149V5.0254H161.325ZM165.08 5.0254C165.176 5.0254 165.257 5.0297 165.321 5.03829C165.386 5.04474 165.444 5.06086 165.495 5.08664C165.547 5.11027 165.596 5.14465 165.644 5.18977C165.693 5.2349 165.747 5.29506 165.805 5.37026L171.922 13.1634C171.9 12.9743 171.885 12.7906 171.877 12.6122C171.868 12.4318 171.864 12.2631 171.864 12.1062V5.0254H173.775V16.6764H172.654C172.482 16.6764 172.339 16.6495 172.225 16.5958C172.113 16.5421 172.004 16.4454 171.896 16.3058L165.805 8.54487C165.822 8.71677 165.834 8.88758 165.84 9.05732C165.849 9.22707 165.853 9.38177 165.853 9.52143V16.6764H163.945V5.0254H165.08ZM184.134 13.9272C184.252 13.9272 184.354 13.9734 184.44 14.0658L185.294 14.9908C184.821 15.5774 184.24 16.0264 183.55 16.338C182.861 16.6495 182.032 16.8053 181.066 16.8053C180.2 16.8053 179.422 16.6571 178.732 16.3606C178.042 16.0662 177.453 15.6558 176.963 15.1294C176.475 14.603 176.101 13.9745 175.841 13.2439C175.579 12.5134 175.448 11.7163 175.448 10.8525C175.448 9.97587 175.593 9.17335 175.883 8.44496C176.173 7.71657 176.581 7.08917 177.108 6.56275C177.634 6.03634 178.264 5.62702 178.996 5.33481C179.731 5.04259 180.541 4.89648 181.426 4.89648C182.292 4.89648 183.049 5.03507 183.695 5.31225C184.342 5.58727 184.897 5.95361 185.359 6.41127L184.633 7.41684C184.59 7.4813 184.536 7.53824 184.469 7.58765C184.402 7.63492 184.31 7.65856 184.192 7.65856C184.067 7.65856 183.94 7.61022 183.811 7.51353C183.683 7.41684 183.519 7.31263 183.322 7.2009C183.122 7.08702 182.87 6.98174 182.567 6.88505C182.264 6.78836 181.879 6.74002 181.41 6.74002C180.862 6.74002 180.359 6.83563 179.899 7.02686C179.441 7.21809 179.047 7.49097 178.716 7.84549C178.385 8.20002 178.127 8.63082 177.942 9.1379C177.758 9.64498 177.665 10.2165 177.665 10.8525C177.665 11.5057 177.758 12.088 177.942 12.5994C178.127 13.1086 178.379 13.5383 178.697 13.8885C179.012 14.2366 179.385 14.5041 179.815 14.6911C180.245 14.8758 180.707 14.9682 181.201 14.9682C181.497 14.9682 181.765 14.9521 182.003 14.9199C182.242 14.8877 182.462 14.8361 182.664 14.7652C182.866 14.6964 183.056 14.6073 183.235 14.4977C183.415 14.386 183.594 14.2495 183.773 14.0884C183.827 14.0411 183.882 14.0024 183.94 13.9723C184.001 13.9423 184.065 13.9272 184.134 13.9272Z" fill="#7065F0"/>
</g>
</g>
<g clip-path="url(#clip8_83_347)">
<g clip-path="url(#clip9_83_347)">
<path d="M109.648 19.9396H110.664V26.8529H109.781V20.5663C109.781 20.56 109.77 20.5094 109.747 20.4144C109.725 20.3194 109.705 20.2213 109.686 20.12C109.667 20.0187 109.654 19.9586 109.648 19.9396ZM112.791 20.7847H113.371C113.326 21 113.286 21.2228 113.251 21.4533C113.217 21.685 113.193 21.9116 113.181 22.1332H114.415L114.254 22.7315H113.181V25.7513C113.181 25.8716 113.195 25.9773 113.223 26.0685C113.252 26.1609 113.302 26.2306 113.374 26.2774C113.448 26.3255 113.551 26.3496 113.684 26.3496C113.785 26.3496 113.887 26.3401 113.988 26.3211C114.089 26.3021 114.187 26.28 114.282 26.2546L114.415 26.7864C114.257 26.8307 114.106 26.8706 113.963 26.9061C113.821 26.9403 113.659 26.9574 113.475 26.9574C113.07 26.9574 112.788 26.8497 112.63 26.6345C112.472 26.4192 112.393 26.1185 112.393 25.7323V22.7315H111.69V22.2567C111.943 22.2503 112.143 22.1661 112.288 22.0041C112.434 21.8433 112.545 21.6489 112.62 21.421C112.696 21.1931 112.753 20.981 112.791 20.7847ZM115.809 22.627H115.536C115.528 22.608 115.512 22.5416 115.488 22.4276C115.463 22.3137 115.435 22.1883 115.403 22.0516C115.371 21.9161 115.343 21.7977 115.317 21.6964C115.292 21.5951 115.279 21.5413 115.279 21.535V19.8446H116.077V21.535L115.809 22.627ZM118.687 22.0193C118.902 22.0193 119.116 22.0459 119.329 22.099C119.54 22.1535 119.735 22.2377 119.912 22.3516L119.636 22.9594C119.497 22.8455 119.342 22.76 119.171 22.703C119 22.646 118.832 22.6175 118.668 22.6175C118.434 22.6175 118.23 22.6714 118.056 22.779C117.881 22.8866 117.794 23.048 117.794 23.2633C117.794 23.4975 117.872 23.6716 118.028 23.7856C118.182 23.8995 118.367 24.0072 118.582 24.1085C118.741 24.1844 118.901 24.2617 119.063 24.3402C119.224 24.4199 119.372 24.5149 119.509 24.6251C119.645 24.7365 119.755 24.8694 119.842 25.0239C119.926 25.1796 119.969 25.3715 119.969 25.5994C119.969 25.9159 119.892 26.1768 119.737 26.3819C119.581 26.5883 119.379 26.7389 119.129 26.8339C118.879 26.9289 118.608 26.9764 118.316 26.9764C118.063 26.9764 117.81 26.9415 117.557 26.8719C117.303 26.8023 117.069 26.7041 116.854 26.5775L117.186 25.9982C117.338 26.1122 117.509 26.204 117.699 26.2736C117.889 26.3433 118.073 26.3781 118.25 26.3781C118.49 26.3781 118.701 26.3211 118.882 26.2072C119.062 26.0932 119.152 25.9223 119.152 25.6944C119.152 25.5361 119.103 25.4044 119.006 25.2993C118.907 25.1955 118.782 25.1024 118.63 25.0201C118.478 24.9378 118.32 24.8587 118.155 24.7827C117.965 24.6877 117.78 24.5845 117.6 24.4731C117.419 24.363 117.272 24.2224 117.158 24.0515C117.044 23.8806 116.987 23.6621 116.987 23.3962C116.987 23.0924 117.068 22.8391 117.23 22.6365C117.391 22.4339 117.601 22.2801 117.861 22.175C118.12 22.0712 118.396 22.0193 118.687 22.0193ZM125.04 22.0193C125.54 22.0193 125.917 22.1554 126.17 22.4276C126.423 22.6998 126.55 23.0829 126.55 23.5767V25.9413C126.55 26.0742 126.575 26.1641 126.626 26.211C126.676 26.2591 126.736 26.2831 126.806 26.2831C126.863 26.2831 126.923 26.2749 126.987 26.2584C127.05 26.2432 127.11 26.223 127.167 26.1977L127.338 26.7105C127.237 26.7674 127.108 26.82 126.952 26.8681C126.798 26.9149 126.638 26.9384 126.474 26.9384C126.309 26.9384 126.16 26.8922 126.027 26.7997C125.894 26.7086 125.812 26.5395 125.781 26.2926C125.597 26.4889 125.382 26.6484 125.135 26.7712C124.888 26.8953 124.628 26.9574 124.356 26.9574C123.983 26.9574 123.672 26.8466 123.425 26.625C123.179 26.4034 123.055 26.0995 123.055 25.7133C123.055 25.3525 123.142 25.0644 123.315 24.8492C123.49 24.6339 123.717 24.4725 123.995 24.3649C124.274 24.2572 124.569 24.1844 124.882 24.1464C125.196 24.1085 125.489 24.0895 125.762 24.0895V23.5862C125.762 23.3203 125.708 23.0955 125.6 22.9119C125.492 22.7283 125.284 22.6365 124.973 22.6365C124.733 22.6365 124.502 22.684 124.28 22.779C124.059 22.8739 123.837 23.0132 123.615 23.1968L123.226 22.6365C123.486 22.4276 123.77 22.2725 124.081 22.1712C124.391 22.0699 124.711 22.0193 125.04 22.0193ZM125.762 25.0106V24.7067C125.591 24.7067 125.397 24.7143 125.182 24.7295C124.967 24.746 124.758 24.784 124.555 24.8435C124.353 24.9043 124.186 25.0011 124.056 25.1341C123.927 25.267 123.862 25.4506 123.862 25.6849C123.862 25.8938 123.933 26.047 124.075 26.1445C124.218 26.2432 124.397 26.2926 124.612 26.2926C124.84 26.2926 125.04 26.2293 125.211 26.1027C125.382 25.9761 125.516 25.8146 125.613 25.6184C125.712 25.4221 125.762 25.2195 125.762 25.0106ZM128.003 19.6167H128.914V26.8529H128.126V20.1675L128.003 19.6167ZM130.384 19.6167H131.296V26.8529H130.508V20.1675L130.384 19.6167ZM136.035 20.5473C136.035 20.7056 135.979 20.8417 135.868 20.9557C135.757 21.0696 135.62 21.1266 135.455 21.1266C135.297 21.1266 135.162 21.0696 135.051 20.9557C134.941 20.8417 134.886 20.7056 134.886 20.5473C134.886 20.3891 134.941 20.253 135.051 20.139C135.162 20.025 135.297 19.9681 135.455 19.9681C135.614 19.9681 135.75 20.025 135.864 20.139C135.978 20.253 136.035 20.3891 136.035 20.5473ZM134.962 22.1332H135.864V26.8529H135.076V22.6935L134.962 22.1332ZM137.108 22.1712L137.972 22.0573C138.016 22.1649 138.054 22.2757 138.086 22.3896C138.118 22.5036 138.14 22.6175 138.152 22.7315C138.342 22.5416 138.567 22.3751 138.827 22.232C139.086 22.0902 139.352 22.0193 139.624 22.0193C139.972 22.0193 140.252 22.0921 140.464 22.2377C140.676 22.3833 140.83 22.5808 140.925 22.8303C141.02 23.081 141.068 23.3709 141.068 23.7001V26.8529H140.289V23.9565C140.289 23.7603 140.274 23.5672 140.245 23.3772C140.217 23.1873 140.148 23.0303 140.036 22.9062C139.926 22.7834 139.745 22.722 139.491 22.722C139.339 22.722 139.184 22.7518 139.026 22.8113C138.868 22.872 138.719 22.9499 138.58 23.0449C138.44 23.1398 138.314 23.2411 138.2 23.3488V26.8529H137.421V23.5102C137.421 23.3836 137.412 23.2361 137.393 23.0677C137.374 22.9005 137.342 22.7359 137.298 22.5739C137.253 22.4131 137.19 22.2788 137.108 22.1712ZM145.33 20.7847H145.909C145.865 21 145.825 21.2228 145.791 21.4533C145.756 21.685 145.732 21.9116 145.719 22.1332H146.954L146.792 22.7315H145.719V25.7513C145.719 25.8716 145.734 25.9773 145.763 26.0685C145.791 26.1609 145.841 26.2306 145.915 26.2774C145.987 26.3255 146.089 26.3496 146.222 26.3496C146.324 26.3496 146.425 26.3401 146.526 26.3211C146.628 26.3021 146.726 26.28 146.821 26.2546L146.954 26.7864C146.795 26.8307 146.645 26.8706 146.503 26.9061C146.36 26.9403 146.197 26.9574 146.013 26.9574C145.608 26.9574 145.327 26.8497 145.168 26.6345C145.01 26.4192 144.931 26.1185 144.931 25.7323V22.7315H144.228V22.2567C144.481 22.2503 144.681 22.1661 144.826 22.0041C144.972 21.8433 145.083 21.6489 145.159 21.421C145.235 21.1931 145.292 20.981 145.33 20.7847ZM147.799 19.6167H148.701V22.6935C148.903 22.5036 149.122 22.3421 149.356 22.2092C149.59 22.0762 149.85 22.0098 150.135 22.0098C150.483 22.0098 150.762 22.0826 150.97 22.2282C151.179 22.3738 151.331 22.5713 151.426 22.8208C151.521 23.0715 151.569 23.3614 151.569 23.6906V26.8529H150.79V23.947C150.79 23.7508 150.776 23.5596 150.746 23.3734C150.719 23.1861 150.651 23.029 150.543 22.9024C150.436 22.7758 150.255 22.7125 150.002 22.7125C149.844 22.7125 149.687 22.7442 149.531 22.8075C149.376 22.8708 149.23 22.9499 149.09 23.0449C148.951 23.1398 148.821 23.238 148.701 23.3393V26.8529H147.922V20.177L147.799 19.6167ZM154.902 22.0193C155.282 22.0193 155.602 22.0965 155.861 22.251C156.121 22.4067 156.315 22.622 156.444 22.8967C156.575 23.1728 156.64 23.4944 156.64 23.8616C156.64 23.9502 156.635 24.0401 156.625 24.1313C156.616 24.2237 156.605 24.3205 156.592 24.4218H153.591C153.591 25.0233 153.724 25.4886 153.99 25.8178C154.256 26.147 154.611 26.3116 155.054 26.3116C155.238 26.3116 155.429 26.2831 155.628 26.2261C155.828 26.1692 156.035 26.0837 156.25 25.9697L156.545 26.4446C156.323 26.6218 156.073 26.7548 155.795 26.8434C155.516 26.932 155.234 26.9764 154.949 26.9764C154.456 26.9764 154.045 26.8592 153.719 26.625C153.393 26.3907 153.151 26.0869 152.993 25.7133C152.835 25.3398 152.756 24.9505 152.756 24.5453C152.756 24.2288 152.8 23.9217 152.889 23.6242C152.977 23.3266 153.112 23.0556 153.291 22.8113C153.472 22.5682 153.696 22.3751 153.962 22.232C154.228 22.0902 154.541 22.0193 154.902 22.0193ZM154.826 22.6175C154.611 22.6175 154.421 22.6777 154.256 22.798C154.092 22.9183 153.959 23.0715 153.857 23.2576C153.756 23.445 153.686 23.6368 153.648 23.8331H155.814C155.82 23.5672 155.783 23.3437 155.703 23.1626C155.625 22.9828 155.511 22.8467 155.362 22.7543C155.213 22.6631 155.035 22.6175 154.826 22.6175ZM161.747 22.0288C161.962 22.0288 162.177 22.0636 162.393 22.1332C162.608 22.2029 162.795 22.3105 162.953 22.4561C162.947 22.3675 162.942 22.2801 162.94 22.194C162.936 22.1092 162.934 22.0256 162.934 21.9433V20.177L162.801 19.6167H163.713V25.4949C163.713 25.6279 163.722 25.7767 163.741 25.9413C163.76 26.1059 163.792 26.266 163.836 26.4218C163.88 26.5762 163.937 26.7136 164.007 26.8339L163.171 26.9384C163.127 26.8307 163.089 26.7231 163.057 26.6155C163.026 26.5079 163.004 26.4002 162.991 26.2926C162.826 26.5079 162.621 26.6756 162.374 26.7959C162.127 26.9162 161.867 26.9764 161.595 26.9764C161.266 26.9764 160.978 26.9067 160.731 26.7674C160.484 26.6282 160.279 26.4395 160.117 26.2015C159.957 25.9647 159.837 25.7019 159.758 25.4133C159.679 25.1258 159.639 24.8334 159.639 24.5358C159.639 24.1053 159.717 23.6982 159.872 23.3146C160.027 22.9322 160.259 22.622 160.569 22.3839C160.88 22.1472 161.272 22.0288 161.747 22.0288ZM161.766 22.6745C161.519 22.6745 161.312 22.7283 161.145 22.836C160.976 22.9436 160.844 23.086 160.746 23.2633C160.647 23.4406 160.578 23.6349 160.537 23.8464C160.495 24.0591 160.474 24.2699 160.474 24.4788C160.474 24.6941 160.498 24.9074 160.545 25.1189C160.593 25.3316 160.669 25.5266 160.775 25.7038C160.878 25.8811 161.018 26.0217 161.192 26.1255C161.366 26.2306 161.579 26.2831 161.832 26.2831C162.054 26.2831 162.258 26.2179 162.444 26.0875C162.631 25.9583 162.795 25.8146 162.934 25.6564V24.061C162.934 23.8077 162.895 23.5767 162.816 23.3677C162.736 23.1588 162.611 22.9911 162.44 22.8644C162.269 22.7378 162.044 22.6745 161.766 22.6745ZM167.074 22.0193C167.454 22.0193 167.774 22.0965 168.034 22.251C168.293 22.4067 168.487 22.622 168.617 22.8967C168.747 23.1728 168.812 23.4944 168.812 23.8616C168.812 23.9502 168.807 24.0401 168.797 24.1313C168.788 24.2237 168.777 24.3205 168.765 24.4218H165.764C165.764 25.0233 165.897 25.4886 166.163 25.8178C166.429 26.147 166.783 26.3116 167.226 26.3116C167.41 26.3116 167.601 26.2831 167.8 26.2261C168 26.1692 168.208 26.0837 168.423 25.9697L168.717 26.4446C168.496 26.6218 168.246 26.7548 167.967 26.8434C167.688 26.932 167.407 26.9764 167.122 26.9764C166.628 26.9764 166.218 26.8592 165.891 26.625C165.566 26.3907 165.324 26.0869 165.166 25.7133C165.007 25.3398 164.928 24.9505 164.928 24.5453C164.928 24.2288 164.973 23.9217 165.061 23.6242C165.15 23.3266 165.284 23.0556 165.464 22.8113C165.645 22.5682 165.868 22.3751 166.134 22.232C166.4 22.0902 166.714 22.0193 167.074 22.0193ZM166.998 22.6175C166.783 22.6175 166.593 22.6777 166.429 22.798C166.264 22.9183 166.131 23.0715 166.03 23.2576C165.928 23.445 165.859 23.6368 165.821 23.8331H167.986C167.992 23.5672 167.956 23.3437 167.876 23.1626C167.797 22.9828 167.683 22.8467 167.534 22.7543C167.386 22.6631 167.207 22.6175 166.998 22.6175ZM170.491 20.7847H171.072C171.027 21 170.987 21.2228 170.953 21.4533C170.917 21.685 170.894 21.9116 170.882 22.1332H172.117L171.954 22.7315H170.882V25.7513C170.882 25.8716 170.896 25.9773 170.924 26.0685C170.952 26.1609 171.003 26.2306 171.076 26.2774C171.148 26.3255 171.251 26.3496 171.384 26.3496C171.485 26.3496 171.587 26.3401 171.69 26.3211C171.79 26.3021 171.887 26.28 171.982 26.2546L172.117 26.7864C171.959 26.8307 171.808 26.8706 171.665 26.9061C171.523 26.9403 171.36 26.9574 171.175 26.9574C170.77 26.9574 170.488 26.8497 170.33 26.6345C170.171 26.4192 170.092 26.1185 170.092 25.7323V22.7315H169.39V22.2567C169.643 22.2503 169.842 22.1661 169.988 22.0041C170.133 21.8433 170.244 21.6489 170.32 21.421C170.396 21.1931 170.453 20.981 170.491 20.7847ZM174.708 22.0193C175.208 22.0193 175.584 22.1554 175.838 22.4276C176.091 22.6998 176.217 23.0829 176.217 23.5767V25.9413C176.217 26.0742 176.243 26.1641 176.293 26.211C176.344 26.2591 176.404 26.2831 176.474 26.2831C176.531 26.2831 176.591 26.2749 176.654 26.2584C176.718 26.2432 176.778 26.223 176.835 26.1977L177.006 26.7105C176.904 26.7674 176.776 26.82 176.622 26.8681C176.466 26.9149 176.306 26.9384 176.141 26.9384C175.977 26.9384 175.828 26.8922 175.695 26.7997C175.562 26.7086 175.48 26.5395 175.448 26.2926C175.265 26.4889 175.049 26.6484 174.803 26.7712C174.556 26.8953 174.296 26.9574 174.024 26.9574C173.65 26.9574 173.34 26.8466 173.093 26.625C172.846 26.4034 172.723 26.0995 172.723 25.7133C172.723 25.3525 172.81 25.0644 172.985 24.8492C173.158 24.6339 173.384 24.4725 173.663 24.3649C173.942 24.2572 174.238 24.1844 174.552 24.1464C174.865 24.1085 175.157 24.0895 175.429 24.0895V23.5862C175.429 23.3203 175.375 23.0955 175.268 22.9119C175.16 22.7283 174.951 22.6365 174.641 22.6365C174.4 22.6365 174.169 22.684 173.948 22.779C173.726 22.8739 173.505 23.0132 173.283 23.1968L172.894 22.6365C173.153 22.4276 173.438 22.2725 173.748 22.1712C174.059 22.0699 174.378 22.0193 174.708 22.0193ZM175.429 25.0106V24.7067C175.258 24.7067 175.065 24.7143 174.85 24.7295C174.635 24.746 174.426 24.784 174.223 24.8435C174.021 24.9043 173.855 25.0011 173.726 25.1341C173.595 25.267 173.53 25.4506 173.53 25.6849C173.53 25.8938 173.602 26.047 173.745 26.1445C173.886 26.2432 174.065 26.2926 174.28 26.2926C174.508 26.2926 174.708 26.2293 174.878 26.1027C175.049 25.9761 175.184 25.8146 175.283 25.6184C175.381 25.4221 175.429 25.2195 175.429 25.0106ZM178.753 20.5473C178.753 20.7056 178.698 20.8417 178.588 20.9557C178.476 21.0696 178.338 21.1266 178.174 21.1266C178.015 21.1266 177.881 21.0696 177.769 20.9557C177.659 20.8417 177.604 20.7056 177.604 20.5473C177.604 20.3891 177.659 20.253 177.769 20.139C177.881 20.025 178.015 19.9681 178.174 19.9681C178.332 19.9681 178.468 20.025 178.582 20.139C178.696 20.253 178.753 20.3891 178.753 20.5473ZM177.68 22.1332H178.582V26.8529H177.794V22.6935L177.68 22.1332ZM180.054 19.6167H180.966V26.8529H180.177V20.1675L180.054 19.6167ZM184.08 22.0193C184.296 22.0193 184.509 22.0459 184.72 22.099C184.933 22.1535 185.128 22.2377 185.305 22.3516L185.03 22.9594C184.891 22.8455 184.736 22.76 184.565 22.703C184.394 22.646 184.226 22.6175 184.061 22.6175C183.827 22.6175 183.623 22.6714 183.448 22.779C183.275 22.8866 183.188 23.048 183.188 23.2633C183.188 23.4975 183.265 23.6716 183.419 23.7856C183.575 23.8995 183.761 24.0072 183.976 24.1085C184.134 24.1844 184.294 24.2617 184.455 24.3402C184.617 24.4199 184.765 24.5149 184.901 24.6251C185.038 24.7365 185.148 24.8694 185.233 25.0239C185.319 25.1796 185.362 25.3715 185.362 25.5994C185.362 25.9159 185.285 26.1768 185.129 26.3819C184.974 26.5883 184.772 26.7389 184.521 26.8339C184.272 26.9289 184.001 26.9764 183.71 26.9764C183.457 26.9764 183.204 26.9415 182.95 26.8719C182.697 26.8023 182.463 26.7041 182.248 26.5775L182.58 25.9982C182.732 26.1122 182.903 26.204 183.093 26.2736C183.283 26.3433 183.466 26.3781 183.644 26.3781C183.884 26.3781 184.094 26.3211 184.274 26.2072C184.455 26.0932 184.546 25.9223 184.546 25.6944C184.546 25.5361 184.496 25.4044 184.398 25.2993C184.3 25.1955 184.175 25.1024 184.023 25.0201C183.872 24.9378 183.713 24.8587 183.549 24.7827C183.359 24.6877 183.173 24.5845 182.992 24.4731C182.812 24.363 182.665 24.2224 182.552 24.0515C182.438 23.8806 182.381 23.6621 182.381 23.3962C182.381 23.0924 182.461 22.8391 182.622 22.6365C182.784 22.4339 182.995 22.2801 183.254 22.175C183.514 22.0712 183.789 22.0193 184.08 22.0193Z" fill="#7065F0"/>
</g>
</g>
</g>
</g>
<g clip-path="url(#clip10_83_347)">
<path d="M196.518 0.679199H188.178V31.1936H196.518V0.679199Z" fill="#7065F0"/>
<path d="M206.69 0.679199H198.349V31.1936H206.69V0.679199Z" fill="#7065F0" fill-opacity="0.75"/>
<path d="M216.861 0.679199H208.521V31.1936H216.861V0.679199Z" fill="#7065F0" fill-opacity="0.5"/>
</g>
</g>
</g>
</g>
</g>
<defs>
<clipPath id="clip0_83_347">
<rect width="220" height="31.3167" fill="white" transform="translate(0 0.341553)"/>
</clipPath>
<clipPath id="clip1_83_347">
<rect width="219.217" height="30.252" fill="white" transform="translate(0.308411 0.810303)"/>
</clipPath>
<clipPath id="clip2_83_347">
<rect width="217.55" height="30.5144" fill="white" transform="translate(1.14191 0.679199)"/>
</clipPath>
<clipPath id="clip3_83_347">
<rect width="217.55" height="30.5144" fill="white" transform="translate(1.14191 0.679199)"/>
</clipPath>
<clipPath id="clip4_83_347">
<rect width="184.224" height="22.0799" fill="white" transform="translate(1.14191 4.89648)"/>
</clipPath>
<clipPath id="clip5_83_347">
<rect width="184.224" height="22.0799" fill="white" transform="translate(1.14191 4.89648)"/>
</clipPath>
<clipPath id="clip6_83_347">
<rect width="184.224" height="11.9088" fill="white" transform="translate(1.14191 4.89648)"/>
</clipPath>
<clipPath id="clip7_83_347">
<rect width="184.224" height="11.9088" fill="white" transform="translate(1.14191 4.89648)"/>
</clipPath>
<clipPath id="clip8_83_347">
<rect width="75.7238" height="7.35966" fill="white" transform="translate(109.642 19.6167)"/>
</clipPath>
<clipPath id="clip9_83_347">
<rect width="75.7238" height="7.35966" fill="white" transform="translate(109.642 19.6167)"/>
</clipPath>
<clipPath id="clip10_83_347">
<rect width="30.5144" height="30.5144" fill="white" transform="translate(188.178 0.679199)"/>
</clipPath>
</defs>
</svg>
