<svg width="1040" height="530" viewBox="0 0 1040 530" fill="none" xmlns="http://www.w3.org/2000/svg">
<path d="M241.732 49.217C241.358 46.2638 240.603 43.3716 239.484 40.613C239.342 40.0913 239.092 39.6049 238.751 39.185C238.41 38.7651 237.986 38.4208 237.504 38.174C236.861 38.0068 236.187 37.9993 235.54 38.152L225.452 39.696C224.608 39.7346 223.8 40.0486 223.151 40.59C221.837 41.972 223.131 44.196 223.091 46.103C223.045 48.246 221.141 49.986 219.075 50.562C216.967 50.9877 214.792 50.9604 212.695 50.482L198.591 48.291C202.745 46.9646 206.442 44.497 209.261 41.17C211.117 38.971 212.105 34.866 209.422 33.824C208.625 33.6055 207.794 33.539 206.972 33.628C200.582 33.678 195.553 28.342 189.57 26.094C185.741 24.7487 181.585 24.6488 177.696 25.8083C173.806 26.9679 170.383 29.3276 167.916 32.55L175.43 32.912C176.137 32.8731 176.838 33.0601 177.431 33.446C179.078 34.799 177.031 37.398 177.263 39.516C177.564 42.269 181.219 42.856 183.973 43.135C186.727 43.414 190.223 45.651 188.898 48.083C175.052 52.852 160.961 38.759 146.419 40.494C142.739 40.934 139.264 42.379 135.67 43.288C113.72 48.842 91.0262 34.024 68.6022 37.162C63.6173 38.0118 58.7179 39.3039 53.9622 41.023C50.9102 42.025 47.7272 43.108 45.5092 45.433C43.2912 47.758 42.4482 51.731 44.5492 54.161C38.7589 54.6376 32.9299 54.0834 27.3332 52.524C28.8465 53.3653 30.1054 54.5985 30.9778 56.0941C31.8501 57.5897 32.3038 59.2926 32.2912 61.024C23.2505 62.4986 14.4493 65.1827 6.12421 69.004C7.67806 71.5876 9.49289 74.0049 11.5402 76.218L0.0952148 83.571C3.96221 84.545 5.96121 89.818 3.71221 93.111C7.72221 91.328 10.2062 86.713 14.4942 85.778C17.3032 85.165 20.1612 86.314 22.8252 87.393C25.4892 88.472 28.4182 89.519 31.1772 88.709C33.9362 87.899 35.9702 84.323 34.2172 82.044C46.0075 78.604 58.1925 76.7002 70.4702 76.38C71.4171 76.261 72.3775 76.4429 73.2152 76.9C74.8142 78.01 74.3932 80.405 74.3072 82.348C74.2212 84.291 75.7362 86.845 77.4722 85.969C75.4292 87.741 77.1762 91.077 79.1362 92.94C81.0962 94.803 83.4602 97.375 82.2592 99.798C81.9462 100.431 81.4152 100.938 81.1132 101.575C80.2232 103.46 81.6362 105.656 83.3032 106.907C84.9702 108.158 87.0092 109.033 88.1672 110.766C89.3252 112.499 88.7982 115.531 86.7292 115.773L80.8472 108.305C78.8374 110.389 77.4595 113 76.8732 115.835C83.1112 120.934 84.0492 131.313 78.8272 137.448C76.1582 140.583 72.3632 142.488 69.0512 144.934C65.7392 147.38 62.6742 150.862 62.6812 154.979C62.6962 162.092 62.1152 168.7 64.7812 175.295C69.6962 187.455 75.3707 199.295 81.7712 210.743C83.4512 213.749 85.6242 217.043 89.0292 217.561C84.7259 207.085 80.8522 196.446 77.4082 185.644C79.6512 185.653 82.2442 185.831 83.5582 187.648C84.6482 189.153 84.4142 191.2 84.7522 193.026C85.1827 194.796 85.9006 196.483 86.8772 198.021L107.427 234.625C109.13 237.66 111.084 240.917 114.339 242.146C116.421 242.932 118.829 242.784 120.745 243.915C122.247 244.801 123.258 246.375 124.789 247.21C129.119 249.572 135.138 245.043 139.183 247.862C140.34 248.669 141.076 249.949 142.142 250.872C145.878 254.108 152.007 251.943 156.32 254.357C159.1 255.913 160.54 259.024 162.023 261.843C165.737 268.905 171.747 275.823 179.706 276.386C182.206 276.563 184.76 276.089 187.204 276.645C189.648 277.201 192.054 279.334 191.661 281.809C190.989 286.053 193.086 290.701 192.522 294.96C191.497 302.72 180.49 306.13 179.545 313.9C179.338 315.6 179.662 317.357 179.257 319.022C178.76 321.062 177.227 322.724 176.683 324.752C175.651 328.597 178.405 332.422 181.431 335.009C184.457 337.596 188.065 339.825 189.72 343.446C191.468 347.272 190.61 351.734 191.178 355.903C192.419 365.003 200.279 371.75 208.368 376.1C210.833 377.425 213.479 378.708 215.075 381.007C217.157 384.008 216.949 387.964 217.645 391.55C219.347 400.331 226.74 407.567 226.95 416.51C227.099 422.866 223.566 428.632 221.455 434.63C219.476 440.376 218.76 446.481 219.356 452.529C219.951 458.577 221.844 464.425 224.905 469.675C226.485 472.341 228.373 474.855 229.49 477.745C231.483 482.902 230.836 488.765 232.674 493.98C235.104 500.875 241.78 506.57 241.141 513.852C244.171 520.146 250.864 523.238 257.594 525.112L269.656 528.469C271.966 529.112 274.379 529.76 276.73 529.295C279.081 528.83 281.326 526.876 281.266 524.48C275.351 523.146 269.246 521.727 264.371 518.123C259.496 514.519 256.155 508.1 258.005 502.326C258.862 499.649 260.687 496.556 258.952 494.344C257.959 493.078 256.142 492.747 255.022 491.591C253.274 489.788 253.875 486.76 255.132 484.586C256.389 482.412 258.204 480.47 258.71 478.011C258.966 476.635 258.796 475.214 258.221 473.938C257.646 472.662 256.695 471.593 255.495 470.873C257.732 470.029 259.766 468.723 261.465 467.042C263.035 465.249 263.76 462.485 262.525 460.447C266.192 460.912 270.522 461.14 272.93 458.334C274.852 456.094 274.72 452.744 273.96 449.892C273.2 447.04 271.917 444.268 271.877 441.316C280.338 441.717 288.816 441.429 297.23 440.456C296.013 436.359 293.249 432.896 289.522 430.803C293.332 430.158 296.804 425.596 298.008 421.923C299.212 418.25 298.905 414.251 298.161 410.459C297.875 409.482 297.836 408.45 298.047 407.455C298.476 406.088 299.819 405.253 301.062 404.539L319.976 393.677C321.105 393.112 322.128 392.356 323.001 391.444C324.983 389.116 324.689 385.602 323.674 382.719C322.659 379.836 321.034 377.123 320.644 374.091C319.474 365.024 329.181 358.518 332.457 349.982C333.742 346.632 334.004 342.992 334.253 339.412C334.52 335.568 334.54 331.102 331.589 328.625C328.759 326.251 324.339 326.78 321.377 324.571C318.663 322.546 317.727 318.613 314.761 316.977C312.068 315.492 308.691 316.437 305.696 315.738C300.423 314.508 297.104 308.43 291.718 307.867C288.679 307.55 285.24 309.035 282.749 307.265C280.555 305.705 280.467 302.572 280.049 299.912C279.317 295.779 277.336 291.969 274.372 288.996C271.409 286.023 267.605 284.029 263.474 283.284C260.341 282.781 256.931 282.972 254.265 281.25C251.566 279.507 250.329 276.243 248.209 273.828C244.792 269.937 239.41 268.554 234.369 267.369L213.863 262.549C210.223 261.693 205.531 261.239 203.578 264.428C203 265.642 202.59 266.929 202.361 268.254C201.629 270.651 200.156 272.754 198.154 274.261C196.152 275.768 193.723 276.602 191.217 276.642C189.499 273.711 186.714 271.557 183.445 270.629C181.365 270.049 179.14 269.985 177.157 269.133C176.077 268.606 175.116 267.864 174.333 266.952C173.55 266.041 172.961 264.979 172.602 263.832C172.243 262.685 172.122 261.477 172.247 260.281C172.371 259.086 172.738 257.929 173.325 256.88C174.507 254.775 174.964 252.339 174.624 249.949C174.284 247.559 173.167 245.347 171.445 243.655C167.959 240.525 162.915 239.768 158.238 240.081C157.014 237.409 159.061 234.394 161.268 232.452C163.475 230.51 166.154 228.602 166.635 225.702C167.39 221.14 161.57 217.675 157.151 219.035C152.732 220.395 149.911 224.688 148.047 228.919C146.977 231.347 146.067 233.903 144.38 235.95C142.693 237.997 139.976 239.463 137.405 238.806C133.767 237.876 132.361 233.553 131.555 229.884C130.475 224.962 129.389 219.972 129.615 214.938C129.841 209.904 131.538 204.736 135.25 201.328C141.3 195.775 150.578 196.319 158.742 197.205C156.813 195.032 157.29 191.37 159.353 189.325C160.443 188.357 161.752 187.67 163.167 187.322C164.582 186.974 166.06 186.977 167.474 187.33C169.934 187.842 172.15 189.167 173.765 191.091C176.085 193.92 176.745 197.738 178.498 200.949C180.251 204.16 184.194 206.897 187.421 205.175C190.209 203.687 190.651 199.822 189.958 196.74C189.265 193.658 187.79 190.66 188.042 187.51C188.522 181.5 194.751 177.883 200.248 175.408C205.745 172.933 212.04 169.605 212.911 163.639C212.941 162.471 213.161 161.316 213.563 160.219C214.173 159.25 215.02 158.453 216.025 157.904C232.069 147.301 248.379 136.569 266.717 130.776C267.671 130.474 267.783 130.809 268.755 130.573C270.115 129.787 269.215 127.611 267.91 126.734C266.605 125.857 264.861 125.186 264.53 123.65C264.287 122.52 264.952 121.411 265.125 120.269C265.55 117.462 262.192 114.87 259.585 115.992C258.111 114.042 261.025 111.775 263.383 111.126C270.46 109.178 277.725 107.992 285.053 107.586C285.899 107.452 286.766 107.599 287.519 108.006C288.749 108.858 288.593 110.814 287.72 112.031C286.847 113.248 285.49 114.012 284.404 115.041C283.216 116.198 282.369 117.659 281.955 119.265C281.541 120.871 281.576 122.56 282.056 124.147C285.882 126.093 290.041 128.097 294.279 127.411C298.517 126.725 302.277 121.964 300.285 118.161C298.431 114.621 292.859 113.822 291.901 109.941C290.779 105.397 297.211 101.356 295.763 96.906C295.128 94.956 293.185 93.809 291.694 92.402C289.934 90.6764 288.736 88.4586 288.259 86.04C287.782 83.6214 288.047 81.115 289.02 78.85C286.592 79.2773 284.097 79.1161 281.744 78.3799C279.391 77.6437 277.249 76.354 275.497 74.619C272.263 71.354 269.682 66.205 265.089 66.351C260.875 66.485 257.244 71.402 253.303 69.902C252.333 69.533 251.311 68.782 250.372 69.222C250.064 69.4218 249.806 69.6891 249.616 70.0035C249.427 70.3179 249.311 70.6713 249.278 71.037C248.277 75.825 250 81.281 247.39 85.419C244.55 89.922 237.981 90.546 234.538 94.606C232.669 96.81 231.945 99.78 230.228 102.104C228.511 104.428 224.863 105.905 222.802 103.88C223.815 101.797 224.092 99.4322 223.587 97.1716C223.082 94.9111 221.825 92.8887 220.022 91.435C218.108 90.1862 216.044 89.1827 213.88 88.448C211.462 87.4243 209.162 86.1422 207.02 84.624C205.946 83.9768 205.074 83.0437 204.5 81.929C204.047 80.5336 204.108 79.022 204.673 77.668C205.719 74.6708 207.563 72.0161 210.007 69.9905C212.45 67.9648 215.401 66.6452 218.54 66.174C221.285 65.8 224.48 65.932 226.296 63.841C227.258 62.734 227.762 61.061 229.157 60.611C230.05 60.432 230.976 60.5464 231.798 60.937L242.043 64.543C243.186 65.0589 244.445 65.2668 245.693 65.146C246.312 65.0628 246.877 64.7485 247.274 64.2663C247.671 63.784 247.871 63.1695 247.833 62.546C247.505 60.845 244.887 60.028 245.126 58.312C245.26 57.7561 245.558 57.2536 245.983 56.871C249.681 52.9355 254.202 49.8662 259.225 47.8827C264.247 45.8993 269.646 45.0508 275.034 45.398C276.328 47.522 274.282 50.038 272.581 51.85C270.88 53.662 269.511 56.903 271.569 58.298C272.413 58.7286 273.351 58.9401 274.297 58.913C276.82 59.2543 279.271 59.9977 281.558 61.115C285.098 62.6556 288.571 64.3413 291.975 66.172C291.675 63.927 291.388 61.562 292.238 59.464C293.088 57.366 295.508 55.719 297.62 56.536C299.655 57.324 300.699 60.019 302.868 60.266C305.76 60.596 306.902 56.322 305.693 53.673C304.484 51.024 302.093 48.806 301.893 45.901C301.759 43.941 302.504 41.511 300.939 40.325C300.382 39.9686 299.75 39.7467 299.092 39.677L260.008 32.485C257.688 32.058 254.334 32.385 254.231 34.743C254.174 36.059 255.349 37.361 254.829 38.571C254.273 39.862 252.447 39.744 251.118 40.201C249.055 40.91 248.019 43.359 248.218 45.531C248.581 47.6898 249.417 49.7415 250.666 51.539C248.123 50.476 244.274 50.281 241.732 49.217ZM210.547 16.04C208.083 15.2243 205.427 15.1863 202.94 15.9311C200.453 16.676 198.255 18.1677 196.644 20.204C196.001 21.051 195.46 22.219 195.999 23.136C196.772 24.452 198.739 23.932 200.191 23.462C202.324 22.7002 204.645 22.6448 206.811 23.304C208.174 23.772 209.393 24.598 210.761 25.049C211.427 25.3276 212.157 25.4196 212.871 25.3151C213.586 25.2107 214.259 24.9137 214.817 24.456C215.757 23.498 215.815 22.009 215.817 20.667C215.882 20.2181 215.846 19.7604 215.712 19.3272C215.577 18.8939 215.348 18.4962 215.04 18.163C214.493 17.8461 213.877 17.6645 213.245 17.633C211.829 17.3707 210.549 16.6223 209.625 15.517M224.64 12.116C224.089 12.086 223.539 12.1984 223.043 12.4424C222.547 12.6864 222.123 13.0538 221.81 13.5093C221.498 13.9648 221.308 14.493 221.258 15.0432C221.209 15.5934 221.302 16.1471 221.528 16.651C223.222 17.1128 224.992 17.2281 226.731 16.99C227.599 16.8554 228.407 16.467 229.054 15.8736C229.702 15.2803 230.159 14.5087 230.368 13.656C228.32 14.0285 226.207 13.6245 224.44 12.523M271.923 5.56299C267.313 6.54306 262.835 8.06426 258.581 10.095C260.586 10.8658 262.291 12.2604 263.444 14.0732C264.596 15.886 265.136 18.0212 264.983 20.164C264.803 20.9868 264.824 21.8409 265.044 22.654C265.534 23.841 266.954 24.287 268.202 24.592C270.445 25.2745 272.787 25.5734 275.129 25.476C276.301 25.4147 277.439 25.0622 278.44 24.4504C279.441 23.8386 280.274 22.9867 280.863 21.972C281.203 21.0092 281.601 20.0681 282.055 19.154C285.048 14.597 293.937 20.107 297.149 15.702C298.281 14.151 298.177 11.815 299.653 10.586C300.416 10.0505 301.3 9.71302 302.226 9.60399C308.687 8.32044 315.213 7.39106 321.775 6.81999C324.884 6.54899 328.936 5.43298 328.962 2.31198C317.251 0.0120234 305.109 1.64532 294.422 6.95798C290.571 8.88698 285.478 12.944 281.769 10.387C280.381 9.42998 280.449 6.85198 278.538 5.77498C276.584 4.67498 273.998 5.12199 271.923 5.56299Z" fill="#1A182C"/>
<path d="M310.222 12.725L315.719 13.782C314.707 13.7373 313.697 13.9089 312.757 14.2853C311.816 14.6617 310.967 15.2343 310.266 15.9648C309.564 16.6954 309.026 17.5672 308.689 18.522C308.351 19.4769 308.22 20.4928 308.306 21.502C313.454 23.222 319.066 21.548 324.49 21.776C329.914 22.004 336.222 25.879 335.297 31.227C335.017 32.844 334.082 34.46 334.568 36.027C334.908 37.127 335.878 37.907 336.425 38.918C337.565 41.027 336.654 43.694 335.215 45.611C333.776 47.528 331.841 49.057 330.578 51.094C327.436 56.161 329.221 62.711 331.092 68.371C331.633 70.5103 332.633 72.5063 334.022 74.221C336.794 77.168 341.312 77.425 345.36 77.484C348.305 77.527 351.68 77.381 353.542 75.099C355.974 72.119 354.273 67.471 355.874 63.974C357.328 60.799 361.033 59.436 364.389 58.47C370.539 56.7 376.805 55.195 382.619 52.52C389.837 49.2 396.583 44.026 404.518 43.599C406.744 43.479 409.025 43.742 411.168 43.132C413.311 42.522 415.35 40.668 415.188 38.445C415.048 36.545 413.442 35.15 412.186 33.718C410.93 32.286 409.944 30.084 411.098 28.569L431.894 24.685C430.42 20.667 429.272 15.376 432.659 12.761C433.882 11.818 435.518 11.441 436.559 10.301C438.332 8.35601 437.44 5.00702 435.393 3.35402C433.346 1.70102 430.577 1.31702 427.955 1.09902C418.835 0.341019 409.665 0.842022 400.528 1.34302L346.948 4.28002C343.353 4.47702 339.202 4.17601 335.905 5.40201C333.113 6.44101 331.128 8.34703 327.935 9.01603C322.042 10.253 315.555 9.41503 310.222 12.725ZM408.706 56.178C408.146 56.0895 407.573 56.2194 407.106 56.541C406.797 56.8812 406.614 57.3165 406.586 57.775C406.231 59.799 406.653 61.8824 407.769 63.608C408.337 64.4543 409.122 65.1331 410.041 65.5738C410.961 66.0144 411.981 66.201 412.997 66.114C415.472 65.798 417.297 63.687 419.572 62.656C423.08 61.069 437.975 58.596 427.672 53.029C424.12 51.11 421.826 52.804 419.027 54.067C415.843 55.6959 412.275 56.4257 408.707 56.178H408.706ZM498.956 9.58301C497.753 10.0745 496.747 10.9504 496.094 12.074C495.793 12.6447 495.723 13.3092 495.899 13.93C496.074 14.5507 496.482 15.0803 497.037 15.409C497.486 15.572 497.962 15.6477 498.44 15.632L503.332 15.778C505.411 15.84 508.007 16.283 508.565 18.286C508.98 19.773 508.052 21.684 509.172 22.746C509.652 23.1185 510.23 23.3442 510.836 23.396C512.448 23.8101 514.131 23.8644 515.766 23.555C519.325 22.6 517.454 20.427 518.576 18.493C520.291 15.533 519.994 17.325 523.016 15.628C525.248 14.376 528.133 12.103 526.27 8.91002C523.03 3.35802 503.737 7.19701 498.956 9.58301ZM595.515 6.79102L592.675 7.17103C586.269 8.02503 579.826 8.88802 573.657 10.811C576.327 11.867 579.129 12.5546 581.985 12.855C583.557 12.932 585.119 13.1539 586.651 13.518C589.376 14.33 592.121 16.424 594.755 15.351C596.387 14.686 596.92 12.986 598.272 12.085C599.206 11.463 602.747 10.457 603.142 9.82901C606.344 4.75401 597.975 6.46302 595.515 6.79102ZM607.99 19.702C604.195 21.8237 600.674 24.4018 597.506 27.379C596.171 28.634 594.808 30.194 594.929 32.022C595.089 34.452 597.678 35.861 599.919 36.81L609.001 40.655C610.103 39.102 609.094 36.959 607.956 35.433C606.818 33.907 605.464 32.141 605.967 30.305C606.541 28.21 609.097 27.495 611.239 27.135C614.729 26.547 624.146 26.594 623.015 20.968C621.681 14.339 611.494 17.743 607.99 19.702ZM606.163 394.83C605.298 397.332 605.216 400.28 606.712 402.466C608.39 404.918 611.748 405.832 614.654 405.21C617.547 404.44 620.126 402.782 622.027 400.47C623.766 398.532 625.197 396.338 626.269 393.965C627.765 390.268 628.82 386.407 629.412 382.463L632.232 367.659C632.862 364.35 632.837 354.207 626.756 357.512C625.096 358.415 621.249 365.542 619.508 367.564C616.37 371.208 615.955 374.743 614.303 379.156C612.233 384.685 608.076 389.292 606.163 394.829V394.83ZM927.345 470.587C925.355 469.81 923.424 468.891 921.567 467.836C919.704 472.956 918.714 478.353 918.637 483.801L932.253 476.096C934.301 474.936 936.623 473.326 936.579 470.973C936.597 470.683 936.537 470.392 936.405 470.133C936.272 469.874 936.072 469.655 935.826 469.5C935.523 469.379 935.194 469.34 934.872 469.388C932.852 469.556 931.012 470.55 929.107 471.24C927.202 471.93 924.975 472.296 923.228 471.271M999.172 475.16C997.677 475.567 996.217 476.091 994.805 476.728C991.681 478.318 989.555 481.338 986.743 483.431C984.053 485.435 980.813 486.535 977.633 487.605C976.698 488.432 977.128 490.097 978.143 490.823C979.235 491.444 980.487 491.725 981.74 491.631C985.043 491.704 988.523 491.736 991.417 490.141C993.047 489.083 994.573 487.873 995.973 486.525C999.356 483.702 1003.42 481.839 1007.44 480.04C1008.9 479.487 1010.26 478.678 1011.44 477.65C1013.96 475.16 1014.14 471.32 1010.5 470.472C1007.55 469.787 1001.97 474.254 999.172 475.161V475.16ZM1030.91 454.43C1031.07 452.717 1030.84 450.989 1030.24 449.377C1029.64 447.765 1028.68 446.311 1027.43 445.124C1027.39 448.551 1027.29 452.203 1025.36 455.037C1023.99 457.057 1021.84 458.421 1020.33 460.345C1018.83 462.269 1018.16 465.318 1019.92 467.005C1021.05 467.863 1022.43 468.337 1023.84 468.355C1027.36 468.77 1031.42 469 1033.89 466.462C1035.23 465.076 1035.89 463.024 1037.53 462.005C1038.14 461.748 1038.69 461.358 1039.13 460.862C1039.8 459.785 1038.73 458.366 1037.52 457.978C1036.3 457.59 1034.97 457.773 1033.75 457.404C1032.53 457.035 1031.42 455.666 1032.04 454.558M974.503 328.76C972.659 329.208 970.75 329.321 968.867 329.092C965.739 328.516 963.304 326.159 960.779 324.226C954.775 319.655 947.477 317.104 939.933 316.942C933.071 316.812 926.143 318.672 919.403 317.375C919.844 319.825 921.94 321.661 924.176 322.753C926.412 323.845 928.881 324.394 931.128 325.464C934.726 327.194 937.58 330.163 939.167 333.827C939.89 335.517 940.346 337.355 941.442 338.83C943.682 341.845 947.93 342.507 951.678 342.26C956.564 341.939 961.668 340.533 966.215 342.354C969.692 343.747 972.182 346.791 975.085 349.158C977.988 351.525 982.08 353.281 985.415 351.574C981.951 350.453 978.936 348.254 976.811 345.298C974.685 342.342 973.56 338.784 973.6 335.144C976.87 335.444 986.29 335.328 985.783 329.771C985.353 325.061 977.311 328.251 974.503 328.759V328.76ZM931.72 367.076C932.3 363.892 935.476 361.079 934.487 357.996C933.803 355.865 931.331 354.812 929.093 354.76C926.855 354.708 924.656 355.374 922.418 355.437C920.961 355.36 919.501 355.38 918.048 355.499C913.605 356.229 910.867 360.885 906.68 362.541C904.134 363.548 901.275 363.355 898.627 364.051C892.617 365.631 888.814 371.311 884.613 375.889C877.825 383.254 868.982 388.411 859.229 390.692C855.812 391.484 852.139 391.99 849.423 394.209C845.826 397.149 844.94 402.186 844.14 406.762C841.929 419.398 838.55 431.801 834.047 443.812L848.317 445.635C851.031 445.981 853.842 446.32 856.457 445.516C858.356 444.8 860.155 443.841 861.81 442.665C868.166 438.719 875.279 436.151 882.69 435.128C886.426 434.615 890.344 434.521 893.851 435.91C897.358 437.299 900.367 440.45 900.661 444.21C902.177 443.738 903.793 443.687 905.337 444.062C906.88 444.437 908.292 445.225 909.423 446.34C911.658 448.617 913.121 451.539 913.606 454.692C913.982 456.644 914.358 458.983 916.17 459.802C917.648 460.471 919.343 459.751 920.96 459.622C926.446 459.182 931 465.58 936.392 464.478C942.175 463.297 943.595 454.635 949.238 452.9C952.478 451.904 957.024 453.115 958.575 450.101C959.943 447.444 957.215 444.378 957.495 441.403C957.842 437.74 962.163 436.185 965.495 434.623C976.978 429.233 982.428 413.777 976.863 402.378C973.566 395.623 967.078 390.307 965.88 382.887C964.958 377.178 967.208 370.521 963.569 366.027C961.717 363.742 958.582 362.48 957.48 359.752C956.787 358.035 957.066 356.087 956.692 354.274C956.318 352.461 954.737 350.563 952.946 351.033C947.747 352.398 946.088 368.458 943.305 372.36C939.073 378.292 930.387 374.384 931.72 367.076ZM835.625 334.827C833.849 334.329 831.909 333.838 830.207 334.55C828.505 335.262 827.51 337.762 828.877 339.002C839.565 338.585 850.319 338.172 860.917 339.623C873.127 341.296 885.21 345.438 897.474 344.22C890.468 342.153 883.347 340.501 876.148 339.271L864.142 336.978C860.921 336.303 857.667 335.8 854.393 335.471C847.543 334.905 842.36 336.716 835.625 334.827ZM846.326 297.601C845.438 297.527 844.339 297.464 843.88 298.226C843.442 298.956 843.944 299.918 843.708 300.736C843.386 301.853 841.923 302.138 840.771 301.986C839.619 301.834 838.373 301.47 837.351 302.026C836.833 302.38 836.444 302.892 836.243 303.485C836.041 304.078 836.036 304.721 836.231 305.317C836.648 306.5 837.324 307.576 838.208 308.467C839.717 310.37 841.437 312.095 843.335 313.611C847.009 316.322 851.985 317.629 854.3 321.565C854.626 322.328 855.128 323.003 855.764 323.536C856.874 324.24 858.324 323.705 859.519 323.158L863.711 321.243C864.466 320.971 865.14 320.512 865.671 319.91C866.628 318.61 866.041 316.763 865.236 315.363C864.431 313.963 863.404 312.514 863.576 310.909C863.884 308.048 867.563 306.953 869.076 304.504C870.601 302.036 869.608 298.857 869.784 295.96C869.99 292.574 872.118 288.168 868.694 285.638C865.784 283.488 863.003 285.475 860.914 287.848C856.508 292.856 854.424 298.278 846.326 297.601ZM871.771 246.998C873.203 249.738 876.186 251.374 877.747 254.043C879.438 256.935 879.246 260.673 881.081 263.476C882.963 266.353 886.752 267.88 887.808 271.152C888.961 274.724 886.346 279.065 888.431 282.186C888.82 282.696 889.31 283.12 889.871 283.43C890.433 283.741 891.052 283.932 891.691 283.99C892.329 284.049 892.973 283.974 893.582 283.771C894.19 283.568 894.75 283.241 895.225 282.81C896.104 281.853 896.574 280.59 896.535 279.292C896.497 277.993 895.953 276.76 895.019 275.857C893.785 274.731 892.012 274.245 890.982 272.93C890.445 272.171 890.087 271.301 889.936 270.384C889.374 267.739 889.464 264.997 890.198 262.394C890.474 261.734 890.544 261.006 890.399 260.305C889.935 258.956 888.109 258.861 886.827 258.235C883.916 256.814 883.987 252.705 884.495 249.506C884.157 251.636 876.569 248.013 875.775 246.806C874.196 244.41 875.055 239.786 874.743 237.138C871.336 238.78 870.022 243.648 871.771 246.998ZM795.335 289.16C793.935 287.593 791.825 285.953 789.947 286.898C788.515 287.619 788.121 289.601 788.682 291.104C789.366 292.563 790.419 293.819 791.737 294.746C795.65 297.972 799.863 300.885 803.277 304.636C809.385 311.348 812.62 320.406 819.264 326.59C820.599 328.024 822.367 328.98 824.298 329.314C826.233 329.494 828.406 328.256 828.628 326.324C828.812 324.734 827.703 323.31 826.619 322.131C824.039 319.325 821.214 316.741 818.778 313.808C817.653 312.682 816.945 311.205 816.773 309.622C816.761 308.042 818.201 306.39 819.731 306.781C817.87 306.305 816.49 303.205 813.759 302.622C811.476 302.135 810.924 303.548 808.208 302.383C803.028 300.161 798.963 293.222 795.335 289.16ZM917.067 136.514C915.581 136.072 914.12 135.55 912.69 134.95C908.843 133.796 903.754 136.623 904.266 140.606C904.607 143.253 907.07 145.037 908.43 147.333C910.448 150.737 909.91 155.055 908.85 158.868C908.589 160.049 908.094 161.165 907.394 162.15C906.415 163.19 905.245 164.032 903.948 164.63C898.753 167.543 894.172 171.435 890.458 176.09C890.054 176.52 889.773 177.05 889.643 177.625C889.46 178.97 890.811 179.95 891.576 181.072C893.273 183.563 892.046 186.916 892.214 189.927C892.188 190.353 892.272 190.778 892.456 191.162C892.641 191.546 892.921 191.877 893.269 192.123C894.292 192.643 895.505 191.76 896.059 190.755C897.9 187.421 896.514 182.068 899.967 180.46C900.62 180.156 901.412 180.028 901.847 179.454C902.539 178.544 901.872 177.196 902.222 176.108C902.748 174.475 904.982 174.401 906.697 174.474C909.65 174.597 912.603 174.204 915.421 173.312C916.526 173.049 917.531 172.468 918.309 171.64C919.341 170.352 919.249 168.52 919.043 166.882C918.01 158.717 915.423 150.825 911.423 143.632C914.457 144.02 917.757 144.356 920.374 142.775C921.84 141.89 923.597 139.243 922.871 137.441C921.721 134.591 919.644 136.991 917.067 136.514ZM528.218 181.42C528.581 183.367 528.938 185.417 528.299 187.292C527.66 189.167 525.654 190.733 523.759 190.159C522.289 189.713 521.439 188.234 520.394 187.106C514.586 180.836 501.482 184.466 497.894 176.709C496.43 173.543 497.424 169.75 496.426 166.408C495.796 164.476 494.542 162.809 492.861 161.667C491.181 160.525 489.169 159.974 487.141 160.1C485.291 160.367 483.491 160.905 481.798 161.695C470.453 166.238 458.543 169.217 446.396 170.549C444.087 170.69 441.804 171.105 439.594 171.787C434.606 173.595 431.198 178.219 428.774 182.938C426.35 187.657 424.557 192.765 421.306 196.958C417.888 201.363 413.099 204.448 408.633 207.786C406.912 208.895 405.479 210.396 404.452 212.167C403.483 214.156 403.538 216.468 403.613 218.678L404.526 245.522C404.644 248.975 404.791 252.551 406.336 255.641C408.266 259.499 412.078 262.026 414.723 265.435C417.422 268.938 418.828 273.265 418.703 277.685C418.646 279.462 418.47 281.565 419.853 282.68C420.695 283.226 421.68 283.509 422.684 283.494L458.996 286.466C465.383 286.989 472.462 287.849 476.632 292.715C478.6 295.012 480.182 298.315 483.196 298.561C484.489 298.667 485.747 298.136 487.041 298.033C490.304 297.775 493.171 300.252 494.979 302.98C497.717 307.138 498.96 312.103 498.504 317.06C498.207 320.172 497.242 323.197 497.034 326.316C496.243 338.184 506.304 348.495 506.499 360.387C506.613 367.382 503.293 373.918 500.055 380.12C505.28 388.036 501.002 398.577 503.082 407.831C505.055 416.611 512.376 423.484 514.2 432.296C515.035 436.33 515.083 441.295 518.64 443.372C520.201 444.133 521.931 444.479 523.665 444.378C534.121 444.502 544.458 442.149 553.83 437.511C558.229 435.328 562.788 432.07 563.556 427.22C564.176 423.309 562.192 418.934 564.21 415.527C566.59 411.512 572.684 411.83 576.184 408.743C581.863 403.734 577.434 394.183 579.736 386.969C581.804 380.485 588.923 377.041 592.452 371.221C593.841 368.718 594.837 366.017 595.407 363.212C597.023 356.508 598.029 349.671 598.413 342.786C598.507 338.602 598.816 334.426 599.338 330.274C603.142 306.637 626.511 290.808 634.098 268.1C634.822 265.932 635.163 263.043 633.233 261.816C632.088 261.27 630.791 261.135 629.559 261.432L612.82 263.542C610.741 263.804 608.537 264.049 606.628 263.185C604.719 262.321 603.35 259.906 604.363 258.072C607.206 252.922 601.358 246.415 598.76 241.137C591.763 226.926 583.43 213.413 573.875 200.78C573.264 200.13 572.881 199.299 572.785 198.412L577.535 198.57C575.931 192.816 573.285 186.519 567.695 184.414C564.544 183.227 561.055 183.638 557.695 183.821C548.067 184.347 537.746 182.893 528.218 181.42Z" fill="#1A182C"/>
<path d="M557.702 51.7449C560.222 54.4199 563.044 57.2559 566.689 57.7229C573.127 58.5459 577.756 51.889 580.703 46.106C580.812 47.5802 581.492 48.9536 582.598 49.9343C583.704 50.9149 585.149 51.4253 586.626 51.3569C588.215 51.0895 589.732 50.4964 591.081 49.615C603.837 42.6441 618.125 38.9509 632.661 38.867C632.521 37.766 632.794 36.6524 633.427 35.7409C634.06 34.8294 635.008 34.1846 636.089 33.9309C639.045 33.3449 641.707 35.9 643.133 38.5539C644.559 41.2079 645.447 44.285 647.713 46.272C649.979 48.259 654.363 48.1719 655.257 45.2949C656.117 42.5329 653.239 40.1769 650.848 38.5489C648.457 36.9209 645.938 33.906 647.548 31.503C659.761 28.8 672.05 26.0859 684.548 25.5489C686.675 25.623 688.796 25.2577 690.776 24.4759C692.682 23.5409 694.196 21.4169 693.684 19.3569C690.957 19.998 688.1 19.8124 685.479 18.8238C682.858 17.8352 680.59 16.0883 678.966 13.8059C696.306 12.3749 714.751 11.155 730.119 19.315C731.963 23.274 722.564 26.5679 725.079 30.1379C725.881 31.2779 727.488 31.4109 728.881 31.4369C739.56 31.6349 750.301 31.8289 760.861 30.2169C764.719 29.6269 768.616 28.7959 772.491 29.274C778.943 30.07 784.462 34.375 790.811 35.779C793.394 36.35 796.291 36.369 798.469 34.867C800.647 33.365 801.584 29.942 799.799 27.988C805.776 22.13 815.696 23.5819 823.581 26.3869C831.466 29.1919 838.937 33.714 847.283 34.339C853.267 34.787 859.335 33.178 865.249 34.201C868.965 34.844 872.424 36.4969 876.056 37.5129C882.925 39.4329 890.192 39.028 897.324 39.121C915.522 39.366 933.521 42.9423 950.43 49.673C952.63 50.3891 954.645 51.5798 956.334 53.1609C957.907 54.8459 958.709 57.464 957.652 59.513L940.179 56.9599C941.825 60.1999 946.084 60.7529 949.543 61.8699C953.002 62.9869 956.588 66.808 954.509 69.79C950.762 68.597 947.366 72.3439 945.473 75.7909C943.58 79.2379 941.273 83.3669 937.345 83.5769C933.829 83.7649 929.575 80.771 927.283 83.4439C930.45 87.4392 933.162 91.775 935.369 96.3709C937.633 101.089 939.246 107.034 936.185 111.279C935.703 112.037 934.973 112.603 934.119 112.881C931.619 113.514 929.995 110.456 928.202 108.602C925.943 106.266 922.527 105.605 919.467 104.509C916.407 103.413 913.185 101.259 912.946 98.019C912.797 96.002 913.862 94.127 914.646 92.264C915.964 89.1227 916.54 85.72 916.33 82.32C916.159 79.585 915.392 76.74 913.427 74.829C911.462 72.918 908.071 72.311 905.962 74.062C904.978 74.878 904.19 76.185 902.912 76.234C900.654 76.32 898.921 72.3839 897.104 73.7269C897.317 75.1588 897.02 76.6199 896.265 77.855C890.845 82.57 882.517 80.5749 875.529 82.2409C872.206 83.1918 869.025 84.581 866.069 86.372C864.963 86.8447 864.021 87.6346 863.364 88.6419C862.492 90.3369 863.454 92.508 864.991 93.635C866.622 94.635 868.454 95.2604 870.356 95.466C878.876 97.0799 887.519 99.5779 894.246 105.05C900.973 110.522 905.382 119.568 903.254 127.973L886.454 111.92C887.091 118.66 887.453 125.419 887.539 132.197C887.648 133.52 887.466 134.851 887.007 136.097C885.809 138.743 882.563 139.633 879.718 140.217C878.927 140.367 878.176 140.684 877.516 141.145C876.856 141.606 876.301 142.201 875.887 142.892C875.473 143.583 875.21 144.353 875.115 145.153C875.02 145.953 875.095 146.763 875.336 147.532C876.346 150.826 878.866 153.395 881.174 155.954C883.482 158.513 885.752 161.422 886.054 164.854C886.356 168.286 883.766 172.156 880.329 171.917C877.723 171.737 875.789 169.404 874.678 167.04C873.567 164.676 872.905 162.042 871.235 160.034C866.18 153.954 854.825 156.559 850.297 150.078C849.143 151.387 848.342 152.97 847.972 154.676C847.601 156.382 847.673 158.154 848.18 159.824C850.286 158.504 853.17 159.73 854.753 161.646C856.336 163.562 857.083 166.02 858.326 168.172C860.003 171.076 862.673 173.651 862.906 176.997C862.844 178.262 862.866 179.53 862.971 180.792C863.386 182.819 865.1 184.275 866.288 185.969C869.052 189.912 868.916 195.329 867.134 199.802C865.352 204.275 862.151 208.013 858.981 211.637C853.443 217.967 847.792 224.26 841.227 229.517C839.354 231.017 837.354 232.492 836.187 234.589C835.02 236.686 834.961 239.629 836.754 241.225C835.471 241.289 833.17 241.92 831.888 241.985C831.437 236.838 831.338 231.667 831.594 226.507C826.532 224.077 821.081 230.587 821.734 236.164C822.387 241.741 826.422 246.218 829.294 251.044C831.394 254.573 832.955 258.688 832.254 262.734C831.553 266.78 827.941 270.514 823.849 270.157C817.342 269.589 814.619 260.247 808.175 259.177C807.606 259.044 807.01 259.104 806.479 259.347C805.523 259.871 805.357 261.151 805.303 262.241C805.039 267.591 804.811 273.151 806.899 278.084C809.954 285.299 817.846 291.358 816.19 299.016C807.272 294.871 802.636 284.87 800.53 275.264C798.424 265.658 798.074 255.573 794.3 246.492C791.435 250.164 785.412 247.128 782.794 243.275C780.312 239.622 778.784 235.397 776.376 231.695C773.968 227.993 770.278 224.678 765.866 224.475C761.241 224.261 757.23 227.435 753.702 230.434C750.801 232.9 747.822 235.464 746.127 238.873C743.659 243.833 744.305 249.682 744.186 255.221C744.057 261.21 742.788 267.528 738.706 271.912C734.624 276.296 727.091 277.824 722.589 273.872C720.239 271.81 719.101 268.728 718.087 265.769C713.201 251.509 709.131 236.982 705.899 222.259C705.143 225.619 702.192 229.95 699.373 227.971C698.74 227.439 698.227 226.778 697.869 226.033C692.611 217.121 682.873 211.776 673.034 208.57C663.195 205.364 652.844 203.87 643.114 200.347C637.661 198.373 632.454 195.779 627.593 192.617C626.354 194.437 625.63 196.559 625.499 198.757C625.368 200.955 625.833 203.148 626.847 205.103C629.005 208.924 633.889 211.136 638.07 209.8C640.23 209.11 642.055 207.61 644.198 206.869C646.341 206.128 649.219 206.492 650.157 208.557C651.054 210.534 649.697 212.925 650.37 214.99C651.395 218.133 656.136 218.375 657.794 221.236C659.028 223.365 658.013 226.191 656.252 227.909C654.491 229.627 652.14 230.569 649.99 231.764C643.014 235.643 638.053 242.265 631.956 247.417C625.859 252.569 617.258 256.331 609.992 253.027C611.724 244.257 601.277 237.817 599.355 229.087C598.722 226.213 599.05 223.161 598.147 220.361C596.839 216.306 593.242 213.518 590.291 210.446C586.712 206.679 583.924 202.233 582.091 197.371C580.258 192.508 579.417 187.328 579.619 182.136C579.779 178.528 580.441 174.861 579.619 171.344C578.797 167.827 575.885 164.423 572.277 164.582C564.036 164.946 553.654 165.559 549.33 158.534C547.787 156.027 547.115 152.354 549.347 150.434C550.921 149.078 553.244 149.206 555.311 149.409L573.879 151.236C578.222 151.663 582.916 152.016 586.643 149.746C590.37 147.476 591.985 141.448 588.533 138.777C586.013 136.825 581.495 136.931 580.763 133.828C580.152 131.244 583.013 128.311 581.467 126.152C580.36 124.603 577.869 125.032 576.36 126.194C574.851 127.356 573.756 129.052 572.067 129.931C569.104 131.473 565.563 130.006 562.376 129.008C559.189 128.01 554.914 127.926 553.368 130.887C551.639 134.198 554.902 138.537 553.186 141.855C550.917 146.242 543.233 143.745 540.046 147.518C536.39 151.848 542.535 158.304 541.302 163.835C539.728 164.615 537.978 164.973 536.224 164.874C534.47 164.776 532.772 164.224 531.295 163.273C529.842 162.285 528.684 160.922 527.944 159.328C527.205 157.735 526.911 155.97 527.094 154.223C527.399 151.734 528.696 149.194 527.827 146.843C527.124 144.942 525.216 143.81 523.441 142.829L505.397 132.859C503.722 135.966 505.84 139.819 508.489 142.153C511.138 144.487 514.455 146.245 516.195 149.317C517.296 151.445 517.542 153.914 516.885 156.218C516.227 158.522 514.715 160.488 512.657 161.715C512.399 161.893 512.105 162.013 511.796 162.067C511.488 162.121 511.171 162.107 510.868 162.027C510.58 161.858 510.329 161.633 510.13 161.365C509.93 161.097 509.787 160.791 509.708 160.467C506.524 152.32 501.744 144.287 494.102 140.031C486.46 135.775 475.479 136.65 470.468 143.819C469.278 145.522 468.478 147.463 467.442 149.264C461.932 158.829 450.122 163.359 439.088 163.063C438.008 163.123 436.935 162.87 435.995 162.336C434.211 161.104 434.292 158.491 434.565 156.341L435.723 147.216C435.956 145.384 436.293 143.359 437.743 142.216C439.787 140.603 442.736 141.62 445.339 141.583C447.311 141.491 449.207 140.794 450.77 139.588C452.333 138.381 453.488 136.723 454.077 134.839C454.603 132.936 454.599 130.926 454.067 129.024C453.535 127.123 452.494 125.403 451.057 124.05C449.863 122.93 448.262 121.522 448.892 120.01C449.143 119.592 449.483 119.235 449.888 118.962C450.293 118.69 450.752 118.51 451.234 118.434C455.91 117.076 460.851 116.72 465.449 115.118C470.047 113.516 474.506 110.238 475.595 105.492C475.929 104.037 476.081 102.276 477.387 101.554C478.042 101.277 478.746 101.133 479.458 101.131C481.95 100.776 484.22 99.5012 485.82 97.557C487.42 95.6128 488.234 93.1403 488.102 90.626C490.306 89.086 493.393 90.2179 495.525 91.8559C497.657 93.4939 499.539 95.658 502.133 96.364C506.967 97.679 511.639 93.3989 516.649 93.3789C518.756 93.3709 520.937 94.116 522.919 93.402C524.929 92.678 526.129 90.677 527.67 89.2C529.211 87.723 531.918 86.8199 533.342 88.4119L532.13 79.4299C534.572 80.0468 537.117 80.1341 539.596 79.686C542.074 79.2379 544.428 78.2648 546.5 76.8319L530.828 71.5369C530.282 71.4008 529.779 71.1318 529.363 70.7539C528.223 69.5269 529.355 67.614 530.282 66.22C532.498 62.884 532.87 57.388 529.225 55.727C526.737 54.593 523.882 55.954 521.494 57.285L510.055 63.6629C509.692 65.8379 512.351 67.0699 513.998 68.5339C514.995 69.42 515.7 70.5869 516.022 71.8813C516.344 73.1758 516.266 74.5372 515.8 75.7868C515.334 77.0365 514.5 78.1158 513.409 78.8831C512.318 79.6503 511.021 80.0697 509.687 80.0859C510.44 81.0653 510.963 82.2014 511.218 83.4104C511.473 84.6193 511.452 85.87 511.158 87.07L503.462 87.6239C502.598 87.7975 501.701 87.622 500.966 87.1359C500.143 86.4059 500.254 85.124 500.064 84.04C499.604 81.423 497.041 79.5889 494.425 79.1189C491.809 78.6489 489.135 79.251 486.545 79.846C485.445 80.2416 484.238 80.2138 483.158 79.768C482.539 79.3657 482.068 78.7718 481.818 78.0769C480.683 75.3239 481.744 72.088 483.568 69.734C485.392 67.38 487.887 65.659 490.128 63.7C495.489 58.9961 499.428 52.8867 501.5 46.0619C505.737 44.2869 510.123 41.875 514.36 40.1C520.892 36.7929 528.216 35.3737 535.511 36.0019L549.859 36.2759C554.107 36.3559 558.47 36.461 562.398 38.08C566.326 39.6989 569.778 43.2029 570.048 47.4429C570.129 47.9229 570.088 48.4158 569.927 48.8753C569.766 49.3348 569.491 49.7458 569.128 50.07C568.573 50.3725 567.945 50.5142 567.315 50.479C563.353 50.619 561.664 51.6049 557.702 51.7449ZM443.339 96.712C443.899 96.1813 444.303 95.5063 444.504 94.7613C444.706 94.0162 444.699 93.23 444.483 92.489C443.119 91.9628 441.635 91.8278 440.199 92.0991C438.762 92.3705 437.43 93.0375 436.352 94.0249C435.502 94.8847 434.769 95.8531 434.173 96.9049C432.288 99.9809 430.62 103.655 431.713 107.094C431.802 107.469 431.965 107.822 432.192 108.133C432.42 108.444 432.707 108.706 433.037 108.905C433.526 109.102 434.054 109.184 434.581 109.147C436.658 109.144 438.733 109.017 440.795 108.765C442.061 108.61 443.532 108.252 444.021 107.075C444.664 105.526 443.107 103.774 443.561 102.16C443.859 101.438 444.312 100.79 444.887 100.261C445.172 99.9947 445.391 99.6656 445.527 99.2999C445.663 98.9341 445.711 98.5418 445.669 98.1539C445.486 97.3959 444.326 96.9669 443.909 97.6239" fill="#1A182C"/>
</svg>
